<?xml version="1.0" encoding="utf-8"?>
<!-- Generator: Adobe Illustrator 27.5.0, SVG Export Plug-In . SVG Version: 6.00 Build 0)  -->
<svg version="1.1" xmlns="http://www.w3.org/2000/svg" xmlns:xlink="http://www.w3.org/1999/xlink" x="0px" y="0px"
	 viewBox="0 0 700 500" style="enable-background:new 0 0 700 500;" xml:space="preserve">
<g id="BACKGROUND">
	<g>
		<rect style="fill:#F2F4FF;" width="700" height="500"/>
	</g>
</g>
<g id="OBJECTS">
	<path style="fill-rule:evenodd;clip-rule:evenodd;fill:#E4E8F7;" d="M641.242,445.128l-610.484,5.405
		c0,0,21.454-29.502,38.226-39.021c25.518-14.484,76.081-34.856,89.615-59.3c26.059-47.066,8.796-113.71,44.736-168.175
		c11.706-17.738,30.413-36.069,50.629-33.304c21.141,2.891,38.875,22.913,55.249,37.403c22.971,20.332,50.078,37.041,79.427,35.718
		c39.124-1.763,65.861-53.538,107.634-41.009c48.589,14.572,54.975,88.104,69.793,134.862c7.666,24.189,19.846,45.804,32.836,66.294
		c10.384,16.38,21.423,31.699,32.697,47.157C632.461,432.336,641.242,445.128,641.242,445.128z"/>
	<g>
		<g>
			<path style="fill-rule:evenodd;clip-rule:evenodd;fill:#303790;" d="M140.102,239.46c-2.347-1.07-4.827-2.879-6.066-5.182
				c-1.179-2.192-1.546-4.706-2.108-7.1c-0.564-2.407-1.168-4.792-1.516-7.241c-0.328-2.303-0.469-4.623-0.533-6.948
				c-0.018-0.657,0.018-1.289,0.087-1.94c0.002-0.024,0.053-0.458,0.057-0.457c0.759,0.09,1.57,1.077,2.108,1.545
				c1.697,1.476,3.396,2.846,4.773,4.646c1.798,2.351,3.579,4.977,4.527,7.804c1.112,3.318,1.239,6.966,0.747,10.394
				c-0.221,1.544-0.443,3.528-1.107,4.983L140.102,239.46z M151.511,258.609c-1.406-1.942-2.812-3.905-3.526-6.225
				c-1.849-6.003,0.756-12.179,3.084-17.601c0.721-1.679,0.836-3.455,1.312-5.194c0.134-0.489,0.311-1.432,0.973-1.47
				c0.875-0.049,1.473,0.995,1.866,1.606c1.258,1.957,2.405,4.193,2.931,6.471c1.553,6.738-0.266,12.687-3.113,18.741
				c-0.866,1.841-1.77,4.466-3.268,5.936L151.511,258.609z M159.841,274.131c-2.775,1.584-6.84,0.794-9.816,0.324
				c-9.714-1.536-17.678-6.299-23.845-13.92c-2.313-2.857-4.052-5.982-5.765-9.216c-0.405-0.766-0.838-1.536-1.177-2.335
				c-0.1-0.236-0.407-0.55-0.229-0.736c0.47-0.494,1.821,0.2,2.2,0.367c2.733,1.204,5.302,2.627,8.126,3.641
				c9.876,3.548,19.217,7.96,25.939,16.186c1.084,1.326,2.373,2.481,3.192,4.007L159.841,274.131z M170.643,290.446
				c-4.207-6.524-6.612-15.044-6.512-22.783c0.05-3.888,0.995-7.805,2.074-11.518c0.938-3.227,2.095-6.44,3.453-9.514
				c0.364-0.823,0.705-1.653,1.042-2.487c0.035-0.086,0.15-0.581,0.314-0.493c1.227,0.657,1.847,2.602,2.301,3.767
				c1.051,2.693,1.842,5.557,2.514,8.367c0.627,2.625,1.036,5.298,1.288,7.984c0.656,7.004,0.365,14.343-2.262,20.925
				c-0.863,2.163-1.93,4.678-3.725,6.27L170.643,290.446z M185.673,309.453c-4.344,1.874-9.346,0.958-13.835,0.139
				c-9.259-1.691-18.02-4.979-25.323-11.079c-3.153-2.635-5.815-5.828-8.086-9.238c-0.849-1.274-1.611-2.598-2.424-3.895
				c-0.306-0.488-0.612-0.979-0.928-1.461c-0.151-0.23-0.754-0.665-0.478-0.674c1.298-0.041,2.862,0.901,4.071,1.286
				c2.503,0.799,5.066,1.336,7.623,1.925c10.322,2.378,21.203,5.754,29.44,12.761c1.705,1.451,2.933,3.269,4.407,4.928
				c0.827,0.931,1.759,1.715,2.474,2.746L185.673,309.453z M197.719,324.662c-4.235-4.325-6.673-10.056-8.191-15.834
				c-1.087-4.14-2.171-8.327-2.379-12.62c-0.198-4.05,0.395-8.142,0.779-12.159c0.149-1.551,0.23-3.094,0.179-4.65
				c-0.015-0.482-0.048-0.963-0.075-1.445c-0.01-0.169-0.164-0.613-0.033-0.507c0.927,0.757,1.623,1.958,2.301,2.925
				c1.443,2.06,2.795,4.186,4.144,6.309c5.454,8.581,8.677,19.186,8.074,29.397c-0.21,3.547-0.702,8.438-3.21,11.264
				L197.719,324.662z M222.183,349.899l-1.44-2.306c-2.246-1.984-3.802-4.605-5.293-7.177c-3.973-6.852-6.592-14.849-5.762-22.844
				c0.365-3.525,0.831-7.041,1.139-10.571c0.092-1.065,0.173-2.117,0.161-3.186c-0.006-0.63-0.006-0.583-0.048-1.18
				c-0.018-0.25-0.255-0.902-0.056-0.749c0.965,0.736,1.581,2.132,2.213,3.128c1.452,2.288,2.864,4.545,4.031,6.998
				c4.235,8.907,7.11,18.822,7.133,28.749c0.005,2.142-0.221,4.233-0.482,6.356c-0.129,1.052-0.288,2.362-0.847,3.332
				c0.693,0.525,1.361,1.083,1.987,1.701l3.458,1.97c-14.338,0.975-28.753-0.819-41.041-8.676
				c-4.409-2.82-8.195-6.327-11.643-10.235c-0.985-1.116-2.025-2.223-3.154-3.196c-0.452-0.39-0.56-0.474-1.026-0.811
				c-0.261-0.188-1.125-0.6-0.817-0.509c8.216,2.436,16.812,3.266,25.084,5.527c4.725,1.292,9.683,2.81,13.967,5.242
				c2.987,1.696,5.697,3.778,8.495,5.756C219.54,348.139,220.892,348.98,222.183,349.899z M245.481,370.143l0.01-0.303
				c-2.058-3.176-4.514-6.056-6.498-9.281c-4.026-6.542-7.734-14.171-9.164-21.784c-1.359-7.235-1.391-15.368-0.252-22.628
				c0.724-4.617,2.122-9.076,3.135-13.63c0.372-1.674,0.342-3.475,0.719-5.114c0.081-0.354,0.379,0.618,0.552,0.937
				c0.434,0.807,0.565,1.145,0.962,1.987c0.856,1.819,1.784,3.589,2.715,5.371c2.484,4.76,4.81,9.544,6.534,14.64
				c2.632,7.78,5.154,15.657,5.581,23.927c0.188,3.617-0.124,7.271-0.417,10.873c-0.407,4.975-1.211,10.579-3.693,15.051
				l0.249,0.059c-5.327,4.524-14.201,4.309-20.717,4.11c-11.546-0.355-22.816-2.137-32.586-8.742
				c-4.818-3.258-8.628-7.8-13.008-11.588c-0.261-0.225,0.683,0.103,1.025,0.15c0.375,0.054,0.749,0.11,1.126,0.154
				c1.741,0.203,3.474,0.255,5.224,0.305c5.129,0.146,10.199,0.308,15.293,0.955c14.811,1.88,28.85,8.207,42.334,14.344
				L245.481,370.143z"/>
			<path style="fill-rule:evenodd;clip-rule:evenodd;fill:#8F98FB;" d="M283.898,398.38
				c-59.771-36.272-115.576-95.504-144.646-159.509c-0.288-0.634-0.007-1.384,0.628-1.673c0.635-0.288,1.384-0.006,1.673,0.628
				c28.868,63.563,84.3,122.374,143.655,158.395c0.597,0.362,0.787,1.138,0.425,1.735
				C285.272,398.552,284.493,398.742,283.898,398.38z"/>
		</g>
		<g>
			<path style="fill-rule:evenodd;clip-rule:evenodd;fill:#8F98FB;" d="M576.05,343.858c2.099-1.751,4.636-3.019,7.007-4.35
				c5.85-3.288,12.452-6.046,19.285-5.541c2.668,0.198,7.241,0.574,8.656,3.318c1.172,2.272-1.808,4.6-3.487,5.452
				c-5.603,2.844-11.959,3.336-18.161,3.223c-4.853-0.089-9.936-0.246-14.74-1.017L576.05,343.858z M567.394,350.912
				c0.123-5.231,2.156-10.598,3.904-15.473c2.836-7.905,5.89-15.223,11.107-21.849c1.957-2.485,4.005-5.585,7.162-6.643
				c1.438-0.483,3.292-0.881,4.603,0.158c1.618,1.28,1.701,3.578,1.479,5.448c-0.384,3.211-1.372,6.308-2.677,9.25
				c-2.819,6.358-7.235,12.12-12.211,16.977c-1.763,1.719-3.833,3.105-5.582,4.841c-2.102,2.087-4.088,4.284-6.315,6.249
				L567.394,350.912z M539.243,368.683c-0.671,0.538-1.341,1.073-2.01,1.606l-3.178,0.658c4.164-7.494,5.821-16.336,9.459-24.121
				c3.335-7.136,9.213-13.544,15.678-18.077c2.972-2.084,7.888-3.881,8.617,1.197c0.708,4.921-2.568,10.658-5.085,14.653
				c-5.527,8.779-13.361,15.852-21.392,22.395l1.399-0.764c2.899-1.161,6.683-2.672,9.358-4.252c3.026-1.788,6.293-3.041,9.582-4.25
				c6.233-2.288,12.682-3.395,19.308-3.437c2.034-0.013,4.616-0.314,6.553,0.484c2.56,1.056,2.174,4.604,1.055,6.568
				c-2.172,3.814-6.629,6.665-10.579,8.323c-7.512,3.153-17.294,3.808-25.331,2.492
				C548.144,371.417,543.734,369.717,539.243,368.683z M509.97,383.874c4.374-2.083,9.485-3.288,14.148-4.54
				c10.626-2.854,21.618-5.168,32.677-4.033c1.775,0.183,2.093,0.228,3.881,0.502c1.735,0.268,1.92,0.298,3.591,0.649
				c2.77,0.582,10.834,3.165,8.437,7.836c-3.061,5.962-12.224,7.988-18.269,8.476c-15.726,1.27-31.167-4.929-46.224-8.65
				L509.97,383.874z M493.36,390.544c0.064-6.022,3.652-11.628,6.209-16.887c5.68-11.677,11.658-24.045,20.183-33.979
				c0.848-0.988,1.74-1.983,2.656-2.912c3.093-3.141,9.996-9.243,14.76-5.105c1.53,1.329,1.799,3.538,1.689,5.444
				c-0.258,4.452-2.702,8.851-4.934,12.6c-6.085,10.23-13.874,18.847-22.255,27.185c-4.13,4.108-8.291,8.96-13.519,11.725
				L493.36,390.544z M466.065,400.121l-0.483,0.369c-1.396-5.383,1.533-11.291,3.231-16.241
				c4.225-12.309,9.654-24.265,17.133-34.973c0.618-0.884,1.744-2.351,2.403-3.206c2.546-3.302,8.517-11.187,13.699-8.312
				c2.189,1.215,2.603,3.876,2.663,6.151c0.134,5.068-1.674,9.972-3.712,14.529c-6.407,14.326-17.157,24.772-28.45,35.26
				c-1.928,1.792-3.534,3.903-5.493,5.665l-0.395,0.302l2.5-0.305c2.239-1.624,5.143-1.99,7.805-2.463
				c3.163-0.562,6.355-1.025,9.545-1.404c11.396-1.354,23.094-2.103,34.56-1.334c5.884,0.395,12.31,1.159,16.9,5.272
				c0.816,0.732,1.54,1.628,2.018,2.617c2.149,4.44-0.213,8.287-3.987,10.653c-7.503,4.706-17.239,4.335-25.626,2.84
				c-6.225-1.11-12.384-2.588-18.395-4.549c-5.002-1.63-9.713-3.757-14.558-5.773C473.605,403.629,469.687,402.137,466.065,400.121z
				"/>
			<path style="fill-rule:evenodd;clip-rule:evenodd;fill:#535CC7;" d="M427.653,410.26
				c61.116-10.604,126.391-41.457,171.128-84.912c0.444-0.43,0.454-1.141,0.024-1.584c-0.432-0.444-1.141-0.454-1.585-0.024
				c-44.428,43.153-109.258,73.78-169.949,84.311c-0.611,0.105-1.02,0.687-0.913,1.296
				C426.464,409.958,427.044,410.367,427.653,410.26z"/>
		</g>
		<g>
			<path style="fill-rule:evenodd;clip-rule:evenodd;fill:#E7A35A;" d="M453.621,353.451c4.43-17.118,12.045-34.041,19.276-50.173
				c3.053-6.811,5.904-15.083,11.274-20.501c5.746-5.797,10.431,1.457,16.208,1.785c4.305,0.244,7.394-4.22,9.253-7.477
				c8.002-14.02,10.903-30.239,17.805-44.735c2.526-5.304,6.38-13.938,12.29-16.376c8.338-3.438,8.847,12.596,16.161,10.285
				c3.039-0.96,4.897-3.63,6.442-6.229c1.357-2.281,2.566-4.625,3.758-6.996c0.901-1.79,1.833-3.546,2.824-5.288
				c2.924-5.137,11.198-17.379,18.404-10.093c3.838,3.881,2.321,9.773,0.39,14.197c-4.679,10.728-14.167,18.478-17.044,30.193
				c-2.259,9.199,7.631,11.621,3.514,21.697c-4.916,12.035-18.085,18.097-28.463,24.461c-4.184,2.563-9.44,5.273-12.275,9.457
				c-2.939,4.336,3.294,7.153,4.806,10.522c2.854,6.359-4.022,13.327-8.796,16.424C507.389,338.914,479.935,343.81,453.621,353.451z
				"/>
			<path style="fill-rule:evenodd;clip-rule:evenodd;fill:#E5933C;" d="M429.576,367.686c13.739-4.44,26.551-14.63,38.057-22.883
				c25.487-18.284,48.724-39.249,68.185-63.938c7.013-8.899,13.548-17.702,19.5-27.345c2.88-4.663,6.06-9.882,7.815-15.498
				c0.173-0.552-0.135-1.141-0.688-1.314c-0.552-0.173-1.141,0.135-1.314,0.688c-1.703,5.446-4.805,10.5-7.598,15.022
				c-5.911,9.574-12.399,18.314-19.363,27.148c-19.337,24.534-42.433,45.364-67.76,63.533c-11.338,8.133-23.94,18.216-37.478,22.591
				c-0.551,0.178-0.853,0.769-0.676,1.32C428.434,367.561,429.026,367.864,429.576,367.686z"/>
		</g>
		<g>
			<path style="fill-rule:evenodd;clip-rule:evenodd;fill:#D05E57;" d="M262.336,414.462c-9.357-13.804-21.482-26.427-33.014-38.468
				c-4.868-5.083-10.021-11.53-16.507-14.641c-6.941-3.33-8.805,4.598-13.833,6.718c-3.748,1.581-7.905-1.406-10.589-3.712
				c-11.549-9.921-19.262-23.411-29.984-34.102c-3.924-3.913-10.081-10.361-16.104-10.655c-8.496-0.414-3.87,13.99-11.1,14.254
				c-3.003,0.109-5.499-1.675-7.695-3.494c-1.928-1.596-3.744-3.296-5.554-5.024c-1.367-1.305-2.75-2.57-4.183-3.803
				c-4.224-3.638-15.452-11.894-19.546-3.14c-2.181,4.664,1.034,9.418,4.149,12.737c7.554,8.048,18.437,11.929,24.703,21.424
				c4.92,7.456-3.099,12.741,3.749,20.388c8.179,9.134,21.797,10.35,33.033,12.716c4.528,0.953,10.055,1.695,13.9,4.514
				c3.983,2.921-0.661,7.397-0.938,10.87c-0.522,6.553,7.793,10.565,13.015,11.805C209.967,418.576,235.907,414.232,262.336,414.462
				z"/>
			<path style="fill-rule:evenodd;clip-rule:evenodd;fill:#E7A35A;" d="M288.205,419.494c-13.611,0.407-28.221-4.589-41.054-8.277
				c-28.434-8.172-55.715-19.436-80.822-35.207c-9.048-5.683-17.641-11.436-25.983-18.116c-4.034-3.23-8.513-6.861-11.851-11.293
				c-0.328-0.437-0.241-1.057,0.195-1.385c0.436-0.328,1.057-0.241,1.385,0.195c3.237,4.298,7.594,7.805,11.507,10.939
				c8.283,6.633,16.815,12.343,25.799,17.986c24.948,15.671,52.062,26.86,80.315,34.98c12.648,3.634,27.036,8.601,40.448,8.201
				c0.546-0.016,1.002,0.413,1.018,0.958C289.18,419.021,288.751,419.478,288.205,419.494z"/>
		</g>
	</g>
	<g>
		<rect x="202.36" y="439.144" style="fill-rule:evenodd;clip-rule:evenodd;fill:#282C5E;" width="296.268" height="6.778"/>
		<rect x="231.891" y="245.974" style="fill-rule:evenodd;clip-rule:evenodd;fill:#282C5E;" width="237.193" height="148.637"/>
		<polygon style="fill-rule:evenodd;clip-rule:evenodd;fill:#1A1F58;" points="498.614,439.152 202.359,439.152 231.985,394.615 
			468.989,394.615 		"/>
		<path style="fill-rule:evenodd;clip-rule:evenodd;fill:#282C5E;" d="M457.782,402.708h5.887l3.552,5.377h-9.439V402.708z
			 M400.449,408.085h54.417v-5.377h-54.417V408.085z M385.455,408.085h12.079v-5.377h-12.079V408.085z M370.46,408.085h12.079
			v-5.377H370.46V408.085z M355.464,408.085h12.079v-5.377h-12.079V408.085z M340.469,408.085h12.079v-5.377h-12.079V408.085z
			 M324.648,408.085h12.905v-5.377h-12.905V408.085z M309.653,408.085h12.079v-5.377h-12.079V408.085z M294.657,408.085h12.079
			v-5.377h-12.079V408.085z M279.662,408.085h12.079v-5.377h-12.079V408.085z M276.747,402.708v5.377h-40.9l3.552-5.377H276.747z
			 M457.782,410.686h11.158l4.222,6.394h-15.38V410.686z M400.449,417.08h54.417v-6.394h-54.417V417.08z M385.455,417.08h12.079
			v-6.394h-12.079V417.08z M370.46,417.08h12.079v-6.394H370.46V417.08z M355.464,417.08h12.079v-6.394h-12.079V417.08z
			 M340.469,417.08h12.079v-6.394h-12.079V417.08z M324.648,417.08h12.905v-6.394h-12.905V417.08z M309.653,417.08h12.079v-6.394
			h-12.079V417.08z M294.657,417.08h12.079v-6.394h-12.079V417.08z M279.662,417.08h12.079v-6.394h-12.079V417.08z M276.747,410.686
			v6.394h-46.841l4.222-6.394H276.747z M400.449,420.933h75.257l6.218,9.411h-81.475V420.933z M385.455,430.344h12.079v-9.412
			h-12.079V430.344z M370.46,430.344h12.079v-9.412H370.46V430.344z M355.464,430.344h12.079v-9.412h-12.079V430.344z
			 M340.469,430.344h12.079v-9.412h-12.079V430.344z M337.554,420.933v9.411h-116.41l6.218-9.411H337.554z"/>
		<rect x="241.256" y="256.661" style="fill-rule:evenodd;clip-rule:evenodd;fill:#D3D7FD;" width="218.46" height="127.918"/>
		<text transform="matrix(1 0 0 1 298.3433 288.6807)"><tspan x="0" y="0" style="fill:#535CC7; font-family:'Montserrat-Bold'; font-size:17.2711px;">CUSTOMER</tspan><tspan x="7.729" y="20.726" style="fill:#535CC7; font-family:'Montserrat-Bold'; font-size:17.2711px;">SUPPORT</tspan></text>
		<g>
			<rect x="256.282" y="326.825" style="fill-rule:evenodd;clip-rule:evenodd;fill:#F2F4FF;" width="187.436" height="49.77"/>
			<rect x="256.282" y="326.825" style="fill-rule:evenodd;clip-rule:evenodd;fill:#535CC7;" width="187.436" height="5.543"/>
			<g>
				<defs>
					<rect id="SVGID_1_" x="256.282" y="326.825" width="187.436" height="49.77"/>
				</defs>
				<clipPath id="SVGID_00000056421568517881588300000014638384108473850812_">
					<use xlink:href="#SVGID_1_"  style="overflow:visible;"/>
				</clipPath>
				<g style="clip-path:url(#SVGID_00000056421568517881588300000014638384108473850812_);">
					<rect x="265.108" y="340.074" style="fill:#E4E8F7;" width="49.266" height="41.179"/>
					<rect x="320.414" y="340.074" style="fill:#E4E8F7;" width="64.072" height="16.926"/>
					<rect x="320.414" y="361.679" style="fill:#E4E8F7;" width="64.072" height="22.9"/>
					<rect x="390.176" y="340.074" style="fill:#E4E8F7;" width="43.607" height="43.607"/>
				</g>
			</g>
		</g>
		<g>
			<defs>
				
					<rect id="SVGID_00000151507342627940967480000002782644873951467174_" x="241.256" y="256.661" width="218.46" height="127.918"/>
			</defs>
			<clipPath id="SVGID_00000100361735157236670530000010525529916499787448_">
				<use xlink:href="#SVGID_00000151507342627940967480000002782644873951467174_"  style="overflow:visible;"/>
			</clipPath>
			
				<rect x="160.157" y="290.961" transform="matrix(0.7071 -0.7071 0.7071 0.7071 -127.6292 311.9698)" style="opacity:0.1921;clip-path:url(#SVGID_00000100361735157236670530000010525529916499787448_);fill-rule:evenodd;clip-rule:evenodd;fill:#FFFFFF;" width="305.241" height="38.181"/>
			
				<rect x="191.961" y="331.724" transform="matrix(0.7071 -0.7071 0.7071 0.7071 -140.8027 343.7625)" style="opacity:0.1921;clip-path:url(#SVGID_00000100361735157236670530000010525529916499787448_);fill-rule:evenodd;clip-rule:evenodd;fill:#FFFFFF;" width="305.241" height="20.262"/>
			
				<rect x="231.749" y="372.162" transform="matrix(0.7071 -0.7071 0.7071 0.7071 -155.4539 382.8125)" style="opacity:0.1921;clip-path:url(#SVGID_00000100361735157236670530000010525529916499787448_);fill-rule:evenodd;clip-rule:evenodd;fill:#FFFFFF;" width="305.24" height="13.788"/>
		</g>
	</g>
	<g>
		<path style="fill-rule:evenodd;clip-rule:evenodd;fill:#8F98FB;" d="M215.315,306.052l31.408,24.633l-1.133-34.456
			c0.038-0.365,0.056-0.734,0.056-1.109V97.713c0-6.033-4.899-10.932-10.932-10.932H70.998c-6.033,0-10.931,4.899-10.931,10.932
			V295.12c0,6.034,4.898,10.932,10.931,10.932H215.315z"/>
		<path style="fill-rule:evenodd;clip-rule:evenodd;fill:#F2F4FF;" d="M238.365,101.173c0-3.496-2.837-6.334-6.332-6.334H73.578
			c-3.495,0-6.333,2.837-6.333,6.334v191.129c0,3.495,2.838,6.332,6.333,6.332h158.455c3.495,0,6.332-2.837,6.332-6.332V101.173z"/>
		<path style="fill-rule:evenodd;clip-rule:evenodd;fill:#E7A35A;" d="M152.075,108.212c11.924,0,21.604,9.68,21.604,21.604
			c0,11.922-9.68,21.603-21.604,21.603c-11.924,0-21.604-9.68-21.604-21.603C130.471,117.892,140.151,108.212,152.075,108.212z"/>
		<path style="fill-rule:evenodd;clip-rule:evenodd;fill:#E7A35A;" d="M106.687,196.473c1.997-23.304,21.569-41.622,45.388-41.622
			c23.817,0,43.391,18.318,45.388,41.622c-13.637,3.134-29.061,4.902-45.388,4.902C135.746,201.376,120.322,199.608,106.687,196.473
			z"/>
		<path style="fill-rule:evenodd;clip-rule:evenodd;fill:#90DBBC;" d="M113.697,238.564c13.605,0,24.651,11.046,24.651,24.65
			c0,13.605-11.046,24.651-24.651,24.651c-13.605,0-24.65-11.046-24.65-24.651C89.047,249.61,100.092,238.564,113.697,238.564z"/>
		<path style="fill-rule:evenodd;clip-rule:evenodd;fill:#FFFFFF;" d="M103.609,259.317c-0.147-0.583-1.902-7.751,0.427-8.622
			c4.882-1.825,8.797-0.019,9.211,2.646c0.833,5.353-1.867,5.989-4.487,5.94c0.946,2.262,2.819,5.562,6.269,7.902
			c0.844-2.415,2.388-4.572,7.036-2.06c2.373,1.282,2.767,5.574-0.585,9.566c-1.194,1.422-4.937-0.477-6.964-1.668
			c-2.098-1.142-9.071-5.489-10.912-13.703L103.609,259.317z"/>
		<circle style="fill-rule:evenodd;clip-rule:evenodd;fill:#D05E57;" cx="189.157" cy="263.215" r="24.65"/>
		<polygon style="fill-rule:evenodd;clip-rule:evenodd;fill:#FFFFFF;" points="189.157,260.527 180.948,252.32 178.262,255.008 
			186.469,263.215 178.262,271.423 180.948,274.109 189.157,265.902 197.363,274.109 200.051,271.423 191.843,263.215 
			200.051,255.008 197.363,252.32 		"/>
		<g>
			<rect x="98.357" y="212.565" style="fill-rule:evenodd;clip-rule:evenodd;fill:#C8CDFC;" width="107.436" height="2.304"/>
			<rect x="98.357" y="224.437" style="fill-rule:evenodd;clip-rule:evenodd;fill:#C8CDFC;" width="107.436" height="2.304"/>
		</g>
	</g>
	<g>
		<path style="fill-rule:evenodd;clip-rule:evenodd;fill:#D05E57;" d="M263.876,313.854v-57.96c0-47.425,38.504-85.929,85.93-85.929
			c47.426,0,85.929,38.504,85.929,85.929v57.96h-14.816v-57.96c0-39.248-31.865-71.113-71.113-71.113
			c-39.249,0-71.113,31.865-71.113,71.113v57.96H263.876z"/>
		<path style="fill-rule:evenodd;clip-rule:evenodd;fill:#D05E57;" d="M421.326,315.96c0,0-2.54,15.617-10.762,27.662
			c-4.694,6.876-11.143,13.655-20.338,15.249c-10.863,1.882-21.541,1.236-29.003-0.305c-5.677-1.173-17.4-2.866-11.697-11.196
			c2.31-3.373-6.531-4.822-10.093-2.814c-3.56,2.008-4.821,6.531-2.812,10.092c4.871,8.638,12.419,13.322,22.676,15.441
			c8.469,1.749,19.056,1.647,31.552,1.015c13.376-0.677,23.731-9.357,31.016-20.029c9.741-14.272,13.878-31.701,13.878-31.701
			c0.942-3.98-1.523-7.974-5.502-8.916C426.263,309.516,422.268,311.981,421.326,315.96z"/>
		<path style="fill-rule:evenodd;clip-rule:evenodd;fill:#E5933C;" d="M442.681,251.411l-26.719-0.208
			c0,0-9.289,40.831,0.868,69.875l25.762,0.677L442.681,251.411z"/>
		<path style="fill-rule:evenodd;clip-rule:evenodd;fill:#E7A35A;" d="M442.625,251.334c4.153,0,7.524,15.777,7.524,35.211
			c0,19.433-3.372,35.21-7.524,35.21c-4.153,0-7.524-15.777-7.524-35.21C435.101,267.111,438.473,251.334,442.625,251.334z"/>
		<path style="fill-rule:evenodd;clip-rule:evenodd;fill:#E5933C;" d="M257.545,251.411l26.719-0.208c0,0,9.289,40.831-0.868,69.875
			l-25.762,0.677L257.545,251.411z"/>
		<path style="fill-rule:evenodd;clip-rule:evenodd;fill:#E7A35A;" d="M257.6,251.334c-4.153,0-7.523,15.777-7.523,35.211
			c0,19.433,3.37,35.21,7.523,35.21c4.153,0,7.524-15.777,7.524-35.21C265.125,267.111,261.753,251.334,257.6,251.334z"/>
		<path style="fill-rule:evenodd;clip-rule:evenodd;fill:#E7A35A;" d="M358.816,343.329c0-2.443-1.984-4.427-4.427-4.427h-23.3
			c-2.442,0-4.425,1.984-4.425,4.427v8.852c0,2.444,1.983,4.427,4.425,4.427h23.3c2.443,0,4.427-1.983,4.427-4.427V343.329z"/>
		<path style="fill-rule:evenodd;clip-rule:evenodd;fill:#E7A35A;" d="M385.98,193.181c-1.413,2.341-4.352,3.256-6.845,2.133
			c-8.724-3.781-29.654-10.639-52.803-2.46c-2.718,0.981-5.723-0.364-6.805-3.043c-1.256-3.033-2.821-6.909-4.023-9.888
			c-1.075-2.662,0.118-5.7,2.719-6.916c10.728-4.711,38.949-13.718,71.037,3.884c1.28,0.707,2.218,1.904,2.597,3.318
			c0.378,1.412,0.164,2.918-0.591,4.17C389.641,187.119,387.578,190.536,385.98,193.181z"/>
	</g>
	<g>
		<path style="fill-rule:evenodd;clip-rule:evenodd;fill:#E5933C;" d="M280.108,159.222c0-2.496-2.026-4.521-4.52-4.521
			c-2.496,0-4.522,2.026-4.522,4.521v24.28c0,2.494,2.026,4.52,4.522,4.52c2.494,0,4.52-2.026,4.52-4.52V159.222z"/>
		<path style="fill-rule:evenodd;clip-rule:evenodd;fill:#E5933C;" d="M271.278,137.413c-4.607,1.743-7.887,6.197-7.887,11.412v0.62
			c0,6.73,5.464,12.195,12.196,12.195c6.73,0,12.195-5.464,12.195-12.195v-0.62c0-5.206-3.269-9.654-7.865-11.403v10.976
			c0,2.383-1.935,4.32-4.32,4.32c-2.383,0-4.32-1.936-4.32-4.32V137.413z"/>
	</g>
	<g>
		<g>
			<path style="fill-rule:evenodd;clip-rule:evenodd;fill:#303790;" d="M640.051,200.637c11.894-21.56,3.257-49.157-19.278-61.589
				c-22.534-12.431-50.486-5.019-62.38,16.541c-6.42,11.637-7.083,25.659-1.81,38.248l-10.396,16.483l19.974-1.96
				c3.364,3.491,7.248,6.467,11.51,8.818C600.207,229.61,628.157,222.198,640.051,200.637z"/>
			<path style="fill-rule:evenodd;clip-rule:evenodd;fill:#E5933C;" d="M598.89,186.444c-4.865,0-8.813-3.948-8.813-8.813
				c0-4.865,3.949-8.813,8.813-8.813c4.865,0,8.813,3.949,8.813,8.813C607.704,182.495,603.755,186.444,598.89,186.444z
				 M595.132,200.057c2.488,0.417,5.029,0.417,7.517,0l0.607-6.036c2.066-0.55,4.01-1.486,5.727-2.758l5.098,3.287
				c1.877-1.684,3.462-3.671,4.686-5.877l-4.34-4.237c0.858-1.959,1.338-4.061,1.415-6.197l5.748-1.936
				c-0.147-2.518-0.712-4.995-1.673-7.329l-6.018,0.751c-0.996-1.892-2.341-3.577-3.964-4.969l2.071-5.701
				c-2.06-1.455-4.35-2.557-6.772-3.26l-3.165,5.173c-2.101-0.401-4.257-0.401-6.358,0l-3.165-5.173
				c-2.422,0.704-4.712,1.806-6.772,3.26l2.071,5.701c-1.623,1.392-2.968,3.078-3.964,4.969l-6.018-0.751
				c-0.961,2.334-1.526,4.811-1.673,7.329l5.748,1.936c0.077,2.136,0.557,4.238,1.415,6.197l-4.34,4.237
				c1.226,2.206,2.809,4.193,4.687,5.877l5.098-3.287c1.717,1.272,3.661,2.208,5.727,2.758L595.132,200.057z"/>
		</g>
		<g>
			<path style="fill-rule:evenodd;clip-rule:evenodd;fill:#535CC7;" d="M563.991,242.82c0-7.81-6.341-14.151-14.151-14.151h-61.087
				c-7.81,0-14.151,6.341-14.151,14.151v41.331c0,7.81,6.341,14.15,14.151,14.15h4.942l-3.741,15.173l24.386-15.173h35.501
				c7.81,0,14.151-6.34,14.151-14.15V242.82z"/>
			<path style="fill-rule:evenodd;clip-rule:evenodd;fill:#E7A35A;" d="M513.265,248.316c5.367,0,9.724,4.357,9.724,9.724
				c0,5.366-4.357,9.723-9.724,9.723c-5.366,0-9.723-4.357-9.723-9.723C503.542,252.673,507.899,248.316,513.265,248.316z
				 M513.265,241.829c8.946,0,16.209,7.263,16.209,16.211c0,8.946-7.263,16.209-16.209,16.209c-8.946,0-16.209-7.263-16.209-16.209
				C497.055,249.093,504.318,241.829,513.265,241.829z"/>
			<path style="fill-rule:evenodd;clip-rule:evenodd;fill:#E7A35A;" d="M526.79,266.331c-1.41-1.41-3.699-1.41-5.108,0
				c-1.41,1.409-1.41,3.697,0,5.108l12.352,12.352c1.409,1.409,3.699,1.409,5.108,0c1.409-1.41,1.409-3.699,0-5.108L526.79,266.331z
				"/>
		</g>
		<g>
			<path style="fill-rule:evenodd;clip-rule:evenodd;fill:#C8CDFC;" d="M550.201,132.501c0-34.88-29.596-63.197-66.051-63.197
				S418.1,97.62,418.1,132.501c0,18.824,8.77,36.669,23.925,48.675l-1.616,27.557l23.432-16.098
				c6.562,2.029,13.415,3.063,20.309,3.063C520.605,195.698,550.201,167.379,550.201,132.501z"/>
			<g>
				<rect x="439.383" y="109.969" style="fill-rule:evenodd;clip-rule:evenodd;fill:#8F98FB;" width="85.429" height="55.239"/>
				<g>
					<defs>
						
							<rect id="SVGID_00000003103259297972529540000010688811433963879316_" x="439.383" y="109.969" width="85.429" height="55.239"/>
					</defs>
					<clipPath id="SVGID_00000132802410709638615140000016328571822415006850_">
						<use xlink:href="#SVGID_00000003103259297972529540000010688811433963879316_"  style="overflow:visible;"/>
					</clipPath>
					
						<polygon style="clip-path:url(#SVGID_00000132802410709638615140000016328571822415006850_);fill-rule:evenodd;clip-rule:evenodd;fill:#7882FA;" points="
						482.135,139.872 437.19,166.934 527.079,166.934 					"/>
					
						<polygon style="clip-path:url(#SVGID_00000132802410709638615140000016328571822415006850_);fill-rule:evenodd;clip-rule:evenodd;fill:#535CC7;" points="
						482.135,144.015 527.079,108.368 437.19,108.368 					"/>
				</g>
			</g>
			<path style="fill-rule:evenodd;clip-rule:evenodd;fill:#D05E57;" d="M521.966,95.785c6.781,0,12.286,5.506,12.286,12.287
				s-5.505,12.286-12.286,12.286c-6.781,0-12.287-5.505-12.287-12.286S515.185,95.785,521.966,95.785z"/>
			<text transform="matrix(1 0 0 1 518.9521 113.4942)" style="fill:#F2F4FF; font-family:'Montserrat-SemiBold'; font-size:16px;">1</text>
		</g>
	</g>
	<g>
		<g>
			<path style="fill-rule:evenodd;clip-rule:evenodd;fill:#303790;" d="M319.447,118.206c0-5.17,4.198-9.367,9.367-9.367h61.389
				c5.171,0,9.367,4.198,9.367,9.367v27.362c0,5.171-4.196,9.367-9.367,9.367l6.533,9.658l-21.228-9.658h-46.694
				c-5.17,0-9.367-4.196-9.367-9.367V118.206z"/>
			<path style="fill-rule:evenodd;clip-rule:evenodd;fill:#FFFFFF;" d="M341.451,126.545c2.657,0,4.815,2.158,4.815,4.815
				c0,2.657-2.158,4.815-4.815,4.815c-2.658,0-4.815-2.158-4.815-4.815C336.636,128.702,338.793,126.545,341.451,126.545z"/>
			<path style="fill-rule:evenodd;clip-rule:evenodd;fill:#FFFFFF;" d="M359.886,126.545c2.656,0,4.814,2.158,4.814,4.815
				c0,2.657-2.158,4.815-4.814,4.815c-2.657,0-4.815-2.158-4.815-4.815C355.071,128.702,357.229,126.545,359.886,126.545z"/>
			<path style="fill-rule:evenodd;clip-rule:evenodd;fill:#FFFFFF;" d="M378.32,126.545c2.657,0,4.815,2.158,4.815,4.815
				c0,2.657-2.158,4.815-4.815,4.815c-2.657,0-4.815-2.158-4.815-4.815C373.505,128.702,375.663,126.545,378.32,126.545z"/>
		</g>
		<g>
			<path style="fill-rule:evenodd;clip-rule:evenodd;fill:#535CC7;" d="M399.763,61.776c0-5.49-4.457-9.945-9.947-9.945h-117.43
				c-5.49,0-9.947,4.456-9.947,9.945V90.83c0,5.49,4.457,9.947,9.947,9.947h6.955l-6.319,10.254l18.723-10.254h98.072
				c5.49,0,9.947-4.457,9.947-9.947V61.776z"/>
			<rect x="278.509" y="68.744" style="fill-rule:evenodd;clip-rule:evenodd;fill:#FFFFFF;" width="106.888" height="2.574"/>
			<rect x="278.509" y="81.12" style="fill-rule:evenodd;clip-rule:evenodd;fill:#FFFFFF;" width="106.888" height="2.574"/>
		</g>
	</g>
	<g>
		<path style="fill-rule:evenodd;clip-rule:evenodd;fill:#CED5EA;" d="M550.686,424.815c24.895,0,45.104,3.335,45.104,7.442
			c0,4.108-20.209,7.444-45.104,7.444c-24.893,0-45.103-3.335-45.103-7.444C505.584,428.15,525.793,424.815,550.686,424.815z"/>
		<path style="fill-rule:evenodd;clip-rule:evenodd;fill:#D05E57;" d="M580.757,403.869v-17.227c1.333-0.672,2.84-1.049,4.436-1.049
			c5.403,0,9.79,4.329,9.79,9.662c0,5.332-4.387,9.662-9.79,9.662C583.597,404.918,582.089,404.539,580.757,403.869z
			 M580.757,414.082v14.867c0,2.22-1.803,4.023-4.023,4.023h-54.055c-2.22,0-4.023-1.803-4.023-4.023v-67.697
			c0-2.22,1.803-4.023,4.023-4.023h54.055c2.22,0,4.023,1.802,4.023,4.023v15.177c1.426-0.327,2.911-0.5,4.436-0.5
			c10.806,0,19.579,8.659,19.579,19.326c0,10.665-8.773,19.325-19.579,19.325C583.668,414.58,582.182,414.408,580.757,414.082z"/>
		<path style="fill-rule:evenodd;clip-rule:evenodd;fill:#535CC7;" d="M575.758,363.308c0-1.498-1.216-2.714-2.714-2.714h-46.535
			c-1.498,0-2.714,1.216-2.714,2.714c0,1.497,1.216,2.712,2.714,2.712h46.535C574.542,366.021,575.758,364.805,575.758,363.308z"/>
		
			<linearGradient id="SVGID_00000040557888008946187820000001350702060702727590_" gradientUnits="userSpaceOnUse" x1="555.2344" y1="366.0628" x2="555.2344" y2="263.2146">
			<stop  offset="0" style="stop-color:#F2F4FF"/>
			<stop  offset="0.7838" style="stop-color:#F2F4FF;stop-opacity:0"/>
		</linearGradient>
		<path style="fill-rule:evenodd;clip-rule:evenodd;fill:url(#SVGID_00000040557888008946187820000001350702060702727590_);" d="
			M570.642,365.984c0.021,0.069-36.95,0.109-36.989,0.049c-3.613-5.731-4.898-13.028-8.467-18.683
			c-3.203-5.078-7.442-9.497-9.248-15.374c-1.252-4.08-1.713-8.853-1.49-13.116c0.297-5.737,1.902-11.217-0.407-16.784
			c-3.728-8.995-12.961-14.359-16.467-23.464c-1.713-4.449-1.099-9.574,0.271-14.015c0.282-0.915,1.506-1.211,2.324-1.311
			c2.552-0.314,5.217,0.456,7.587,1.312c6.289,2.277,12.148,5.526,18.352,8.013c3.703,1.486,7.835,2.948,11.888,2.742
			c11.219-0.566,21.432-7.246,32.898-6.515c8.886,0.568,15.874,7.213,24.467,8.869c4.611,0.89,9.249-0.842,13.916-0.292
			c0.878,0.104,4.141,0.36,4.644,1.304c0.232,0.432-1.954,1.538-2.162,1.637c-2.528,1.203-4.788,2.351-6.992,4.119
			c-6.368,5.108-11.735,9.635-14.933,17.346c-1.896,4.569-3.446,10.318-3.168,15.316c0.267,4.821,2.222,9.437,0.419,14.245
			c-1.416,3.775-5.592,6.264-8.524,8.782c-3.649,3.137-6.858,7.18-8.177,11.888C569.047,356.833,569.315,361.468,570.642,365.984z"
			/>
	</g>
	<g>
		<polygon style="fill-rule:evenodd;clip-rule:evenodd;fill:#E7A35A;" points="319.447,213.268 323.259,221.298 332.076,222.443 
			325.616,228.55 327.251,237.289 319.447,233.033 311.642,237.289 313.277,228.55 306.818,222.443 315.633,221.298 		"/>
		<polygon style="fill-rule:evenodd;clip-rule:evenodd;fill:#E7A35A;" points="350.487,213.268 354.3,221.298 363.116,222.443 
			356.657,228.55 358.292,237.289 350.487,233.033 342.683,237.289 344.318,228.55 337.859,222.443 346.674,221.298 		"/>
		<polygon style="fill-rule:evenodd;clip-rule:evenodd;fill:#E7A35A;" points="381.058,213.268 384.87,221.298 393.687,222.443 
			387.228,228.55 388.863,237.289 381.058,233.033 373.254,237.289 374.889,228.55 368.43,222.443 377.245,221.298 		"/>
	</g>
	<g>
		<path style="fill-rule:evenodd;clip-rule:evenodd;fill:#C8CDFC;" d="M179.559,57.353l4.142,7.228h-8.283L179.559,57.353z
			 M186.188,66.022l-6.63-11.57l-6.63,11.57H186.188z"/>
		<polygon style="fill-rule:evenodd;clip-rule:evenodd;fill:#C8CDFC;" points="626.645,276.448 630.716,272.376 631.699,273.358 
			627.627,277.43 631.699,281.501 630.716,282.485 626.645,278.411 622.573,282.485 621.591,281.501 625.662,277.43 
			621.591,273.358 622.573,272.376 		"/>
		<path style="fill-rule:evenodd;clip-rule:evenodd;fill:#C8CDFC;" d="M576.19,96.281c2.351,0,4.26,1.909,4.26,4.26
			c0,2.352-1.909,4.261-4.26,4.261c-2.352,0-4.26-1.909-4.26-4.261C571.93,98.19,573.839,96.281,576.19,96.281z M576.19,94.839
			c-3.147,0-5.702,2.556-5.702,5.702c0,3.148,2.555,5.702,5.702,5.702c3.147,0,5.702-2.555,5.702-5.702
			C581.892,97.396,579.337,94.839,576.19,94.839z"/>
		<polygon style="fill-rule:evenodd;clip-rule:evenodd;fill:#C8CDFC;" points="426.34,50.848 430.412,46.777 431.394,47.758 
			427.322,51.83 431.394,55.902 430.412,56.885 426.34,52.812 422.269,56.885 421.286,55.902 425.358,51.83 421.286,47.758 
			422.269,46.777 		"/>
		<path style="fill-rule:evenodd;clip-rule:evenodd;fill:#C8CDFC;" d="M82.417,354.345l4.142,7.228h-8.283L82.417,354.345z
			 M89.047,363.014l-6.63-11.57l-6.63,11.57H89.047z"/>
		<path style="fill-rule:evenodd;clip-rule:evenodd;fill:#C8CDFC;" d="M300.697,127.099c2.351,0,4.26,1.909,4.26,4.26
			c0,2.352-1.909,4.261-4.26,4.261c-2.351,0-4.26-1.909-4.26-4.261C296.436,129.008,298.345,127.099,300.697,127.099z
			 M300.697,125.657c-3.147,0-5.702,2.556-5.702,5.702c0,3.148,2.555,5.702,5.702,5.702s5.702-2.555,5.702-5.702
			C306.399,128.214,303.844,125.657,300.697,125.657z"/>
	</g>
</g>
</svg>
