<?xml version="1.0" encoding="utf-8"?>
<!-- Generator: Adobe Illustrator 27.5.0, SVG Export Plug-In . SVG Version: 6.00 Build 0)  -->
<svg version="1.1" id="Layer_1" xmlns="http://www.w3.org/2000/svg" xmlns:xlink="http://www.w3.org/1999/xlink" x="0px" y="0px"
	 viewBox="0 0 3052.838 2000" style="enable-background:new 0 0 3052.838 2000;" xml:space="preserve">
<rect transform="matrix(-1 -1.224647e-16 1.224647e-16 -1 3052.8384 2000)" style="fill:#FFFFFF;" width="3052.838" height="2000"/>
<g>
	<g>
		<g>
			<path style="fill:#FFE9D2;" d="M1143.79,1805.657c-469.228-21.011-797.187-225.179-878.449-487.721
				s43.03-425.912,183.663-589.081c89.134-103.417,30.307-298.375,339.876-428.915c309.569-130.541,691.484-42.199,860.91,33.477
				c169.426,75.676,279.168,32.174,383.005,30.739c117.357-1.622,450.075,82.913,645.274,278.149
				c228.83,228.874,201.701,597.085,3.017,837.964c-83.703,101.479-274.477,230.472-433.156,273.881
				C1723.933,1897.497,1143.79,1805.657,1143.79,1805.657z"/>
		</g>
	</g>
	<g>
		<g>
			<path style="fill:#E05E3B;" d="M1245.344,1308.197c10.119-13.165,65.245-41.911,80.414-23.155
				c15.169,18.758-227.877,320.506-227.877,320.506s-190.677,30.742-194.942,28.518c-4.265-2.224-130.964-40.088-132.633-43.129
				c-1.67-3.039,14.225-140.652,14.225-140.652s95.363-79.905,135.953-114.061c40.592-34.157,109.243-99.242,121.817-79.668
				c12.573,19.573-147.85,219.045-147.85,219.045l68.547-33.68c0,0,99.678-93.383,120.806-121.417
				c21.128-28.034,88.188-87.988,106.358-74.985c18.169,13.003-102.59,182.174-102.59,182.174l50.414-14.391
				C1137.986,1413.303,1235.225,1321.361,1245.344,1308.197z"/>
		</g>
		<g>
			<path style="fill:#20111D;" d="M1244.057,1307.208c7.645-9.946,41.854-29.671,65.097-29.956
				c8.139-0.102,14.153,2.18,17.867,6.771c0.564,0.698,0.457,1.719-0.242,2.283c-0.695,0.564-1.715,0.46-2.281-0.241
				c-3.06-3.781-8.208-5.654-15.304-5.568c-21.964,0.27-55.428,19.408-62.563,28.688
				c-10.081,13.116-103.555,101.538-107.528,105.297l-0.289,0.272l-55.26,15.774l2.698-3.778
				c0.302-0.423,30.489-42.768,58.066-86.148c49.646-78.1,47.939-91.589,44.9-93.763c-16.118-11.517-81.307,44.372-104.118,74.642
				c-20.969,27.825-119.994,120.69-120.992,121.625l-0.394,0.271l-75.112,36.905l4.583-5.698
				c0.402-0.499,40.531-50.446,78.604-102.134c68.956-93.616,71.329-111.621,69.147-115.016c-1.006-1.564-2.461-2.464-4.452-2.752
				c-16.514-2.375-61.511,36.625-94.366,65.1c-7.35,6.369-14.29,12.385-20.588,17.683
				c-38.626,32.501-127.968,107.369-135.461,113.647c-6.065,52.547-14.661,131.107-14.266,138.908l0.071,0.037
				c5.906,3.079,55.325,18.437,88.372,28.705c26.645,8.28,41.802,13.007,43.445,13.863c0.793,0.414,1.094,1.385,0.685,2.179
				c-0.409,0.794-1.388,1.105-2.185,0.701c-1.559-0.793-21.645-7.034-42.908-13.642c-64.603-20.074-83.915-26.444-88.912-29.05
				c-0.895-0.467-1.332-0.812-1.486-1.096c-1.67-3.039,8.078-90.034,14.036-141.622l0.073-0.641l0.497-0.416
				c0.953-0.8,95.823-80.292,135.95-114.059c6.278-5.283,13.211-11.292,20.551-17.653c37.017-32.083,78.973-68.446,96.954-65.859
				c2.939,0.422,5.198,1.839,6.721,4.211c2.094,3.258,8.464,13.174-69.269,118.701c-30.619,41.568-62.562,82.006-74.15,96.564
				l61.817-30.375c4.745-4.451,100.059-93.993,120.444-121.043c18.89-25.066,85.51-87.483,107.358-76.09
				c0.431,0.225,0.845,0.478,1.239,0.76c5.412,3.874,6.733,18.261-44.054,98.156c-22.849,35.94-47.482,71.168-55.487,82.512
				l45.595-13.016C1143.021,1406.304,1234.403,1319.77,1244.057,1307.208z"/>
		</g>
	</g>
	<g>
		<path style="fill:#FFCD70;" d="M1285.355,1525.601c5.667,0,10.262-4.594,10.262-10.262v-257.001
			c0-19.437-48.593-19.437-77.749-2.43c-29.156,17.008-120.1,6.691-109.335-89.897c12.3-110.358,116.478-76.753,143.35-46.164
			c15.793,17.978,43.734,4.859,43.734-38.875V865.276c0-5.667-4.594-10.262-10.262-10.262h-176.822
			c-75.32,0-138.491,2.43-106.905,48.593s14.578,133.631-63.171,133.631c-77.749,0-97.186-70.46-72.89-121.483
			c24.297-51.023,14.578-60.742-60.742-60.742H598.848c-5.667,0-10.262,4.594-10.262,10.262v213.267
			c0,51.023,36.445,51.023,89.897,26.726c53.452-24.297,97.186,7.289,97.186,68.03c0,60.742-55.882,102.046-109.335,72.89
			s-77.749-12.148-77.749,17.008v252.142c0,5.667,4.594,10.262,10.262,10.262H1285.355z"/>
		<path style="fill:#20111D;" d="M787.055,1344.461c-0.409,0-0.811-0.176-1.092-0.519l-36.77-45.009
			c-0.488-0.601-0.4-1.492,0.201-1.986c0.602-0.488,1.487-0.403,1.986,0.202l36.767,45.009c0.491,0.604,0.403,1.492-0.201,1.986
			C787.684,1344.356,787.369,1344.461,787.055,1344.461z"/>
		<path style="fill:#20111D;" d="M805.019,1344.461c-0.408,0-0.817-0.176-1.095-0.519l-33.655-41.25
			c-0.491-0.604-0.403-1.492,0.201-1.986c0.599-0.488,1.49-0.406,1.983,0.201l33.657,41.25c0.491,0.604,0.403,1.492-0.201,1.986
			C805.649,1344.356,805.332,1344.461,805.019,1344.461z"/>
		<path style="fill:#20111D;" d="M1169.673,1454.057c-0.408,0-0.811-0.176-1.092-0.519l-36.77-45.009
			c-0.488-0.601-0.4-1.492,0.201-1.986c0.602-0.488,1.487-0.403,1.986,0.202l36.767,45.009c0.491,0.604,0.403,1.492-0.201,1.986
			C1170.303,1453.952,1169.988,1454.057,1169.673,1454.057z"/>
		<path style="fill:#20111D;" d="M1187.638,1454.057c-0.408,0-0.817-0.176-1.095-0.519l-33.655-41.25
			c-0.491-0.604-0.403-1.492,0.201-1.986c0.599-0.488,1.49-0.406,1.983,0.201l33.658,41.25c0.491,0.604,0.403,1.492-0.201,1.986
			C1188.268,1453.952,1187.95,1454.057,1187.638,1454.057z"/>
		<path style="fill:#20111D;" d="M1099.809,958.595c-0.409,0-0.812-0.176-1.092-0.519l-36.77-45.009
			c-0.488-0.601-0.4-1.492,0.201-1.986c0.602-0.488,1.487-0.403,1.986,0.202l36.767,45.009c0.491,0.604,0.403,1.492-0.201,1.986
			C1100.439,958.49,1100.124,958.595,1099.809,958.595z"/>
		<path style="fill:#20111D;" d="M1117.774,958.595c-0.409,0-0.817-0.176-1.095-0.519l-33.655-41.25
			c-0.491-0.604-0.403-1.492,0.201-1.986c0.599-0.488,1.49-0.406,1.983,0.201l33.658,41.25c0.491,0.604,0.403,1.492-0.201,1.986
			C1118.404,958.49,1118.086,958.595,1117.774,958.595z"/>
		<path style="fill:#20111D;" d="M622.837,1122.496c14.278,0,32.674-5.207,56.24-15.92c11.814-5.37,23.367-8.092,34.338-8.092
			c36.378,0,60.818,30.067,60.818,74.816c0,0.403-0.007,0.804-0.017,1.204c-0.019,0.801,0.633,1.456,1.434,1.456h0.001
			c0.784,0,1.417-0.63,1.436-1.414c0.01-0.415,0.017-0.83,0.017-1.246c0-46.468-25.595-77.688-63.69-77.688
			c-11.385,0-23.338,2.809-35.527,8.35c-23.184,10.539-41.192,15.661-55.051,15.661c-22.081,0-32.815-13.438-32.815-41.08V866.711
			c0-5.667,4.594-10.26,10.26-10.26h204.543c2.13,0,4.214,0.008,6.257,0.025c0.756,0.006,1.382-0.574,1.438-1.328l0-0.002
			c0.061-0.828-0.585-1.536-1.415-1.542c-2.049-0.016-4.141-0.024-6.281-0.024H600.282c-7.253,0-13.132,5.88-13.132,13.132v211.832
			C587.15,1107.708,599.157,1122.496,622.837,1122.496z"/>
		<g>
			<path style="fill:#20111D;" d="M941.314,1037.174v0.002c0.02,0.802,0.696,1.441,1.497,1.406
				c29.051-1.262,51.973-15.223,64.851-39.637c15.618-29.611,13.625-69.148-4.848-96.147c-7.876-11.512-9.977-20.384-6.421-27.125
				c9.375-17.774,56.333-19.22,112.14-19.22h175.387c5.667,0,10.261,4.594,10.261,10.261v111.842c0,0.859,0.749,1.525,1.602,1.426
				l0.001,0c0.724-0.084,1.269-0.697,1.269-1.426V866.711c0-7.253-5.88-13.132-13.132-13.132h-175.388
				c-56.755,0-104.557,1.561-114.68,20.753c-4.1,7.772-1.945,17.613,6.59,30.086c17.614,25.743,19.581,64.934,4.678,93.187
				c-12.375,23.462-34.44,36.883-62.428,38.107C941.91,1035.745,941.294,1036.391,941.314,1037.174z"/>
			<path style="fill:#20111D;" d="M1266.084,1242.006c-16.797,0-35.549,4.852-48.939,12.662c-7.099,4.141-17.877,6.517-29.571,6.518
				c-1.39,0-3.041-0.037-4.904-0.143c-0.804-0.046-1.491,0.582-1.516,1.386l0,0c-0.025,0.781,0.583,1.436,1.363,1.48
				c1.921,0.11,3.624,0.149,5.058,0.149c12.188-0.001,23.493-2.519,31.018-6.908c12.976-7.569,31.174-12.272,47.492-12.272
				c13.583,0,28.098,3.536,28.098,13.461v255.566c0,5.667-4.594,10.26-10.26,10.26H643.877c-0.799,0-1.445,0.653-1.435,1.452v0.001
				c0.009,0.786,0.649,1.419,1.435,1.419h640.044c7.253,0,13.133-5.88,13.133-13.133v-255.565
				C1297.053,1248.264,1285.187,1242.006,1266.084,1242.006z"/>
		</g>
	</g>
	<g>
		<path style="fill:#E05E3B;" d="M2105.166,1258.485c0,0,113.714-149.306,117.136-152.969c3.422-3.664,67.909-62.617,92.863-71.893
			s95.758-52.041,96.553-54.729c0.795-2.687-74.857-88.771-80.08-85.932c-5.223,2.839-124.232,88.039-124.232,88.039l-73.813,97.4
			l-94.714,134.469l23.357,21.813L2105.166,1258.485z"/>
		<path style="fill:#ED6D45;" d="M2058.855,1264.961c0,0,97.199,29.042,118.849,39.829c21.65,10.787,47.027,13.91,60.774,1.026
			s27.895-39.968,11.624-62.023c0,0,57.655,13.547,68.832,16.268c11.177,2.722,24.708-3.505,32.406-11.748
			c7.698-8.243,4.033-37.596,4.033-37.596l-84.079-60.309l-154.734,64.698l-58.677,34.37L2058.855,1264.961z"/>
		<g>
			<path d="M2259.067,1272.317c-1.068,6.319-3.821,13.069-8.403,20.618c-16.759,27.613-36.753,23.837-48.698,21.582
				c-1.234-0.234-2.376-0.45-3.416-0.608c-10.83-1.654-62.658-22.959-64.859-23.865l1.137-2.759
				c0.536,0.22,53.694,22.075,64.174,23.675c1.07,0.163,2.248,0.386,3.518,0.625c11.187,2.112,29.91,5.647,45.594-20.198
				c17.239-28.399,7.417-44.299-22.723-71.366l1.994-2.219C2250.46,1238.528,2262.245,1253.501,2259.067,1272.317z"/>
		</g>
		<g>
			<path d="M2352.599,1249.112c-10.309,16.254-39.886,10.922-41.141,10.688l-61.7-14.555l0.685-2.903l61.632,14.541
				c0.219,0.04,28.777,5.18,38.005-9.369L2352.599,1249.112z"/>
		</g>
		<path style="fill:#ED6D45;" d="M2073.988,1169.391c0,0,113.714-149.306,117.136-152.969c3.422-3.664,67.909-62.617,92.863-71.893
			c24.954-9.277,95.758-52.042,96.553-54.729c0.795-2.687-74.857-88.771-80.08-85.932c-5.223,2.839-124.232,88.039-124.232,88.039
			l-73.813,97.4l-71.717,132.796l0.359,23.485L2073.988,1169.391z"/>
		<g>
			<g>
				<path style="fill:#3EA0BD;" d="M2186.466,1513.448v-646.28c0-6.712-5.441-12.153-12.153-12.153H1956.65
					c-47.165,0-44.569,36.445-26.43,70.46c18.139,34.015,14.11,106.905-62.839,106.905c-76.949,0-106.105-51.023-81.809-99.616
					s14.578-77.749-41.304-77.749h-217.203c-6.712,0-12.153,5.441-12.153,12.153v225c0,43.734-33.047,42.258-59.774,20.391
					c-26.726-21.867-116.624-34.015-119.053,70.46c-2.43,104.475,106.534,80.576,142.979,51.42
					c36.445-29.156,36.816,19.475,36.816,57.915v221.094c0,6.712,5.441,12.153,12.153,12.153h646.28
					C2181.025,1525.601,2186.466,1520.16,2186.466,1513.448z"/>
			</g>
			<path style="fill:#20111D;" d="M1641.56,1320.546c-0.408,0-0.811-0.176-1.092-0.519l-36.77-45.009
				c-0.488-0.601-0.4-1.492,0.201-1.986c0.602-0.488,1.487-0.403,1.986,0.202l36.767,45.009c0.491,0.604,0.403,1.492-0.201,1.986
				C1642.19,1320.441,1641.875,1320.546,1641.56,1320.546z"/>
			<path style="fill:#20111D;" d="M1659.526,1320.546c-0.409,0-0.817-0.176-1.095-0.519l-33.655-41.25
				c-0.491-0.604-0.403-1.492,0.201-1.986c0.599-0.488,1.49-0.406,1.983,0.201l33.658,41.25c0.491,0.604,0.403,1.492-0.201,1.986
				C1660.155,1320.441,1659.838,1320.546,1659.526,1320.546z"/>
			<path style="fill:#20111D;" d="M2062.506,1070.772c-0.408,0-0.811-0.176-1.092-0.519l-36.77-45.009
				c-0.488-0.601-0.4-1.492,0.201-1.986c0.602-0.488,1.487-0.403,1.986,0.202l36.767,45.009c0.491,0.604,0.403,1.492-0.201,1.986
				C2063.136,1070.667,2062.821,1070.772,2062.506,1070.772z"/>
			<path style="fill:#20111D;" d="M2080.471,1070.772c-0.408,0-0.817-0.176-1.095-0.519l-33.655-41.25
				c-0.491-0.604-0.403-1.492,0.201-1.986c0.599-0.488,1.49-0.406,1.983,0.201l33.658,41.25c0.49,0.604,0.403,1.492-0.201,1.986
				C2081.101,1070.667,2080.783,1070.772,2080.471,1070.772z"/>
			<path style="fill:#20111D;" d="M1993.561,1430.142c-0.408,0-0.811-0.176-1.092-0.519l-36.77-45.009
				c-0.488-0.601-0.4-1.492,0.201-1.986c0.602-0.488,1.487-0.403,1.986,0.202l36.767,45.009c0.491,0.604,0.403,1.492-0.201,1.986
				C1994.191,1430.037,1993.876,1430.142,1993.561,1430.142z"/>
			<path style="fill:#20111D;" d="M2011.526,1430.142c-0.408,0-0.817-0.176-1.095-0.519l-33.655-41.25
				c-0.491-0.604-0.403-1.492,0.201-1.986c0.599-0.488,1.49-0.406,1.983,0.201l33.657,41.25c0.491,0.604,0.403,1.492-0.201,1.986
				C2012.156,1430.037,2011.839,1430.142,2011.526,1430.142z"/>
			<g>
				<path style="fill:#20111D;" d="M1928.133,1001.589c-8.582,14.301-22.427,23.575-40.589,27.381
					c-0.757,0.159-1.26,0.877-1.132,1.64l0.003,0.019c0.135,0.801,0.912,1.339,1.707,1.173
					c23.272-4.854,35.813-17.636,42.473-28.736c14.817-24.694,11.665-58.065,0.892-78.267
					c-12.245-22.962-15.209-42.896-8.132-54.689c5.438-9.063,16.64-13.659,33.295-13.659h216.228
					c6.712,0,12.153,5.441,12.153,12.153v568.698c0,0.83,0.701,1.487,1.529,1.433l0,0c0.755-0.049,1.343-0.676,1.343-1.433V868.604
					c0-8.298-6.727-15.025-15.025-15.025H1956.65c-17.734,0-29.764,5.065-35.757,15.053c-10.417,17.36,0.579,43.488,8.061,57.518
					C1939.345,945.639,1942.401,977.81,1928.133,1001.589z"/>
				<path style="fill:#20111D;" d="M1497.794,1226.982c16.65,0,16.65,37.784,16.65,65.372v16.881c0,0.69,0.491,1.283,1.169,1.411
					l0,0c0.884,0.167,1.702-0.511,1.702-1.411v-16.881c0-30.405,0-68.244-19.521-68.244c-5.461,0-11.881,3.012-19.626,9.208
					c-14.832,11.865-44.563,24.636-74.789,24.636c-20.228,0-36.827-6.046-48.004-17.484c-12.437-12.731-18.444-32.048-17.855-57.417
					c1.761-75.746,49.241-83.923,69.573-83.923c20.283,0,38.289,7.303,47.134,14.541c11.846,9.692,24.768,15.25,35.451,15.25
					c16.948,0,26.668-13.396,26.668-36.753V868.604c0-6.712,5.441-12.153,12.153-12.153h65.136c0.805,0,1.453-0.662,1.436-1.466l0,0
					c-0.016-0.781-0.654-1.406-1.436-1.406h-65.136c-8.298,0-15.025,6.727-15.025,15.025v223.563
					c0,21.848-8.451,33.881-23.797,33.881c-10.032,0-22.291-5.322-33.632-14.601c-9.241-7.561-27.961-15.189-48.953-15.189
					c-21.175,0-70.624,8.451-72.445,86.728c-0.609,26.171,5.674,46.187,18.673,59.492c11.729,12.004,29.038,18.349,50.057,18.349
					c30.918,0,61.372-13.097,76.583-25.266C1487.077,1229.868,1493.077,1226.982,1497.794,1226.982z"/>
			</g>
		</g>
		<path style="fill:#FC8759;" d="M1962.628,1225.467c-19.288-68.17,67.914-85.117,67.914-85.117s0.01-0.083,0.025-0.218l4.97-1.404
			c-0.108,0.175-0.227,0.367-0.329,0.534c27.461-6.539,169.357-42.273,226.68-95.379c63.602-58.923,78.514-89.58,62.459-118.292
			c-16.055-28.712-39.967-57.045-39.967-57.045s-87.538,62.29-114.051,77.828c-6.779,3.972-17.866,21.895-32.443,41.765
			c-26.531-62.205-46.952-86.144-69.538-110.901c11.782-26.195,139.458-125.003,181.178-159.348
			c41.72-34.345,243.992,46.525,305.903,48.399c27.883,0.844,55.684-6.605,77.822-15.048
			c48.268-18.409,101.561-20.061,150.145-2.499c52.928,19.132,105.578,56.917,102.844,131.514
			c-2.163,59.014-38.536,111.386-92.432,135.521l-21.044,9.424c-105.633,61.468-167.22,127.415-236.907,160.721
			c-69.687,33.305-239.751,19.167-317.059,33.781c-77.309,14.613-183.78,63.71-218.666,52.363
			C1969.422,1262.078,1962.628,1225.467,1962.628,1225.467z"/>
		<path style="fill:#FCB6A9;" d="M2049.935,1235.863c0,0-17.185-63.856-19.149-65.69c-1.964-1.834-40.188,3.656-46.244,15.652
			s6.847,55.672,11.561,60.075C2002.487,1251.862,2044.292,1243.833,2049.935,1235.863z"/>
		<path style="fill:#FFA480;" d="M2056.928,1236.315c0,0-17.622-66.459-19.659-68.362c-2.038-1.903-41.865,3.981-48.222,16.507
			c-6.357,12.526,6.892,57.976,11.782,62.543C2007.45,1253.187,2051.018,1244.642,2056.928,1236.315z"/>
		<g>
			<path d="M2329.741,956.065c-8.099,47.969-70.804,92.794-73.505,94.704c-71.416,48.123-134.952,65.407-186.003,79.295
				c-24.029,6.535-46.725,12.71-66.654,21.079c-18.775,7.884-31.386,19.491-37.487,34.502c-9.66,23.786,0.498,48.283,0.603,48.527
				l-2.745,1.167c-0.445-1.041-10.755-25.823-0.633-50.788c6.404-15.786,19.562-27.952,39.108-36.158
				c20.111-8.445,42.898-14.644,67.024-21.207c50.84-13.83,114.113-31.042,185.092-78.871c0.632-0.447,65.983-47.171,72.542-94.6
				c2.001-14.545-1.77-27.817-11.208-39.446l-32.699-44.842l2.409-1.758l32.652,44.781c9.934,12.237,13.92,26.28,11.801,41.676
				C2329.95,954.77,2329.85,955.422,2329.741,956.065z"/>
		</g>
		<path d="M2137.349,986.797c14.142-20.547,24.24-35.027,25.232-35.943c3.436-3.173,128.943-89.279,134.284-92.942l1.688,2.46
			c-45.157,30.977-131.266,90.211-133.949,92.673c-1.109,1.15-11.296,15.792-25.929,37.076
			C2138.24,989.005,2137.791,987.904,2137.349,986.797z"/>
		<g>
			<path d="M2566.108,1171.054c-49.097,33.558-145.146,44.974-218.557,41.403c-78.461-3.816-152.75,14.124-153.492,14.306
				l-165.534,47.157l-0.818-2.868l165.589-47.171c0.8-0.197,75.492-18.24,154.402-14.403c72.911,3.547,168.203-7.718,216.727-40.885
				L2566.108,1171.054z"/>
		</g>
		<path d="M2067.443,876.334c2.715-4.913,4.62-8.179,5.441-9.248c7.72-10.06,57.075-55.367,129.663-114.263
			c1.887-1.681,47.62-42.224,64.543-43.577c1.557-0.123,3.106-0.287,4.725-0.46c16.072-1.701,38.083-4.033,136.504,21.645
			l-0.753,2.886c-97.896-25.542-119.594-23.243-135.437-21.564c-1.646,0.174-3.219,0.339-4.802,0.466
			c-15.933,1.274-62.382,42.461-62.848,42.877c-78.476,63.675-122.883,105.534-129.228,113.805
			c-0.815,1.062-2.792,4.471-5.626,9.624C2068.9,877.792,2068.175,877.057,2067.443,876.334z"/>
		<g>
			<path d="M2528.785,1143.796c-18.638,12.607-50.599,17.858-51.951,18.076l-0.474-2.946c0.325-0.051,32.666-5.365,50.754-17.601
				L2528.785,1143.796z"/>
		</g>
		<g>
			<path d="M2540.75,1121.252c-18.638,12.605-50.601,17.858-51.952,18.075l-0.474-2.946c0.325-0.052,32.667-5.366,50.755-17.601
				L2540.75,1121.252z"/>
		</g>
		<g>
			
				<rect x="2149.184" y="1136.852" transform="matrix(0.9291 -0.3699 0.3699 0.9291 -277.9832 878.0858)" width="2.983" height="54.1"/>
		</g>
		<g>
			
				<rect x="2174.533" y="1131.76" transform="matrix(0.9291 -0.3699 0.3699 0.9291 -274.3017 887.1013)" width="2.983" height="54.1"/>
		</g>
		<path style="fill:#3EA0BD;" d="M2171.412,855.015h-140.716l36.745,147.089l118.997-6.999V870.039
			C2186.439,861.741,2179.711,855.015,2171.412,855.015z"/>
		<path style="fill:#20111D;" d="M2172.876,853.58h-148.547v2.871h148.547c6.712,0,12.153,5.441,12.153,12.154v133.499h2.873
			V868.604C2187.903,860.306,2181.175,853.58,2172.876,853.58z"/>
	</g>
	<g>
		<path style="fill:#FC8759;" d="M128.352,1689.842c23.448,88.21,163.021,213.267,365.245,173.566
			c23.208-27.509,0.898-2.655,135.66-149.243c58.525,1.271,324.643,6.251,382.48-1.933c53.083-7.492,165.835-74.109,210.779-102.821
			c20.738-13.238,269.819-173.127,243.832-197.852c-26.833-25.499-87.018,0.389-131.304,23.071
			c-8.813,4.631-20.734,10.595-223.105,115.247c-68.82,9.191-197.811-30.165-197.811-30.165
			c33.026-11.387,236.452-84.501,226.581-118.39c-9.369-31.186-67.999-10.393-129.406-5.537
			c-20.985,2.109-38.438,1.867-55.637,1.011c-105.195-5.957-147.779-34.538-391.322-19.417
			c-56.409,3.502-110.289,24.705-153.86,60.703C378.992,1464.101,228.776,1608.083,128.352,1689.842z"/>
	</g>
	<g>
		<path style="fill:#20111D;" d="M508.507,1843.111c0.536,0.23,1.063,0.444,1.585,0.665c0.541,0.224,1.074,0.442,1.601,0.656
			l35.445-38.546l2.172-2.347l0.1-0.124l16.816-18.285l1.992-2.168l0.249-0.275l32.47-35.312l29.02-31.573
			c0.922,0.023,2.645,0.065,5.095,0.115c43.649,0.902,318.295,6.206,376.914-2.067c63.63-9.002,208.592-101.257,210.052-102.198
			c0.756-0.478,0.98-1.492,0.498-2.241c-0.471-0.751-1.492-0.98-2.24-0.486c-1.457,0.922-145.837,92.812-208.757,101.716
			c-60.147,8.505-349.592,2.597-379.709,1.966c-1.507-0.042-2.368-0.063-2.512-0.063l-0.746-0.01l-31.134,33.869l-31.767,34.549
			l-0.205,0.214l-2.037,2.217l-16.974,18.461l-0.065,0.077l-2.211,2.402L508.507,1843.111z"/>
	</g>
	<g>
		<path style="fill:#20111D;" d="M1332.859,1433.928c0.8-0.41,1.775-0.098,2.187,0.701c0.41,0.797,0.095,1.775-0.702,2.186
			c-43.903,22.581-219.888,113.577-221.662,114.493l-0.252,0.13l-0.279,0.037c-68.375,9.134-197.201-29.816-198.493-30.211
			l-4.78-1.458l4.724-1.629c65.571-22.611,233.915-87.596,225.547-116.403c-0.249-0.86,0.245-1.761,1.106-2.011
			c0.862-0.248,1.761,0.245,2.011,1.106c4.74,16.317-31.312,40.805-110.216,74.862c-47.966,20.704-97.374,38.463-112.625,43.846
			c24.007,6.942,131.763,36.633,192.016,28.716C1119.089,1544.342,1289.723,1456.116,1332.859,1433.928z"/>
	</g>
</g>
</svg>
