<?xml version="1.0" encoding="utf-8"?>
<!-- Generator: Adobe Illustrator 27.5.0, SVG Export Plug-In . SVG Version: 6.00 Build 0)  -->
<svg version="1.1" xmlns="http://www.w3.org/2000/svg" xmlns:xlink="http://www.w3.org/1999/xlink" x="0px" y="0px"
	 viewBox="0 0 750 500" style="enable-background:new 0 0 750 500;" xml:space="preserve">
<g id="BACKGROUND">
	<g>
		<g>
			<rect style="fill:#E2F9FF;" width="750" height="500"/>
		</g>
	</g>
</g>
<g id="OBJECTS">
	<g>
		<g>
			<ellipse style="fill:#CBEBF8;" cx="281.419" cy="438.994" rx="77.726" ry="7.29"/>
			<ellipse style="fill:#CBEBF8;" cx="531.173" cy="433.894" rx="102.551" ry="8.191"/>
			<ellipse style="fill:#CBEBF8;" cx="373.182" cy="433.894" rx="64.627" ry="3.769"/>
			<ellipse style="fill:#CBEBF8;" cx="214.427" cy="433.894" rx="42.237" ry="3.769"/>
		</g>
		<g>
			
				<linearGradient id="SVGID_1_" gradientUnits="userSpaceOnUse" x1="1128.647" y1="908.9882" x2="1128.647" y2="856.1612" gradientTransform="matrix(0.2656 0.9641 -0.9641 0.2656 1062.0461 -1220.1385)">
				<stop  offset="0" style="stop-color:#92E6FF"/>
				<stop  offset="0.1617" style="stop-color:#9AEAFF"/>
				<stop  offset="0.6675" style="stop-color:#AFF4FF"/>
				<stop  offset="1" style="stop-color:#B7F8FF"/>
			</linearGradient>
			<path style="fill:url(#SVGID_1_);" d="M490.821,81.011c-9.18,8.816-9.695,25.042-1.194,34.514
				c8.501,9.472,36.796,18.27,45.075,8.603C552.786,103.011,515.662,57.156,490.821,81.011z"/>
			
				<linearGradient id="SVGID_00000170265304949272430780000004110579745433365673_" gradientUnits="userSpaceOnUse" x1="1898.7629" y1="-1118.2667" x2="1898.7629" y2="-1171.0941" gradientTransform="matrix(-0.164 -0.6947 0.6714 -0.1585 1726.2637 1512.6846)">
				<stop  offset="0" style="stop-color:#92E6FF"/>
				<stop  offset="0.1617" style="stop-color:#9AEAFF"/>
				<stop  offset="0.6675" style="stop-color:#AFF4FF"/>
				<stop  offset="1" style="stop-color:#B7F8FF"/>
			</linearGradient>
			<path style="fill:url(#SVGID_00000170265304949272430780000004110579745433365673_);" d="M659.784,390.911
				c6.52-5.985,7.204-17.518,1.523-24.531c-5.682-7.013-25.051-14.173-30.966-7.554C617.421,373.284,642.14,407.104,659.784,390.911
				z"/>
			
				<linearGradient id="SVGID_00000003095793697074762000000003286376184065771661_" gradientUnits="userSpaceOnUse" x1="2066.4263" y1="-1819.5969" x2="2066.4263" y2="-1890.8732" gradientTransform="matrix(-0.164 -0.6947 0.6714 -0.1585 1726.2637 1512.6846)">
				<stop  offset="0" style="stop-color:#92E6FF"/>
				<stop  offset="0.1617" style="stop-color:#9AEAFF"/>
				<stop  offset="0.6675" style="stop-color:#AFF4FF"/>
				<stop  offset="1" style="stop-color:#B7F8FF"/>
			</linearGradient>
			<path style="fill:url(#SVGID_00000003095793697074762000000003286376184065771661_);" d="M159.919,392.599
				c8.798-8.075,9.72-23.637,2.055-33.098c-7.666-9.462-33.799-19.122-41.779-10.192
				C102.762,368.816,136.115,414.447,159.919,392.599z"/>
			
				<linearGradient id="SVGID_00000022519538479106873760000002266547153295719102_" gradientUnits="userSpaceOnUse" x1="197.2757" y1="319.6818" x2="197.2757" y2="179.1405">
				<stop  offset="0" style="stop-color:#92E6FF"/>
				<stop  offset="0.1617" style="stop-color:#9AEAFF"/>
				<stop  offset="0.6675" style="stop-color:#AFF4FF"/>
				<stop  offset="1" style="stop-color:#B7F8FF"/>
			</linearGradient>
			<path style="fill:url(#SVGID_00000022519538479106873760000002266547153295719102_);" d="M152.087,179.4
				c-20.546,2.012-37.48,20.309-40.31,42.086c-2.83,21.777,5.79,43.883,18.73,60.382c18.62,23.741,46.546,37.881,74.681,37.814
				c28.135-0.067,78.071-17.11,78.127-62.886c0.035-29.026-26.099-35.797-42.884-31.333c-16.307,4.336-33.042-12.831-46.231-29.779
				C183.094,181.413,165.375,178.099,152.087,179.4z"/>
			
				<linearGradient id="SVGID_00000159428158945745663660000000928629691050411188_" gradientUnits="userSpaceOnUse" x1="1669.0233" y1="50.3578" x2="1669.0233" y2="-37.0746" gradientTransform="matrix(-0.9819 -0.1894 0.1894 -0.9819 1826.8969 447.3203)">
				<stop  offset="0" style="stop-color:#92E6FF"/>
				<stop  offset="0.1617" style="stop-color:#9AEAFF"/>
				<stop  offset="0.6675" style="stop-color:#AFF4FF"/>
				<stop  offset="1" style="stop-color:#B7F8FF"/>
			</linearGradient>
			<path style="fill:url(#SVGID_00000159428158945745663660000000928629691050411188_);" d="M212.163,173.446
				c14.364,1.495,28.164-7.435,32.676-20.362c4.512-12.927,1.189-27.574-5.764-39.369c-10.006-16.972-27.541-29.313-46.895-33.003
				s-55.697,0.098-61.129,28.053c-3.444,17.726,13.727,25.328,25.795,24.828c11.724-0.486,21.208,12.22,28.28,24.322
				C191.08,168.104,202.873,172.478,212.163,173.446z"/>
			
				<linearGradient id="SVGID_00000075134325634717268490000002242993219683341212_" gradientUnits="userSpaceOnUse" x1="459.2814" y1="-105.1054" x2="459.2814" y2="-282.8539" gradientTransform="matrix(0.9274 -0.4729 0.4542 0.8909 179.8875 624.5886)">
				<stop  offset="0" style="stop-color:#92E6FF"/>
				<stop  offset="0.1617" style="stop-color:#9AEAFF"/>
				<stop  offset="0.6675" style="stop-color:#AFF4FF"/>
				<stop  offset="1" style="stop-color:#B7F8FF"/>
			</linearGradient>
			<path style="fill:url(#SVGID_00000075134325634717268490000002242993219683341212_);" d="M417.838,186.116
				c-25.97,16.098-37.817,48.113-29.044,74.555c8.774,26.442,32.854,45.546,59.417,55.425
				c38.223,14.215,83.216,11.347,120.323-7.668c37.107-19.016,93.246-71.834,67.022-123.449
				c-16.628-32.728-55.022-22.764-74.62-6.435c-19.039,15.864-50.996,7.787-78.146-2.43
				C459.932,167.51,434.634,175.704,417.838,186.116z"/>
			
				<linearGradient id="SVGID_00000042732755542888290560000011630748413364968327_" gradientUnits="userSpaceOnUse" x1="103.4316" y1="189.5123" x2="103.4316" y2="149.3224">
				<stop  offset="0" style="stop-color:#92E6FF"/>
				<stop  offset="0.1617" style="stop-color:#9AEAFF"/>
				<stop  offset="0.6675" style="stop-color:#AFF4FF"/>
				<stop  offset="1" style="stop-color:#B7F8FF"/>
			</linearGradient>
			<path style="fill:url(#SVGID_00000042732755542888290560000011630748413364968327_);" d="M83.679,179.839
				c4.611,8.515,16.407,12.172,25.073,7.851c8.666-4.321,20.837-23.295,15.419-31.321
				C112.338,138.837,71.203,156.798,83.679,179.839z"/>
		</g>
		<g>
			<g>
				
					<linearGradient id="SVGID_00000050636084797615437670000000120878659374883488_" gradientUnits="userSpaceOnUse" x1="172.0708" y1="393.9786" x2="256.784" y2="309.2653">
					<stop  offset="0" style="stop-color:#4E8AF3"/>
					<stop  offset="0.1126" style="stop-color:#5A93F5"/>
					<stop  offset="0.488" style="stop-color:#7CACFA"/>
					<stop  offset="0.7972" style="stop-color:#91BCFE"/>
					<stop  offset="1" style="stop-color:#99C2FF"/>
				</linearGradient>
				<path style="fill:url(#SVGID_00000050636084797615437670000000120878659374883488_);" d="M275.263,347.591
					c-0.126-1.84-1.284-3.45-2.973-4.19l-4.57-2.002c-1.39-0.609-2.421-1.82-2.81-3.287c-0.005-0.018-0.01-0.037-0.015-0.056
					c-0.388-1.458-0.098-3.012,0.797-4.227l2.962-4.025c1.102-1.498,1.286-3.49,0.463-5.158c-1.182-2.393-2.514-4.699-3.988-6.902
					c-1.033-1.544-2.848-2.378-4.695-2.173l-4.973,0.553c-1.504,0.167-2.998-0.362-4.068-1.432
					c-0.011-0.011-0.023-0.022-0.034-0.034c-1.071-1.07-1.6-2.564-1.432-4.068l0.553-4.973c0.206-1.847-0.628-3.662-2.173-4.695
					c-2.203-1.474-4.509-2.806-6.902-3.988c-1.668-0.823-3.66-0.64-5.159,0.463l-4.025,2.962c-1.216,0.894-2.769,1.185-4.227,0.797
					c-0.019-0.005-0.037-0.01-0.055-0.015c-1.467-0.389-2.678-1.42-3.287-2.81l-2.002-4.57c-0.74-1.689-2.35-2.847-4.19-2.973
					c-1.332-0.091-2.676-0.14-4.031-0.14c-1.356,0-2.699,0.049-4.032,0.14c-1.84,0.126-3.45,1.284-4.19,2.973l-2.002,4.57
					c-0.609,1.39-1.82,2.422-3.287,2.81c-0.018,0.005-0.037,0.01-0.055,0.015c-1.458,0.388-3.012,0.098-4.227-0.797l-4.025-2.962
					c-1.498-1.102-3.49-1.286-5.159-0.463c-2.394,1.181-4.699,2.514-6.902,3.987c-1.545,1.033-2.379,2.849-2.173,4.695l0.553,4.973
					c0.167,1.504-0.362,2.999-1.432,4.068c-0.011,0.011-0.023,0.022-0.034,0.034c-1.07,1.07-2.564,1.6-4.068,1.432l-4.973-0.553
					c-1.847-0.205-3.662,0.628-4.695,2.173c-1.474,2.203-2.806,4.509-3.988,6.902c-0.823,1.668-0.64,3.66,0.463,5.159l2.962,4.025
					c0.894,1.215,1.185,2.769,0.797,4.227c-0.005,0.018-0.01,0.037-0.014,0.055c-0.388,1.467-1.42,2.678-2.81,3.287l-4.57,2.002
					c-1.689,0.74-2.848,2.35-2.973,4.19c-0.091,1.332-0.14,2.676-0.14,4.031c0,1.355,0.049,2.699,0.14,4.031
					c0.126,1.84,1.284,3.45,2.973,4.19l4.57,2.002c1.39,0.609,2.422,1.82,2.81,3.287c0.005,0.018,0.01,0.037,0.014,0.055
					c0.388,1.458,0.098,3.012-0.797,4.227l-2.962,4.025c-1.102,1.498-1.286,3.491-0.463,5.159c1.182,2.394,2.514,4.699,3.988,6.902
					c1.033,1.545,2.848,2.378,4.695,2.173l4.973-0.553c1.504-0.167,2.999,0.362,4.068,1.432c0.011,0.011,0.022,0.022,0.034,0.034
					c1.071,1.07,1.6,2.564,1.432,4.068l-0.553,4.973c-0.206,1.847,0.628,3.662,2.173,4.695c2.203,1.473,4.509,2.806,6.902,3.987
					c1.668,0.823,3.66,0.64,5.159-0.463l4.025-2.962c1.215-0.894,2.769-1.185,4.227-0.797c0.018,0.005,0.037,0.01,0.055,0.015
					c1.467,0.388,2.678,1.42,3.287,2.81l2.002,4.57c0.74,1.689,2.35,2.847,4.19,2.973c1.332,0.091,2.676,0.14,4.032,0.14
					c1.356,0,2.699-0.049,4.031-0.14c1.84-0.126,3.45-1.284,4.19-2.973l2.002-4.571c0.609-1.39,1.82-2.421,3.287-2.81
					c0.018-0.005,0.037-0.01,0.055-0.015c1.458-0.388,3.012-0.098,4.227,0.797l4.025,2.962c1.498,1.102,3.49,1.286,5.159,0.463
					c2.394-1.181,4.699-2.514,6.902-3.987c1.545-1.033,2.379-2.849,2.173-4.695l-0.553-4.972c-0.167-1.504,0.362-2.999,1.432-4.068
					c0.011-0.011,0.022-0.022,0.034-0.034c1.07-1.07,2.564-1.6,4.068-1.432l4.973,0.553c1.847,0.205,3.662-0.629,4.695-2.173
					c1.474-2.203,2.806-4.509,3.988-6.902c0.823-1.668,0.639-3.66-0.463-5.158l-2.962-4.025c-0.894-1.216-1.184-2.769-0.797-4.227
					c0.005-0.019,0.01-0.037,0.015-0.056c0.388-1.467,1.42-2.678,2.81-3.287l4.57-2.002c1.689-0.74,2.848-2.35,2.973-4.19
					c0.091-1.332,0.14-2.676,0.14-4.031C275.403,350.267,275.354,348.923,275.263,347.591z M214.427,379.344
					c-15.311,0-27.722-12.412-27.722-27.722c0-15.311,12.412-27.722,27.722-27.722s27.722,12.412,27.722,27.722
					C242.15,366.933,229.738,379.344,214.427,379.344z"/>
				
					<linearGradient id="SVGID_00000090271641463712016580000014079541492663487135_" gradientUnits="userSpaceOnUse" x1="197.1865" y1="406.4935" x2="237.444" y2="278.1048">
					<stop  offset="0" style="stop-color:#FFFFFF"/>
					<stop  offset="1" style="stop-color:#FFFFFF;stop-opacity:0"/>
				</linearGradient>
				<path style="fill:url(#SVGID_00000090271641463712016580000014079541492663487135_);" d="M266.024,375.374l-2.961-4.024
					c-1.482-2.014-1.965-4.556-1.327-6.979l0.018-0.073c0.647-2.447,2.344-4.43,4.656-5.443l4.57-2.001
					c0.591-0.259,0.984-0.805,1.026-1.424c0.088-1.284,0.133-2.564,0.133-3.808c0-1.244-0.045-2.525-0.133-3.808
					c-0.043-0.62-0.436-1.165-1.025-1.424l-4.572-2.002c-2.311-1.013-4.008-2.996-4.638-5.38l-0.047-0.176
					c-0.622-2.411-0.135-4.937,1.338-6.938l2.961-4.025c0.386-0.524,0.448-1.205,0.165-1.781c-1.11-2.251-2.379-4.448-3.773-6.532
					c-0.316-0.472-0.849-0.754-1.428-0.754c-0.064,0-0.129,0.004-0.192,0.011l-4.973,0.553c-0.304,0.034-0.608,0.051-0.91,0.051
					c-2.199,0-4.269-0.859-5.829-2.419l-0.033-0.032c-0.005-0.005-0.022-0.023-0.022-0.023c-1.767-1.78-2.622-4.225-2.346-6.715
					l0.554-4.972c0.071-0.646-0.214-1.267-0.744-1.622c-2.08-1.391-4.279-2.661-6.533-3.774c-0.234-0.115-0.484-0.174-0.748-0.174
					c-0.373,0-0.73,0.117-1.031,0.339l-4.025,2.961c-1.423,1.047-3.109,1.6-4.877,1.601c-0.715,0-1.43-0.094-2.175-0.292
					c-2.446-0.647-4.43-2.344-5.442-4.656l-2.002-4.571c-0.258-0.59-0.803-0.983-1.423-1.025c-1.284-0.088-2.565-0.133-3.808-0.133
					c-1.244,0-2.526,0.045-3.809,0.133c-0.618,0.042-1.165,0.436-1.423,1.026l-2.002,4.57c-1.013,2.311-2.995,4.008-5.493,4.67
					c-0.693,0.184-1.408,0.277-2.124,0.278c-1.768,0-3.454-0.554-4.877-1.6l-4.025-2.962c-0.301-0.221-0.657-0.339-1.031-0.339
					c-0.262,0-0.515,0.059-0.748,0.174c-2.253,1.112-4.45,2.382-6.534,3.775c-0.529,0.354-0.814,0.975-0.743,1.621l0.553,4.971
					c0.277,2.484-0.573,4.925-2.337,6.706l-0.064,0.065c-1.56,1.56-3.63,2.419-5.829,2.419c-0.302,0-0.606-0.016-0.91-0.051
					l-4.972-0.553c-0.065-0.007-0.13-0.011-0.193-0.011c-0.579,0-1.113,0.282-1.428,0.754c-1.392,2.081-2.662,4.279-3.774,6.533
					c-0.284,0.574-0.221,1.255,0.166,1.779l2.96,4.025c1.487,2.019,1.969,4.571,1.309,7.052c-0.647,2.446-2.344,4.43-4.656,5.443
					l-4.571,2.002c-0.591,0.259-0.983,0.803-1.025,1.424c-0.016,0.234-0.023,0.467-0.036,0.701
					c8.085,7.049,18.491,13.279,30.551,18.173c-2.495-4.463-3.923-9.6-3.923-15.066c0-17.086,13.9-30.987,30.987-30.987
					c17.087,0,30.987,13.901,30.987,30.987c0,10.638-5.39,20.039-13.581,25.621c12.136,1.102,23.796,0.79,34.512-0.748
					C266.368,376.103,266.269,375.707,266.024,375.374z"/>
			</g>
			<path style="fill:#D9E2F8;" d="M272.29,343.401l-4.57-2.002c-1.39-0.609-2.421-1.82-2.81-3.287
				c-0.005-0.019-0.01-0.037-0.015-0.056c-0.388-1.458-0.098-3.012,0.797-4.227l2.962-4.025c1.102-1.498,1.286-3.49,0.463-5.158
				c-1.181-2.393-2.514-4.699-3.988-6.902c-1.033-1.544-2.848-2.378-4.695-2.173l-4.973,0.553c-1.504,0.167-2.998-0.362-4.068-1.432
				c-0.011-0.011-0.022-0.022-0.034-0.034c-1.071-1.07-1.6-2.564-1.432-4.068l0.553-4.973c0.206-1.847-0.628-3.662-2.173-4.695
				c-2.203-1.473-4.509-2.806-6.902-3.987c-1.668-0.823-3.66-0.64-5.159,0.463l-4.025,2.962c-1.216,0.894-2.769,1.185-4.227,0.797
				c-0.019-0.005-0.037-0.01-0.055-0.015c-1.467-0.389-2.678-1.42-3.287-2.81l-2.002-4.57c-0.74-1.689-2.35-2.847-4.19-2.973
				c-1.332-0.091-2.676-0.14-4.031-0.14c-1.356,0-2.699,0.049-4.032,0.14c-1.426,0.098-2.708,0.82-3.56,1.924
				c1.885,10.823,4.863,21.269,8.821,31.22c14.74,0.644,26.493,12.793,26.493,27.691c0,4.553-1.105,8.846-3.05,12.637
				c6.818,8.539,14.493,16.363,22.904,23.332c1.256-0.261,2.39-0.991,3.125-2.09c1.474-2.203,2.806-4.509,3.988-6.902
				c0.823-1.668,0.64-3.66-0.463-5.158l-2.962-4.025c-0.894-1.216-1.184-2.769-0.797-4.227c0.005-0.018,0.01-0.037,0.015-0.056
				c0.388-1.467,1.42-2.678,2.81-3.287l4.57-2.002c1.689-0.74,2.848-2.35,2.973-4.19c0.091-1.332,0.14-2.676,0.14-4.031
				s-0.049-2.699-0.14-4.031C275.137,345.751,273.979,344.14,272.29,343.401z"/>
		</g>
		
			<linearGradient id="SVGID_00000119108732896284282050000016298182880339725219_" gradientUnits="userSpaceOnUse" x1="130.6034" y1="175.3637" x2="287.9278" y2="175.3637">
			<stop  offset="0" style="stop-color:#4E8AF3"/>
			<stop  offset="0.1126" style="stop-color:#5A93F5"/>
			<stop  offset="0.488" style="stop-color:#7CACFA"/>
			<stop  offset="0.7972" style="stop-color:#91BCFE"/>
			<stop  offset="1" style="stop-color:#99C2FF"/>
		</linearGradient>
		<path style="opacity:0.46;fill:url(#SVGID_00000119108732896284282050000016298182880339725219_);" d="M209.265,254.025
			c-1.698,0-3.449-0.06-5.205-0.18c-3.161-0.217-5.921-2.172-7.203-5.1l-2.507-5.723c-0.481-1.098-1.426-1.905-2.593-2.213
			c-1.23-0.329-2.446-0.1-3.405,0.606l-5.04,3.708c-2.586,1.903-5.977,2.209-8.848,0.791c-3.068-1.515-6.064-3.246-8.904-5.145
			c-2.657-1.777-4.086-4.863-3.732-8.053l0.693-6.227c0.132-1.188-0.281-2.357-1.132-3.207c-0.894-0.896-2.065-1.308-3.251-1.175
			l-6.228,0.693c-3.193,0.355-6.276-1.076-8.052-3.732c-1.898-2.839-3.629-5.835-5.145-8.904c-1.417-2.871-1.114-6.261,0.79-8.848
			l3.709-5.041c0.706-0.959,0.934-2.174,0.626-3.333l-0.034-0.134c-0.294-1.105-1.101-2.05-2.199-2.531l-5.723-2.507
			c-2.93-1.283-4.883-4.043-5.1-7.202c-0.12-1.757-0.18-3.508-0.18-5.206c0-1.697,0.06-3.448,0.18-5.205
			c0.216-3.16,2.17-5.92,5.1-7.203l5.723-2.507c1.098-0.481,1.905-1.426,2.214-2.594c0.327-1.23,0.099-2.445-0.607-3.404
			l-3.709-5.041c-1.904-2.588-2.207-5.978-0.79-8.848c1.515-3.068,3.246-6.064,5.145-8.904c1.776-2.656,4.861-4.084,8.052-3.732
			l6.228,0.693c1.182,0.131,2.355-0.28,3.206-1.131c0.895-0.894,1.308-2.063,1.176-3.251l-0.693-6.226
			c-0.354-3.19,1.075-6.275,3.732-8.052c2.838-1.897,5.833-3.628,8.904-5.144c2.869-1.418,6.26-1.114,8.848,0.79l5.04,3.708
			c0.96,0.706,2.175,0.937,3.333,0.626c1.239-0.328,2.184-1.135,2.665-2.233l2.507-5.723c1.283-2.929,4.043-4.883,7.202-5.1
			c3.509-0.24,6.903-0.24,10.412,0c3.16,0.216,5.919,2.17,7.202,5.099l2.507,5.724c0.481,1.098,1.427,1.905,2.594,2.215
			c1.232,0.327,2.446,0.098,3.405-0.608l5.04-3.708c2.587-1.904,5.977-2.208,8.847-0.79c3.071,1.516,6.067,3.247,8.904,5.144
			c2.657,1.776,4.087,4.861,3.732,8.052l-0.692,6.227c-0.132,1.188,0.28,2.357,1.131,3.207c0.894,0.895,2.065,1.307,3.251,1.175
			l6.227-0.693c3.189-0.355,6.275,1.075,8.052,3.732c1.896,2.834,3.626,5.83,5.144,8.904c1.418,2.87,1.115,6.261-0.789,8.848
			l-3.708,5.041c-0.707,0.96-0.935,2.174-0.626,3.333c0.328,1.239,1.135,2.184,2.233,2.666l5.722,2.507
			c2.929,1.282,4.883,4.042,5.1,7.202l0,0c0.12,1.751,0.181,3.503,0.181,5.205c0,1.703-0.061,3.455-0.181,5.206
			c-0.216,3.16-2.171,5.92-5.1,7.202l-5.722,2.507c-1.098,0.481-1.905,1.426-2.214,2.593c-0.327,1.23-0.099,2.445,0.607,3.405
			l3.708,5.041c1.904,2.587,2.207,5.977,0.79,8.848c-1.518,3.075-3.25,6.071-5.145,8.905c-1.775,2.656-4.847,4.089-8.052,3.732
			l-6.227-0.693c-1.19-0.132-2.357,0.28-3.207,1.131c-0.895,0.894-1.307,2.063-1.175,3.25l0.692,6.227
			c0.355,3.191-1.075,6.276-3.732,8.053c-2.84,1.899-5.836,3.63-8.904,5.145c-2.867,1.415-6.26,1.114-8.847-0.791l-5.04-3.708
			c-0.961-0.706-2.176-0.935-3.333-0.626l-0.124,0.032c-1.115,0.296-2.06,1.104-2.541,2.201l-2.507,5.723
			c-1.283,2.93-4.042,4.883-7.202,5.1C212.714,253.965,210.963,254.025,209.265,254.025z M190.657,236.039
			c0.737,0,1.481,0.096,2.214,0.291c2.601,0.689,4.656,2.446,5.705,4.841l2.507,5.723c0.591,1.349,1.852,2.248,3.292,2.348
			c3.3,0.225,6.478,0.225,9.781,0c1.438-0.098,2.699-0.999,3.29-2.348l2.507-5.723c1.049-2.394,3.105-4.153,5.64-4.824
			c2.58-0.688,5.226-0.189,7.32,1.352l5.04,3.708c1.194,0.88,2.755,1.02,4.071,0.369c2.888-1.426,5.708-3.055,8.382-4.842
			c1.218-0.816,1.874-2.236,1.711-3.707l-0.692-6.227c-0.289-2.589,0.606-5.135,2.456-6.982l0.068-0.067
			c1.819-1.823,4.362-2.718,6.954-2.43l6.227,0.692c1.465,0.165,2.891-0.491,3.706-1.711c1.784-2.667,3.414-5.487,4.842-8.382
			c0.651-1.318,0.509-2.878-0.368-4.072l-3.708-5.041c-1.539-2.091-2.038-4.735-1.369-7.253c0.689-2.602,2.447-4.657,4.841-5.706
			l5.722-2.507c1.35-0.591,2.249-1.852,2.348-3.291c0.113-1.647,0.17-3.293,0.17-4.891c0-1.598-0.058-3.243-0.17-4.89l0,0
			c-0.098-1.44-0.998-2.701-2.348-3.292l-5.722-2.507c-2.394-1.049-4.152-3.104-4.824-5.638l-0.035-0.142
			c-0.651-2.443-0.152-5.087,1.387-7.179l3.708-5.04c0.878-1.194,1.019-2.754,0.368-4.071c-1.428-2.894-3.058-5.714-4.842-8.382
			c-0.815-1.219-2.235-1.876-3.706-1.71l-6.227,0.693c-2.591,0.286-5.135-0.607-6.981-2.456c-1.89-1.888-2.785-4.433-2.496-7.023
			l0.692-6.227c0.163-1.472-0.492-2.892-1.711-3.707c-2.671-1.786-5.491-3.415-8.382-4.842c-1.317-0.65-2.877-0.509-4.071,0.369
			l-5.04,3.708c-2.092,1.539-4.736,2.038-7.253,1.369c-2.602-0.689-4.657-2.448-5.706-4.841l-2.507-5.723
			c-0.591-1.349-1.852-2.248-3.291-2.347c-3.298-0.225-6.483-0.225-9.781,0c-1.439,0.099-2.7,0.998-3.291,2.347l-2.507,5.723
			c-1.049,2.394-3.103,4.152-5.638,4.824l-0.1,0.026c-2.486,0.661-5.129,0.161-7.22-1.377l-5.04-3.708
			c-1.194-0.879-2.753-1.019-4.072-0.369c-2.891,1.427-5.711,3.056-8.382,4.842c-1.218,0.815-1.874,2.236-1.711,3.707l0.693,6.227
			c0.288,2.59-0.607,5.134-2.456,6.981c-1.887,1.889-4.43,2.785-7.021,2.497l-6.228-0.693c-1.47-0.162-2.891,0.492-3.706,1.71
			c-1.787,2.673-3.416,5.493-4.842,8.382c-0.651,1.318-0.509,2.878,0.368,4.072l3.709,5.04c1.539,2.092,2.038,4.736,1.369,7.254
			c-0.689,2.601-2.447,4.656-4.841,5.705l-5.723,2.507c-1.349,0.591-2.249,1.852-2.347,3.292c-0.113,1.651-0.169,3.297-0.169,4.89
			c0,1.594,0.057,3.239,0.169,4.892c0.098,1.438,0.998,2.699,2.347,3.29l5.723,2.507c2.394,1.049,4.152,3.104,4.824,5.639
			c0.687,2.585,0.187,5.229-1.352,7.321l-3.709,5.041c-0.878,1.193-1.019,2.753-0.368,4.071c1.426,2.889,3.056,5.71,4.842,8.382
			c0.815,1.219,2.242,1.872,3.706,1.711l6.228-0.692c2.593-0.284,5.134,0.607,6.98,2.456l0.094,0.095
			c1.796,1.792,2.691,4.336,2.403,6.927l-0.693,6.227c-0.163,1.471,0.493,2.892,1.712,3.707c2.673,1.787,5.493,3.416,8.381,4.843
			c1.318,0.649,2.879,0.509,4.072-0.37l5.04-3.708C187.1,236.608,188.861,236.039,190.657,236.039z M209.265,212.385
			c-20.414,0-37.021-16.608-37.021-37.022c0-20.414,16.607-37.022,37.021-37.022c20.414,0,37.022,16.608,37.022,37.022
			C246.287,195.777,229.679,212.385,209.265,212.385z M209.265,142.956c-17.87,0-32.407,14.538-32.407,32.408
			s14.537,32.408,32.407,32.408s32.408-14.538,32.408-32.408S227.135,142.956,209.265,142.956z"/>
		
			<linearGradient id="SVGID_00000091009099451537058170000010980297266485845640_" gradientUnits="userSpaceOnUse" x1="543.1436" y1="275.2462" x2="645.9514" y2="275.2462">
			<stop  offset="0" style="stop-color:#4E8AF3"/>
			<stop  offset="0.1126" style="stop-color:#5A93F5"/>
			<stop  offset="0.488" style="stop-color:#7CACFA"/>
			<stop  offset="0.7972" style="stop-color:#91BCFE"/>
			<stop  offset="1" style="stop-color:#99C2FF"/>
		</linearGradient>
		<path style="opacity:0.46;fill:url(#SVGID_00000091009099451537058170000010980297266485845640_);" d="M594.547,326.65
			c-1.109,0-2.254-0.04-3.401-0.118c-2.066-0.142-3.869-1.419-4.707-3.333l-1.638-3.74c-0.315-0.717-0.932-1.245-1.694-1.446
			c-0.804-0.215-1.598-0.065-2.225,0.396l-3.294,2.423c-1.69,1.244-3.906,1.443-5.782,0.517c-2.005-0.99-3.963-2.121-5.819-3.362
			c-1.736-1.161-2.67-3.178-2.439-5.262l0.453-4.069c0.086-0.776-0.184-1.54-0.74-2.096c-0.584-0.585-1.35-0.855-2.124-0.768
			l-4.07,0.453c-2.086,0.232-4.101-0.703-5.262-2.439c-1.24-1.855-2.371-3.813-3.362-5.819c-0.926-1.876-0.728-4.091,0.517-5.782
			l2.424-3.294c0.462-0.627,0.611-1.421,0.409-2.178l-0.022-0.087c-0.192-0.722-0.72-1.34-1.437-1.654l-3.74-1.638
			c-1.914-0.839-3.191-2.642-3.332-4.707c-0.078-1.148-0.118-2.293-0.118-3.402c0-1.109,0.039-2.253,0.118-3.401
			c0.141-2.065,1.418-3.869,3.332-4.707l3.74-1.638c0.717-0.314,1.245-0.932,1.447-1.695c0.214-0.804,0.065-1.598-0.397-2.225
			l-2.424-3.294c-1.244-1.691-1.442-3.907-0.517-5.782c0.99-2.005,2.121-3.963,3.362-5.819c1.161-1.736,3.176-2.669,5.262-2.438
			l4.07,0.452c0.773,0.085,1.539-0.183,2.095-0.739c0.585-0.584,0.854-1.348,0.768-2.125l-0.453-4.069
			c-0.231-2.085,0.703-4.101,2.439-5.262c1.854-1.24,3.812-2.371,5.819-3.362c1.875-0.926,4.091-0.728,5.782,0.516l3.294,2.423
			c0.627,0.461,1.422,0.612,2.178,0.409c0.81-0.214,1.427-0.742,1.741-1.459l1.638-3.74c0.839-1.914,2.642-3.191,4.706-3.332
			c2.293-0.157,4.511-0.157,6.804,0c2.065,0.141,3.868,1.418,4.706,3.332l1.638,3.74c0.315,0.718,0.932,1.245,1.695,1.447
			c0.805,0.214,1.598,0.064,2.225-0.398l3.294-2.423c1.691-1.244,3.906-1.443,5.782-0.516c2.007,0.99,3.964,2.122,5.819,3.362
			c1.736,1.161,2.671,3.177,2.439,5.262l-0.452,4.07c-0.086,0.776,0.183,1.54,0.739,2.096c0.584,0.585,1.349,0.854,2.125,0.768
			l4.069-0.452c2.084-0.232,4.1,0.702,5.262,2.438c1.239,1.852,2.37,3.81,3.361,5.819c0.926,1.876,0.728,4.091-0.516,5.782
			l-2.423,3.294c-0.462,0.627-0.611,1.421-0.409,2.178c0.214,0.81,0.742,1.427,1.459,1.742l3.74,1.638
			c1.914,0.838,3.191,2.641,3.332,4.707l0,0c0.078,1.145,0.118,2.289,0.118,3.402c0,1.113-0.04,2.257-0.118,3.402
			c-0.141,2.065-1.419,3.869-3.332,4.707l-3.74,1.638c-0.717,0.314-1.245,0.932-1.447,1.695c-0.214,0.804-0.065,1.598,0.397,2.225
			l2.423,3.294c1.244,1.691,1.442,3.906,0.516,5.782c-0.992,2.009-2.123,3.967-3.362,5.819c-1.16,1.735-3.168,2.672-5.262,2.439
			l-4.069-0.453c-0.777-0.086-1.54,0.183-2.096,0.739c-0.585,0.584-0.854,1.348-0.768,2.124l0.452,4.069
			c0.232,2.085-0.703,4.101-2.439,5.262c-1.856,1.241-3.814,2.372-5.819,3.362c-1.873,0.925-4.091,0.728-5.782-0.517l-3.294-2.423
			c-0.628-0.461-1.422-0.611-2.178-0.409l-0.081,0.021c-0.728,0.194-1.346,0.721-1.661,1.439l-1.638,3.74
			c-0.838,1.915-2.642,3.191-4.706,3.333C596.801,326.61,595.657,326.65,594.547,326.65z M582.387,314.896
			c0.482,0,0.967,0.063,1.447,0.19c1.7,0.45,3.043,1.598,3.728,3.163l1.638,3.74c0.386,0.882,1.21,1.469,2.151,1.534
			c2.156,0.147,4.233,0.147,6.392,0c0.94-0.064,1.764-0.652,2.15-1.534l1.638-3.74c0.685-1.565,2.029-2.714,3.685-3.152
			c1.686-0.45,3.415-0.124,4.784,0.883l3.294,2.423c0.78,0.575,1.8,0.667,2.661,0.241c1.887-0.932,3.73-1.996,5.477-3.164
			c0.796-0.533,1.225-1.461,1.118-2.423l-0.452-4.069c-0.189-1.692,0.396-3.355,1.605-4.562l0.044-0.044
			c1.189-1.191,2.85-1.776,4.544-1.588l4.069,0.452c0.957,0.108,1.889-0.321,2.422-1.118c1.166-1.743,2.231-3.585,3.164-5.477
			c0.425-0.861,0.333-1.881-0.241-2.66l-2.423-3.294c-1.006-1.367-1.332-3.095-0.895-4.74c0.45-1.7,1.599-3.043,3.164-3.729
			l3.739-1.638c0.882-0.386,1.47-1.21,1.534-2.151c0.074-1.076,0.111-2.152,0.111-3.196s-0.038-2.119-0.111-3.196l0,0
			c-0.064-0.941-0.652-1.765-1.534-2.151l-3.739-1.638c-1.565-0.685-2.713-2.028-3.152-3.685l-0.023-0.093
			c-0.426-1.596-0.099-3.324,0.906-4.691l2.423-3.294c0.573-0.78,0.666-1.799,0.241-2.661c-0.933-1.891-1.998-3.734-3.164-5.478
			c-0.533-0.796-1.46-1.226-2.422-1.118l-4.069,0.453c-1.693,0.187-3.355-0.397-4.562-1.605c-1.235-1.234-1.82-2.897-1.631-4.589
			l0.452-4.069c0.107-0.962-0.322-1.89-1.118-2.422c-1.745-1.167-3.588-2.232-5.477-3.164c-0.86-0.425-1.88-0.333-2.661,0.241
			l-3.294,2.423c-1.367,1.006-3.095,1.332-4.74,0.895c-1.701-0.451-3.043-1.599-3.729-3.164l-1.638-3.74
			c-0.386-0.882-1.21-1.469-2.151-1.534c-2.155-0.147-4.236-0.147-6.392,0c-0.94,0.064-1.764,0.652-2.151,1.534l-1.638,3.74
			c-0.685,1.565-2.028,2.713-3.685,3.152l-0.065,0.017c-1.625,0.432-3.351,0.105-4.718-0.9l-3.294-2.423
			c-0.78-0.574-1.799-0.666-2.661-0.241c-1.889,0.932-3.732,1.997-5.477,3.164c-0.796,0.533-1.225,1.461-1.118,2.423l0.453,4.069
			c0.188,1.692-0.397,3.355-1.605,4.562c-1.233,1.235-2.895,1.82-4.588,1.632l-4.07-0.453c-0.96-0.106-1.889,0.322-2.422,1.118
			c-1.168,1.747-2.232,3.59-3.164,5.477c-0.425,0.862-0.333,1.881,0.241,2.661l2.424,3.294c1.006,1.367,1.332,3.095,0.895,4.74
			c-0.45,1.7-1.599,3.043-3.164,3.728l-3.74,1.638c-0.882,0.386-1.47,1.21-1.534,2.151c-0.074,1.079-0.111,2.154-0.111,3.196
			c0,1.041,0.037,2.117,0.111,3.196c0.064,0.94,0.652,1.764,1.534,2.15l3.74,1.638c1.565,0.686,2.714,2.028,3.152,3.685
			c0.449,1.689,0.122,3.417-0.883,4.784l-2.424,3.294c-0.574,0.78-0.666,1.799-0.241,2.66c0.932,1.888,1.997,3.731,3.164,5.477
			c0.533,0.797,1.465,1.223,2.422,1.118l4.07-0.452c1.694-0.186,3.355,0.397,4.562,1.605l0.061,0.062
			c1.174,1.171,1.758,2.834,1.57,4.527l-0.453,4.069c-0.107,0.961,0.322,1.89,1.119,2.423c1.747,1.168,3.589,2.233,5.477,3.165
			c0.862,0.424,1.882,0.333,2.661-0.242l3.294-2.423C580.063,315.268,581.214,314.896,582.387,314.896z M594.547,299.439
			c-13.34,0-24.193-10.853-24.193-24.193c0-13.34,10.853-24.193,24.193-24.193c13.34,0,24.193,10.853,24.193,24.193
			C618.74,288.586,607.887,299.439,594.547,299.439z M594.547,254.068c-11.677,0-21.177,9.5-21.177,21.178
			c0,11.677,9.5,21.178,21.177,21.178c11.678,0,21.178-9.5,21.178-21.178C615.725,263.568,606.225,254.068,594.547,254.068z"/>
		
			<linearGradient id="SVGID_00000038372701260274114830000015278909878890273954_" gradientUnits="userSpaceOnUse" x1="562.8595" y1="120.75" x2="633.4218" y2="120.75">
			<stop  offset="0" style="stop-color:#4E8AF3"/>
			<stop  offset="0.1126" style="stop-color:#5A93F5"/>
			<stop  offset="0.488" style="stop-color:#7CACFA"/>
			<stop  offset="0.7972" style="stop-color:#91BCFE"/>
			<stop  offset="1" style="stop-color:#99C2FF"/>
		</linearGradient>
		<path style="opacity:0.46;fill:url(#SVGID_00000038372701260274114830000015278909878890273954_);" d="M598.14,156.031
			c-0.761,0-1.547-0.027-2.334-0.081c-1.418-0.097-2.656-0.974-3.231-2.287l-1.124-2.567c-0.216-0.492-0.639-0.854-1.163-0.993
			c-0.552-0.148-1.097-0.045-1.527,0.272l-2.261,1.663c-1.16,0.854-2.681,0.991-3.969,0.355c-1.376-0.68-2.72-1.456-3.994-2.307
			c-1.191-0.797-1.833-2.181-1.674-3.612l0.311-2.793c0.059-0.533-0.126-1.057-0.508-1.438c-0.401-0.402-0.926-0.587-1.458-0.527
			l-2.793,0.311c-1.432,0.16-2.815-0.483-3.611-1.674c-0.851-1.273-1.628-2.617-2.307-3.993c-0.635-1.288-0.5-2.808,0.354-3.968
			l1.664-2.261c0.317-0.43,0.419-0.975,0.281-1.495l-0.015-0.06c-0.132-0.495-0.494-0.92-0.986-1.135l-2.567-1.124
			c-1.314-0.576-2.19-1.813-2.287-3.23c-0.054-0.788-0.081-1.574-0.081-2.335c0-0.761,0.027-1.547,0.081-2.334
			c0.097-1.417,0.973-2.655,2.287-3.231l2.567-1.124c0.492-0.216,0.854-0.64,0.993-1.163c0.147-0.552,0.044-1.097-0.272-1.527
			l-1.664-2.261c-0.854-1.161-0.99-2.681-0.354-3.969c0.68-1.376,1.456-2.72,2.307-3.994c0.797-1.191,2.18-1.832,3.611-1.674
			l2.793,0.311c0.53,0.059,1.056-0.126,1.438-0.507c0.401-0.401,0.586-0.925,0.528-1.458l-0.311-2.793
			c-0.159-1.431,0.482-2.815,1.674-3.612c1.273-0.851,2.616-1.627,3.994-2.307c1.287-0.636,2.808-0.499,3.969,0.354l2.261,1.663
			c0.431,0.317,0.976,0.42,1.495,0.281c0.556-0.147,0.979-0.509,1.195-1.002l1.124-2.567c0.576-1.314,1.813-2.19,3.23-2.287
			c1.574-0.107,3.096-0.107,4.67,0c1.417,0.097,2.655,0.973,3.23,2.287l1.124,2.567c0.216,0.493,0.64,0.854,1.163,0.993
			c0.552,0.146,1.097,0.044,1.527-0.273l2.261-1.663c1.16-0.854,2.681-0.99,3.968-0.354c1.378,0.68,2.721,1.456,3.994,2.307
			c1.192,0.797,1.833,2.18,1.674,3.611l-0.31,2.793c-0.059,0.533,0.126,1.057,0.507,1.438c0.401,0.401,0.926,0.586,1.458,0.527
			l2.793-0.311c1.43-0.159,2.814,0.482,3.611,1.674c0.85,1.271,1.626,2.615,2.307,3.994c0.636,1.287,0.5,2.808-0.354,3.968
			l-1.663,2.261c-0.317,0.43-0.419,0.975-0.281,1.495c0.147,0.556,0.509,0.98,1.002,1.196l2.567,1.124
			c1.314,0.575,2.19,1.813,2.287,3.23l0,0c0.054,0.785,0.081,1.571,0.081,2.335c0,0.764-0.027,1.549-0.081,2.335
			c-0.097,1.417-0.974,2.655-2.287,3.23l-2.567,1.124c-0.492,0.216-0.854,0.64-0.993,1.163c-0.147,0.552-0.045,1.097,0.272,1.527
			l1.663,2.261c0.854,1.16,0.99,2.681,0.355,3.968c-0.681,1.379-1.458,2.723-2.308,3.994c-0.796,1.191-2.174,1.834-3.611,1.674
			l-2.793-0.311c-0.534-0.059-1.057,0.126-1.438,0.508c-0.401,0.401-0.587,0.925-0.527,1.458l0.31,2.793
			c0.159,1.431-0.482,2.815-1.674,3.612c-1.274,0.852-2.617,1.628-3.994,2.307c-1.286,0.634-2.808,0.499-3.968-0.355l-2.261-1.663
			c-0.431-0.316-0.976-0.42-1.495-0.281l-0.056,0.014c-0.5,0.133-0.924,0.495-1.14,0.987l-1.124,2.567
			c-0.576,1.314-1.813,2.19-3.23,2.287C599.687,156.004,598.902,156.031,598.14,156.031z M589.794,147.964
			c0.331,0,0.664,0.043,0.993,0.131c1.167,0.309,2.088,1.097,2.559,2.171l1.124,2.567c0.265,0.605,0.831,1.008,1.477,1.053
			c1.48,0.101,2.905,0.101,4.387,0c0.645-0.044,1.211-0.448,1.476-1.053l1.124-2.567c0.471-1.074,1.392-1.862,2.529-2.164
			c1.157-0.309,2.344-0.085,3.283,0.606l2.26,1.663c0.536,0.394,1.236,0.457,1.826,0.166c1.295-0.639,2.56-1.37,3.759-2.172
			c0.547-0.366,0.841-1.003,0.768-1.663l-0.31-2.793c-0.13-1.161,0.272-2.303,1.101-3.131l0.03-0.03
			c0.816-0.818,1.956-1.219,3.119-1.09l2.793,0.311c0.657,0.074,1.297-0.22,1.662-0.767c0.8-1.196,1.531-2.461,2.172-3.759
			c0.292-0.591,0.228-1.291-0.165-1.826l-1.663-2.261c-0.69-0.938-0.914-2.124-0.614-3.253c0.309-1.167,1.097-2.089,2.171-2.559
			l2.567-1.124c0.606-0.265,1.009-0.831,1.053-1.476c0.05-0.739,0.076-1.477,0.076-2.193c0-0.717-0.026-1.454-0.076-2.193l0,0
			c-0.044-0.646-0.447-1.211-1.053-1.476l-2.567-1.124c-1.074-0.47-1.862-1.392-2.164-2.529l-0.016-0.064
			c-0.292-1.096-0.068-2.282,0.622-3.22l1.663-2.26c0.394-0.535,0.457-1.235,0.165-1.826c-0.641-1.298-1.371-2.563-2.172-3.759
			c-0.366-0.547-1.002-0.841-1.662-0.767l-2.793,0.311c-1.162,0.128-2.303-0.272-3.131-1.102c-0.847-0.847-1.249-1.988-1.12-3.15
			l0.31-2.793c0.073-0.66-0.221-1.297-0.768-1.663c-1.198-0.801-2.463-1.532-3.759-2.172c-0.59-0.291-1.29-0.228-1.826,0.166
			l-2.26,1.663c-0.939,0.69-2.124,0.914-3.253,0.614c-1.167-0.309-2.089-1.098-2.559-2.172l-1.124-2.567
			c-0.265-0.605-0.831-1.008-1.476-1.053c-1.479-0.101-2.908-0.101-4.387,0c-0.646,0.044-1.211,0.448-1.476,1.053l-1.124,2.567
			c-0.471,1.074-1.392,1.862-2.529,2.163l-0.045,0.012c-1.115,0.297-2.3,0.072-3.238-0.618l-2.26-1.663
			c-0.536-0.394-1.235-0.457-1.827-0.166c-1.297,0.64-2.561,1.371-3.759,2.172c-0.547,0.366-0.841,1.003-0.768,1.663l0.311,2.793
			c0.129,1.162-0.272,2.303-1.102,3.131c-0.846,0.847-1.987,1.249-3.149,1.12l-2.793-0.311c-0.659-0.073-1.297,0.221-1.662,0.767
			c-0.802,1.199-1.532,2.464-2.172,3.759c-0.292,0.591-0.228,1.291,0.165,1.826l1.664,2.26c0.69,0.938,0.914,2.124,0.614,3.254
			c-0.309,1.167-1.097,2.088-2.171,2.559l-2.567,1.124c-0.605,0.265-1.009,0.831-1.053,1.476c-0.05,0.741-0.076,1.479-0.076,2.193
			c0,0.715,0.026,1.453,0.076,2.194c0.044,0.645,0.448,1.211,1.053,1.476l2.567,1.124c1.074,0.47,1.862,1.392,2.164,2.529
			c0.308,1.159,0.084,2.345-0.606,3.284l-1.664,2.261c-0.394,0.535-0.457,1.235-0.165,1.826c0.64,1.296,1.371,2.561,2.172,3.759
			c0.366,0.547,1.006,0.84,1.662,0.767l2.793-0.311c1.163-0.127,2.303,0.273,3.131,1.102l0.042,0.043
			c0.806,0.804,1.207,1.945,1.078,3.107l-0.311,2.793c-0.073,0.66,0.221,1.297,0.768,1.663c1.199,0.801,2.464,1.532,3.759,2.172
			c0.591,0.291,1.291,0.228,1.827-0.166l2.26-1.663C588.199,148.219,588.989,147.964,589.794,147.964z M598.14,137.355
			c-9.156,0-16.604-7.449-16.604-16.605c0-9.156,7.449-16.605,16.604-16.605c9.156,0,16.605,7.449,16.605,16.605
			C614.745,129.906,607.296,137.355,598.14,137.355z M598.14,106.215c-8.015,0-14.535,6.52-14.535,14.535
			c0,8.015,6.52,14.535,14.535,14.535c8.015,0,14.536-6.52,14.536-14.535C612.676,112.735,606.155,106.215,598.14,106.215z"/>
		
			<linearGradient id="SVGID_00000047780171758682191090000018173219879397679744_" gradientUnits="userSpaceOnUse" x1="72.1565" y1="278.1811" x2="178.5317" y2="278.1811">
			<stop  offset="0" style="stop-color:#4E8AF3"/>
			<stop  offset="0.1126" style="stop-color:#5A93F5"/>
			<stop  offset="0.488" style="stop-color:#7CACFA"/>
			<stop  offset="0.7972" style="stop-color:#91BCFE"/>
			<stop  offset="1" style="stop-color:#99C2FF"/>
		</linearGradient>
		<path style="opacity:0.24;fill:url(#SVGID_00000047780171758682191090000018173219879397679744_);" d="M125.344,331.368
			c-1.148,0-2.332-0.041-3.519-0.122c-2.137-0.147-4.003-1.468-4.87-3.448l-1.695-3.87c-0.325-0.742-0.964-1.288-1.753-1.496
			c-0.832-0.222-1.654-0.068-2.303,0.41l-3.408,2.507c-1.749,1.287-4.042,1.493-5.983,0.535c-2.075-1.024-4.1-2.195-6.021-3.479
			c-1.796-1.202-2.763-3.288-2.523-5.445l0.469-4.21c0.089-0.803-0.19-1.594-0.765-2.168c-0.604-0.606-1.396-0.885-2.198-0.795
			l-4.211,0.468c-2.159,0.24-4.243-0.728-5.444-2.523c-1.283-1.919-2.454-3.945-3.479-6.02c-0.958-1.941-0.753-4.233,0.534-5.983
			l2.508-3.409c0.478-0.649,0.632-1.47,0.423-2.254l-0.023-0.09c-0.199-0.747-0.745-1.386-1.487-1.712l-3.87-1.695
			c-1.981-0.868-3.302-2.734-3.448-4.87c-0.081-1.188-0.122-2.372-0.122-3.52c0-1.148,0.041-2.332,0.122-3.519
			c0.146-2.137,1.467-4.003,3.448-4.87l3.87-1.695c0.742-0.325,1.288-0.965,1.497-1.754c0.221-0.832,0.067-1.653-0.411-2.302
			l-2.508-3.408c-1.287-1.75-1.492-4.042-0.534-5.983c1.024-2.075,2.195-4.1,3.479-6.021c1.201-1.796,3.287-2.761,5.444-2.523
			l4.211,0.468c0.799,0.088,1.592-0.189,2.168-0.765c0.605-0.605,0.884-1.395,0.795-2.198l-0.469-4.21
			c-0.239-2.157,0.727-4.243,2.523-5.445c1.919-1.283,3.944-2.453,6.021-3.478c1.94-0.958,4.233-0.753,5.983,0.534l3.408,2.507
			c0.649,0.477,1.471,0.633,2.254,0.423c0.838-0.222,1.476-0.767,1.802-1.51l1.695-3.869c0.868-1.98,2.733-3.302,4.87-3.448
			c2.373-0.162,4.667-0.162,7.04,0c2.136,0.146,4.002,1.467,4.87,3.447l1.695,3.87c0.325,0.742,0.965,1.288,1.754,1.497
			c0.833,0.221,1.654,0.066,2.303-0.411l3.408-2.507c1.749-1.287,4.042-1.493,5.982-0.534c2.077,1.025,4.102,2.195,6.021,3.478
			c1.796,1.201,2.763,3.287,2.523,5.444l-0.468,4.211c-0.09,0.803,0.189,1.594,0.765,2.169c0.604,0.605,1.396,0.883,2.198,0.795
			l4.21-0.468c2.156-0.24,4.243,0.727,5.444,2.523c1.282,1.916,2.452,3.942,3.478,6.021c0.958,1.941,0.754,4.233-0.534,5.983
			l-2.507,3.408c-0.478,0.649-0.632,1.47-0.423,2.254c0.222,0.838,0.768,1.477,1.51,1.802l3.869,1.695
			c1.98,0.867,3.302,2.733,3.448,4.87l0,0c0.081,1.184,0.122,2.369,0.122,3.52c0,1.151-0.042,2.336-0.122,3.52
			c-0.146,2.137-1.468,4.003-3.448,4.87l-3.869,1.695c-0.742,0.325-1.288,0.965-1.497,1.754c-0.221,0.832-0.067,1.653,0.411,2.302
			l2.507,3.409c1.287,1.749,1.492,4.042,0.534,5.982c-1.027,2.079-2.197,4.105-3.479,6.021c-1.2,1.796-3.277,2.764-5.444,2.523
			l-4.21-0.468c-0.804-0.089-1.593,0.189-2.169,0.765c-0.605,0.604-0.884,1.395-0.794,2.198l0.468,4.21
			c0.24,2.158-0.727,4.243-2.523,5.445c-1.921,1.284-3.946,2.454-6.021,3.479c-1.938,0.957-4.233,0.753-5.982-0.535l-3.408-2.507
			c-0.65-0.477-1.472-0.633-2.254-0.423l-0.084,0.021c-0.754,0.201-1.393,0.746-1.718,1.489l-1.695,3.87
			c-0.868,1.981-2.733,3.302-4.87,3.448C127.676,331.328,126.492,331.368,125.344,331.368z M112.762,319.207
			c0.498,0,1.001,0.065,1.497,0.197c1.758,0.465,3.148,1.654,3.858,3.273l1.695,3.87c0.4,0.912,1.252,1.52,2.226,1.587
			c2.231,0.152,4.38,0.152,6.614,0c0.972-0.066,1.825-0.675,2.225-1.587l1.695-3.87c0.709-1.619,2.099-2.808,3.813-3.262
			c1.744-0.466,3.533-0.128,4.949,0.914l3.408,2.507c0.807,0.595,1.863,0.69,2.753,0.25c1.953-0.964,3.859-2.066,5.667-3.274
			c0.824-0.551,1.267-1.512,1.157-2.507l-0.468-4.21c-0.196-1.751,0.41-3.472,1.66-4.721l0.046-0.045
			c1.23-1.233,2.949-1.838,4.702-1.643l4.21,0.468c0.991,0.112,1.955-0.332,2.506-1.157c1.206-1.803,2.308-3.71,3.274-5.667
			c0.44-0.891,0.344-1.946-0.249-2.753l-2.507-3.408c-1.041-1.414-1.378-3.202-0.926-4.904c0.465-1.759,1.654-3.149,3.273-3.858
			l3.869-1.695c0.913-0.399,1.521-1.252,1.587-2.226c0.076-1.114,0.115-2.226,0.115-3.307c0-1.08-0.039-2.193-0.115-3.306l0,0
			c-0.066-0.973-0.674-1.826-1.587-2.225l-3.869-1.695c-1.619-0.709-2.807-2.099-3.262-3.813l-0.024-0.096
			c-0.441-1.652-0.103-3.44,0.938-4.854l2.507-3.408c0.593-0.807,0.689-1.862,0.249-2.753c-0.966-1.957-2.067-3.864-3.274-5.668
			c-0.551-0.824-1.511-1.268-2.506-1.157l-4.21,0.468c-1.752,0.193-3.472-0.411-4.72-1.661c-1.278-1.277-1.883-2.997-1.688-4.748
			l0.468-4.21c0.11-0.995-0.333-1.955-1.157-2.506c-1.806-1.208-3.712-2.309-5.667-3.274c-0.89-0.439-1.946-0.344-2.753,0.25
			l-3.408,2.507c-1.415,1.041-3.202,1.378-4.904,0.926c-1.76-0.466-3.149-1.655-3.858-3.273l-1.695-3.87
			c-0.4-0.912-1.252-1.52-2.225-1.587c-2.23-0.152-4.383-0.152-6.614,0c-0.973,0.067-1.826,0.675-2.225,1.587l-1.695,3.869
			c-0.709,1.619-2.099,2.807-3.813,3.261l-0.068,0.018c-1.681,0.447-3.468,0.109-4.882-0.931l-3.408-2.507
			c-0.807-0.594-1.862-0.689-2.754-0.25c-1.955,0.965-3.861,2.067-5.667,3.274c-0.824,0.551-1.267,1.512-1.157,2.507l0.469,4.21
			c0.194,1.751-0.411,3.472-1.661,4.72c-1.276,1.277-2.995,1.883-4.747,1.688l-4.211-0.468c-0.994-0.11-1.955,0.333-2.506,1.157
			c-1.208,1.807-2.31,3.714-3.274,5.667c-0.44,0.891-0.344,1.946,0.249,2.753l2.508,3.408c1.041,1.414,1.378,3.202,0.926,4.905
			c-0.465,1.759-1.654,3.148-3.273,3.858l-3.87,1.695c-0.912,0.4-1.521,1.252-1.587,2.225c-0.076,1.117-0.115,2.229-0.115,3.306
			c0,1.078,0.038,2.19,0.115,3.307c0.066,0.973,0.675,1.825,1.587,2.225l3.87,1.695c1.619,0.709,2.808,2.099,3.262,3.813
			c0.464,1.748,0.127,3.535-0.914,4.95l-2.508,3.408c-0.593,0.807-0.689,1.861-0.249,2.753c0.965,1.954,2.066,3.861,3.274,5.667
			c0.551,0.824,1.516,1.266,2.506,1.157l4.211-0.468c1.753-0.192,3.471,0.411,4.72,1.661l0.063,0.064
			c1.214,1.212,1.819,2.932,1.625,4.684l-0.469,4.21c-0.11,0.994,0.333,1.955,1.158,2.507c1.807,1.208,3.714,2.31,5.667,3.275
			c0.891,0.439,1.947,0.344,2.754-0.25l3.408-2.507C110.357,319.591,111.548,319.207,112.762,319.207z M125.344,303.213
			c-13.803,0-25.032-11.229-25.032-25.032c0-13.803,11.229-25.032,25.032-25.032c13.803,0,25.033,11.229,25.033,25.032
			C150.376,291.984,139.147,303.213,125.344,303.213z M125.344,256.268c-12.083,0-21.912,9.83-21.912,21.913
			c0,12.083,9.83,21.913,21.912,21.913c12.083,0,21.913-9.83,21.913-21.913C147.257,266.098,137.426,256.268,125.344,256.268z"/>
		<g>
			<g>
				
					<linearGradient id="SVGID_00000067209203442689038540000010952743666646981556_" gradientUnits="userSpaceOnUse" x1="260.9256" y1="377.5447" x2="485.4382" y2="153.0321">
					<stop  offset="0" style="stop-color:#5157CC"/>
					<stop  offset="0.1593" style="stop-color:#6365D7"/>
					<stop  offset="0.5149" style="stop-color:#8581ED"/>
					<stop  offset="0.8079" style="stop-color:#9A93FA"/>
					<stop  offset="1" style="stop-color:#A299FF"/>
				</linearGradient>
				
					<circle style="fill:url(#SVGID_00000067209203442689038540000010952743666646981556_);" cx="373.182" cy="265.288" r="158.754"/>
				
					<linearGradient id="SVGID_00000035504498350719379190000004873078697457548971_" gradientUnits="userSpaceOnUse" x1="265.7941" y1="372.6762" x2="480.5697" y2="157.9006">
					<stop  offset="0" style="stop-color:#4E8AF3"/>
					<stop  offset="0.1126" style="stop-color:#5A93F5"/>
					<stop  offset="0.488" style="stop-color:#7CACFA"/>
					<stop  offset="0.7972" style="stop-color:#91BCFE"/>
					<stop  offset="1" style="stop-color:#99C2FF"/>
				</linearGradient>
				
					<circle style="fill:url(#SVGID_00000035504498350719379190000004873078697457548971_);" cx="373.182" cy="265.288" r="151.869"/>
				
					<linearGradient id="SVGID_00000151542054432323513190000001841956508510689972_" gradientUnits="userSpaceOnUse" x1="279.2481" y1="359.2221" x2="467.1156" y2="171.3546">
					<stop  offset="0" style="stop-color:#7CBBEA"/>
					<stop  offset="0.1367" style="stop-color:#8BC6EE"/>
					<stop  offset="0.5019" style="stop-color:#ADE1F7"/>
					<stop  offset="0.8028" style="stop-color:#C2F1FD"/>
					<stop  offset="1" style="stop-color:#CAF7FF"/>
				</linearGradient>
				
					<circle style="fill:url(#SVGID_00000151542054432323513190000001841956508510689972_);" cx="373.182" cy="265.288" r="132.842"/>
				
					<linearGradient id="SVGID_00000013167878620134496160000013746272345480458124_" gradientUnits="userSpaceOnUse" x1="279.2518" y1="359.2257" x2="392.2595" y2="246.218">
					<stop  offset="0" style="stop-color:#7CBBEA"/>
					<stop  offset="0.1367" style="stop-color:#8BC6EE"/>
					<stop  offset="0.5019" style="stop-color:#ADE1F7"/>
					<stop  offset="0.8028" style="stop-color:#C2F1FD"/>
					<stop  offset="1" style="stop-color:#CAF7FF"/>
				</linearGradient>
				<path style="fill:url(#SVGID_00000013167878620134496160000013746272345480458124_);" d="M376.623,393.44
					c-73.137,0-132.426-59.289-132.426-132.426c0-34.043,12.851-65.082,33.96-88.542c-23.393,23.947-37.817,56.694-37.817,92.816
					c0,73.367,59.475,132.842,132.842,132.842c46.44,0,87.307-23.836,111.055-59.936C460.201,371.648,420.959,393.44,376.623,393.44
					z"/>
				
					<linearGradient id="SVGID_00000159462221226627627110000009035274702330613151_" gradientUnits="userSpaceOnUse" x1="255.1552" y1="265.2884" x2="491.2086" y2="265.2884">
					<stop  offset="0" style="stop-color:#5157CC"/>
					<stop  offset="0.1593" style="stop-color:#6365D7"/>
					<stop  offset="0.5149" style="stop-color:#8581ED"/>
					<stop  offset="0.8079" style="stop-color:#9A93FA"/>
					<stop  offset="1" style="stop-color:#A299FF"/>
				</linearGradient>
				<path style="fill:url(#SVGID_00000159462221226627627110000009035274702330613151_);" d="M373.182,161.911L373.182,161.911
					c-2.13,0-3.857-1.727-3.857-3.858v-6.934c0-2.13,1.727-3.857,3.857-3.857l0,0c2.13,0,3.858,1.727,3.858,3.857v6.934
					C377.039,160.184,375.312,161.911,373.182,161.911z M377.039,379.458v-6.934c0-2.13-1.727-3.858-3.858-3.858l0,0
					c-2.13,0-3.857,1.727-3.857,3.858v6.934c0,2.13,1.727,3.857,3.857,3.857l0,0C375.312,383.315,377.039,381.588,377.039,379.458z
					 M322.905,170.491l-3.467-6.005c-1.065-1.845-3.424-2.477-5.269-1.412l0,0c-1.845,1.065-2.477,3.424-1.412,5.269l3.467,6.005
					c1.065,1.845,3.424,2.477,5.269,1.412h0C323.338,174.695,323.97,172.336,322.905,170.491z M433.607,362.233l-3.467-6.005
					c-1.065-1.845-3.424-2.477-5.269-1.412h0c-1.845,1.065-2.477,3.424-1.412,5.269l3.467,6.005
					c1.065,1.845,3.424,2.477,5.269,1.412l0,0C434.04,366.437,434.672,364.078,433.607,362.233z M282.242,208.33l-6.005-3.467
					c-1.845-1.065-4.204-0.433-5.269,1.412l0,0c-1.065,1.845-0.433,4.204,1.412,5.269l6.005,3.467
					c1.845,1.065,4.204,0.433,5.269-1.412v0C284.719,211.754,284.087,209.395,282.242,208.33z M473.984,319.032l-6.005-3.467
					c-1.845-1.065-4.204-0.433-5.269,1.412l0,0c-1.065,1.845-0.433,4.204,1.412,5.269l6.005,3.467
					c1.845,1.065,4.204,0.433,5.269-1.412l0,0C476.461,322.457,475.829,320.098,473.984,319.032z M265.947,261.431h-6.934
					c-2.13,0-3.857,1.727-3.857,3.857l0,0c0,2.13,1.727,3.858,3.857,3.858h6.934c2.13,0,3.857-1.727,3.857-3.858l0,0
					C269.804,263.158,268.077,261.431,265.947,261.431z M487.351,261.431h-6.934c-2.131,0-3.858,1.727-3.858,3.857l0,0
					c0,2.13,1.727,3.858,3.858,3.858h6.934c2.13,0,3.857-1.727,3.857-3.858l0,0C491.209,263.158,489.482,261.431,487.351,261.431z
					 M278.385,315.565l-6.005,3.467c-1.845,1.065-2.477,3.424-1.412,5.269l0,0c1.065,1.845,3.424,2.477,5.269,1.412l6.005-3.467
					c1.845-1.065,2.477-3.424,1.412-5.269l0,0C282.589,315.132,280.23,314.5,278.385,315.565z M470.127,204.863l-6.005,3.467
					c-1.845,1.065-2.477,3.424-1.412,5.269v0c1.065,1.845,3.424,2.477,5.269,1.412l6.005-3.467c1.845-1.065,2.477-3.424,1.412-5.269
					l0,0C474.331,204.43,471.972,203.798,470.127,204.863z M316.224,356.228l-3.467,6.005c-1.065,1.845-0.433,4.204,1.412,5.269l0,0
					c1.845,1.065,4.204,0.433,5.269-1.412l3.467-6.005c1.065-1.845,0.433-4.204-1.412-5.269h0
					C319.648,353.751,317.289,354.383,316.224,356.228z M426.926,164.486l-3.467,6.005c-1.065,1.845-0.433,4.204,1.412,5.269h0
					c1.845,1.065,4.204,0.433,5.269-1.412l3.467-6.005c1.065-1.845,0.433-4.204-1.412-5.269l0,0
					C430.35,162.009,427.991,162.641,426.926,164.486z"/>
			</g>
			
				<linearGradient id="SVGID_00000154390809049978591150000012450404150261368466_" gradientUnits="userSpaceOnUse" x1="363.9203" y1="288.6917" x2="414.7574" y2="288.6917">
				<stop  offset="0" style="stop-color:#5157CC"/>
				<stop  offset="0.1593" style="stop-color:#6365D7"/>
				<stop  offset="0.5149" style="stop-color:#8581ED"/>
				<stop  offset="0.8079" style="stop-color:#9A93FA"/>
				<stop  offset="1" style="stop-color:#A299FF"/>
			</linearGradient>
			<path style="fill:url(#SVGID_00000154390809049978591150000012450404150261368466_);" d="M413.658,322.835L413.658,322.835
				c0.986-0.701,1.38-1.85,0.887-2.584l-38.374-57.182c-0.038-0.057-0.081-0.11-0.128-0.16l-8.088-8.458
				c-0.577-0.603-1.716-0.561-2.641,0.097l-0.294,0.209c-0.925,0.658-1.339,1.721-0.958,2.463l5.335,10.416
				c0.031,0.061,0.068,0.119,0.109,0.174l41.421,55.014C411.458,323.532,412.673,323.536,413.658,322.835z"/>
			
				<linearGradient id="SVGID_00000063606732185805843290000011849057071933401746_" gradientUnits="userSpaceOnUse" x1="363.2232" y1="238.1206" x2="448.5415" y2="238.1206">
				<stop  offset="0" style="stop-color:#5190FF"/>
				<stop  offset="0.1443" style="stop-color:#5FA0FF"/>
				<stop  offset="0.5063" style="stop-color:#7FC2FF"/>
				<stop  offset="0.8045" style="stop-color:#92D7FF"/>
				<stop  offset="1" style="stop-color:#99DFFF"/>
			</linearGradient>
			<path style="fill:url(#SVGID_00000063606732185805843290000011849057071933401746_);" d="M448.474,201.098L448.474,201.098
				c-0.258-0.3-1.19,0.081-2.094,0.857l-70.455,60.422c-0.07,0.06-0.139,0.121-0.206,0.184l-11.424,10.662
				c-0.814,0.76-1.248,1.55-1.005,1.832l0.077,0.09c0.243,0.282,1.084-0.036,1.949-0.736l12.146-9.824
				c0.071-0.058,0.142-0.117,0.211-0.178l69.656-61.35C448.224,202.268,448.733,201.398,448.474,201.098z"/>
			
				<linearGradient id="SVGID_00000135681329721196785300000012800748173807823765_" gradientUnits="userSpaceOnUse" x1="281.4194" y1="252.5723" x2="390.0955" y2="252.5723">
				<stop  offset="0" style="stop-color:#5157CC"/>
				<stop  offset="0.1593" style="stop-color:#6365D7"/>
				<stop  offset="0.5149" style="stop-color:#8581ED"/>
				<stop  offset="0.8079" style="stop-color:#9A93FA"/>
				<stop  offset="1" style="stop-color:#A299FF"/>
			</linearGradient>
			<path style="fill:url(#SVGID_00000135681329721196785300000012800748173807823765_);" d="M281.546,233.346L281.546,233.346
				c-0.403,1.141,0.184,2.395,1.321,2.822l88.534,33.261c0.088,0.033,0.178,0.06,0.269,0.082l15.561,3.706
				c1.109,0.264,2.238-0.348,2.616-1.418l0.12-0.341c0.378-1.071-0.115-2.255-1.144-2.747l-14.436-6.892
				c-0.085-0.04-0.172-0.076-0.261-0.105l-89.78-29.735C283.195,231.598,281.949,232.205,281.546,233.346z"/>
			
				<linearGradient id="SVGID_00000180336853892097208010000008994376770185236912_" gradientUnits="userSpaceOnUse" x1="367.1646" y1="265.2884" x2="379.2001" y2="265.2884">
				<stop  offset="0" style="stop-color:#5190FF"/>
				<stop  offset="0.1443" style="stop-color:#5FA0FF"/>
				<stop  offset="0.5063" style="stop-color:#7FC2FF"/>
				<stop  offset="0.8045" style="stop-color:#92D7FF"/>
				<stop  offset="1" style="stop-color:#99DFFF"/>
			</linearGradient>
			<path style="fill:url(#SVGID_00000180336853892097208010000008994376770185236912_);" d="M379.2,265.288
				c0,3.324-2.694,6.018-6.018,6.018c-3.324,0-6.018-2.694-6.018-6.018c0-3.323,2.694-6.018,6.018-6.018
				C376.506,259.271,379.2,261.965,379.2,265.288z"/>
		</g>
		<g>
			<path style="fill:#D9E2F8;" d="M315.908,244.453c-1.236,0.349-3.754,2.592-4.536,3.918c-0.833,1.412-1.55,4.233-2.037,6.547
				l-0.003,0l-0.498,2.015c-0.267,0.008-0.429,0.027-0.429,0.027c-2.153,9.773-15.296,24.956-28.698,27.4
				c-5.541,1.011-9.829,1.365-12.234,1.49l-2.285-1.406c0.027-1.014,0.064-2.099,0.091-3.058c0.005-0.177,0.009-0.35,0.014-0.517
				c0.002-0.082,0.004-0.16,0.005-0.239c0.001-0.039,0.002-0.079,0.003-0.117c0.381-0.007,0.702-0.027,0.939-0.065
				c1.891-0.299,6.371-6.272,6.172-9.159c-0.119-1.728-2.307-6.987-4.045-10.931c0.208-0.208,0.417-0.431,0.625-0.685
				c2.176-2.661,2.694-5.513,1.444-8.975c-0.97-2.688-3.227-4.926-3.227-4.926c-4.586,3.622-7.44,2.815-14.209,4.462
				c-9.33,2.269-9.872,7.273-10.565,10.182c-1.12,4.704,1.701,11.825,6.449,14.31c3.817,1.998,5.521,3.644,6.892,6.319
				c-0.091,1.1-0.201,2.385-0.305,3.6c-0.818-0.037-1.52-0.101-2.003-0.201c0,0-0.133,1.134-0.203,2.272l-0.447,0.03
				c-11.012,3.33-7.503,12.45-5.466,35.945c0.659,7.607,0,29.757,0,29.757c0.905,0.255,1.851,0.445,2.825,0.582
				c0.695,2.887,1.679,6.998,2.709,11.405c0.463,1.981,0.935,4.019,1.395,6.034c5.267,5.95,10.972,11.502,17.068,16.605
				c0.015-0.152,0.024-0.279,0.024-0.363c0-0.141,0-0.295,0-0.441c0.322,0.558,0.651,1.099,0.978,1.644
				c5.636,4.64,11.601,8.895,17.849,12.733c0.222-6.815,0.358-11.701,0.358-11.701s-4.484-30.574-7.312-42.937
				c0.914-0.398,1.435-0.643,1.435-0.643c-0.401-2.594-0.945-6.515-1.53-10.89l15.353,9.956l16.762-30.452l-5.536-2.357
				c0.139-0.519-0.063-1.037-0.553-1.243l-0.605-0.254c-0.48-0.201-0.672-0.71-0.555-1.241c0.271-1.238-0.28-2.432-1.434-2.896
				c-1.14-0.458-2.52-0.062-3.428,0.88c-0.387,0.402-0.933,0.589-1.379,0.401l-0.557-0.234c-0.445-0.187-0.984-0.003-1.334,0.395
				l-4.668-1.988l-3.757,6.842c-3.253-0.621-7.682-1.657-11.572-3.211c-0.25-2.005-0.401-3.224-0.401-3.224
				c14.411-5.797,33.446-28.644,34.551-46.202c-0.051-0.112-0.111-0.21-0.168-0.313l0.472-2.406
				c-0.165-0.157-0.339-0.298-0.515-0.432c0.013-0.043,0.026-0.09,0.039-0.127c0.34-0.994,2.36-0.7,3.293-1.885
				c1.942-2.466,1.482-5.341,2.944-6.861C321.629,246.036,319.869,243.333,315.908,244.453z M304.762,307.835
				c0.209-0.38,0.672-0.569,1.034-0.419c0.364,0.15,0.49,0.583,0.279,0.966c-0.211,0.384-0.677,0.57-1.039,0.417
				C304.675,308.647,304.553,308.216,304.762,307.835z M287.284,319.888l-4.885,8.895c-0.423-3.236-0.844-6.515-1.23-9.548
				C283.212,319.484,285.3,319.702,287.284,319.888z"/>
			<g>
				<g>
					<path style="fill:#33426D;" d="M251.912,292.227c4.513,5.531,17.259,18.503,21.285,21.341
						c4.026,2.838,29.753,4.292,29.753,4.292l-2.021-7.681c0,0-24.042-2.894-24.915-11.691
						C274.958,287.846,252.796,288.142,251.912,292.227z"/>
				</g>
				<g>
					<g>
						<polygon style="fill:#8498CB;" points="303.294,341.568 285.081,329.758 300.007,302.579 320.056,311.116 						"/>
						<polygon style="fill:#F7FFFF;" points="302.403,337.965 287.928,328.838 300.784,305.432 316.493,312.359 						"/>
						<path style="fill:#CBCCCE;" d="M313.967,307.515l-0.605-0.254c-0.48-0.202-0.672-0.71-0.555-1.241
							c0.271-1.238-0.28-2.432-1.434-2.896c-1.14-0.458-2.52-0.062-3.428,0.88c-0.387,0.402-0.933,0.589-1.379,0.401l-0.557-0.234
							c-0.528-0.222-1.209,0.06-1.521,0.629l-1.327,2.415c-0.217,0.395-0.101,0.845,0.26,1.008l8.458,3.811
							c0.399,0.18,0.91-0.012,1.14-0.429l1.406-2.555C314.756,308.447,314.549,307.759,313.967,307.515z M309.826,305.935
							c-0.361-0.152-0.483-0.583-0.274-0.964c0.209-0.38,0.672-0.569,1.034-0.419c0.364,0.15,0.49,0.583,0.279,0.966
							C310.655,305.901,310.189,306.087,309.826,305.935z"/>
					</g>
					<g>
						<path style="fill:#42424D;" d="M305.451,316.222c-2.071-1.034-4.091-2.044-6.064-3.029c-0.444-0.222-0.777,0.357-0.332,0.582
							c1.969,0.992,3.986,2.009,6.052,3.05C305.585,317.066,305.933,316.463,305.451,316.222z"/>
						<path style="fill:#42424D;" d="M310.912,316.371c-0.638,0.279-2.873,1.408-3.36,1.677c-0.023-0.479-0.022-0.956,0.026-1.442
							c0.041-0.415-0.596-0.348-0.637,0.065c-0.065,0.645-0.067,1.275-0.007,1.912c0.018,0.184,0.189,0.378,0.4,0.277
							c0.608-0.29,3.086-1.583,3.749-1.872C311.483,316.813,311.313,316.195,310.912,316.371z"/>
					</g>
					<g>
						<path style="fill:#42424D;" d="M303.121,320.46c-2.042-1.085-4.035-2.145-5.98-3.179c-0.438-0.233-0.771,0.346-0.332,0.581
							c1.942,1.041,3.93,2.108,5.968,3.201C303.248,321.315,303.596,320.712,303.121,320.46z"/>
						<path style="fill:#42424D;" d="M308.521,320.717c-0.632,0.269-2.85,1.366-3.333,1.628c-0.02-0.484-0.016-0.967,0.034-1.457
							c0.043-0.419-0.587-0.363-0.63,0.053c-0.068,0.65-0.074,1.287-0.018,1.931c0.016,0.186,0.185,0.385,0.394,0.288
							c0.603-0.281,3.061-1.539,3.718-1.818C309.083,321.175,308.919,320.548,308.521,320.717z"/>
					</g>
					<g>
						<path style="fill:#42424D;" d="M300.791,324.696c-2.013-1.137-3.978-2.246-5.896-3.329c-0.432-0.244-0.764,0.334-0.332,0.581
							c1.914,1.09,3.875,2.207,5.884,3.35C300.913,325.563,301.26,324.961,300.791,324.696z"/>
						<path style="fill:#42424D;" d="M306.131,325.062c-0.627,0.259-2.826,1.324-3.306,1.579c-0.017-0.489-0.011-0.977,0.042-1.471
							c0.045-0.423-0.578-0.378-0.624,0.041c-0.071,0.655-0.08,1.299-0.029,1.951c0.015,0.188,0.18,0.393,0.388,0.298
							c0.598-0.272,3.036-1.495,3.688-1.764C306.684,325.535,306.525,324.899,306.131,325.062z"/>
					</g>
					<g>
						<path style="fill:#42424D;" d="M298.463,328.93c-1.984-1.188-3.921-2.347-5.812-3.479c-0.426-0.255-0.758,0.323-0.331,0.58
							c1.887,1.139,3.819,2.305,5.8,3.5C298.578,329.808,298.925,329.207,298.463,328.93z"/>
						<path style="fill:#42424D;" d="M303.742,329.405c-0.621,0.25-2.803,1.282-3.279,1.531c-0.014-0.495-0.005-0.987,0.05-1.486
							c0.047-0.426-0.57-0.393-0.617,0.029c-0.074,0.661-0.087,1.311-0.04,1.971c0.014,0.191,0.176,0.4,0.382,0.309
							c0.593-0.263,3.011-1.451,3.658-1.709C304.286,329.894,304.133,329.247,303.742,329.405z"/>
					</g>
				</g>
				<path style="fill:#4E347B;" d="M259.707,435.034c0,0-0.799,2.634-0.351,3.511c0.9,1.763,3.724,2.044,4.782,1.443
					c1.059-0.601,8.968-5.098,8.983-8.256c0.01-2.143-1.805-2.033-2.783-1.517c-0.977,0.516-6.353,3.18-7.253,2.845
					C262.186,432.724,259.707,435.034,259.707,435.034z"/>
				<path style="fill:#4E347B;" d="M286.525,437.039c0,0-2.028,2.597-1.945,3.767c0.167,2.352,3.04,3.872,4.433,3.654
					c1.393-0.218,11.807-1.854,13.237-5.371c0.97-2.386-1.007-3.039-2.276-2.882c-1.269,0.157-8.171,0.833-8.976,0.074
					C290.192,435.522,286.525,437.039,286.525,437.039z"/>
				<g>
					<g>
						
							<linearGradient id="SVGID_00000138537100716075499910000015698798699652761503_" gradientUnits="userSpaceOnUse" x1="253.9638" y1="389.2954" x2="276.163" y2="389.2954">
							<stop  offset="0" style="stop-color:#432061"/>
							<stop  offset="1" style="stop-color:#6D4FB2"/>
						</linearGradient>
						<path style="fill:url(#SVGID_00000138537100716075499910000015698798699652761503_);" d="M253.964,346.025
							c0,0,8.071,33.002,8.601,38.705c1.172,12.63-2.306,49.878-2.306,49.878s5.507,2.954,6.046,0.518
							c2.153-9.731,9.858-48.581,9.859-51.281c0.003-11.973-0.528-41.343-0.528-41.343S258.436,342.505,253.964,346.025z"/>
					</g>
					<g style="opacity:0.3;">
						<path style="fill:#2B3D67;" d="M261.256,435.089c-0.194-0.631-0.275-1.299-0.203-1.988
							c1.389-13.295,3.382-26.667,7.841-39.237c0.887-3.374,3.419-8.61,3.767-12.093c0.388-3.885-0.136-21.58,1.36-21.863
							c-0.066-13.254,1.613-17.406,1.613-17.406s-17.199,0.004-21.671,3.523c0,0,8.071,33.002,8.601,38.705
							c1.172,12.63-2.306,49.878-2.306,49.878S260.663,434.824,261.256,435.089z"/>
					</g>
				</g>
				<path style="fill:#FFE2E6;" d="M270.035,275.792c0.252,0.16-0.299,8.661,0,9.258c0.299,0.597-10.154,1.095-10.154,1.095
					s0.896-10.154,0.896-10.752C260.777,274.796,268.94,275.095,270.035,275.792z"/>
				<path style="opacity:0.8;fill:#FFE2E6;" d="M270.066,278.656c0.044-1.559,0.064-2.804-0.031-2.864
					c-1.095-0.697-9.258-0.996-9.258-0.398c0,0.597-0.896,10.752-0.896,10.752s0.44-0.021,1.131-0.059
					C262.481,282.07,265.678,278.792,270.066,278.656z"/>
				<path style="fill:#FFE2E6;" d="M271.03,252.796c0,0,5.973,12.742,6.172,15.63c0.199,2.887-4.281,8.86-6.172,9.159
					c-1.891,0.299-9.15-0.489-9.15-0.489s-5.285-2.697-6.679-8.172C253.808,263.448,260.578,249.909,271.03,252.796z"/>
				
					<linearGradient id="SVGID_00000176007140070688588370000007928654845735506587_" gradientUnits="userSpaceOnUse" x1="246.9807" y1="260.5449" x2="275.8944" y2="260.5449">
					<stop  offset="0" style="stop-color:#5157CC"/>
					<stop  offset="0.1593" style="stop-color:#6365D7"/>
					<stop  offset="0.5149" style="stop-color:#8581ED"/>
					<stop  offset="0.8079" style="stop-color:#9A93FA"/>
					<stop  offset="1" style="stop-color:#A299FF"/>
				</linearGradient>
				<path style="fill:url(#SVGID_00000176007140070688588370000007928654845735506587_);" d="M271.999,242.909
					c0,0,2.257,2.238,3.227,4.926c1.25,3.461,0.732,6.313-1.444,8.974c-2.633,3.22-5.263,2.561-8.645,2.718
					c-2.054,0.095-2.692,2.307-1.52,5.182c0.722,1.771-1.26,3.15-1.26,3.15s-1.805-3.316-3.298-1.674
					c-1.493,1.643-0.299,6.57,2.315,5.824c0,0,0.197,3.883-0.807,6.172c-1.37-2.675-3.074-4.322-6.892-6.319
					c-4.749-2.485-7.569-9.606-6.449-14.31c0.693-2.909,1.235-7.913,10.565-10.182C264.559,245.724,267.413,246.531,271.999,242.909
					z"/>
				<g>
					
						<linearGradient id="SVGID_00000057113491128201285900000011410227077116242094_" gradientUnits="userSpaceOnUse" x1="259.2196" y1="388.0468" x2="295.3474" y2="388.0468">
						<stop  offset="0" style="stop-color:#432061"/>
						<stop  offset="1" style="stop-color:#6D4FB2"/>
					</linearGradient>
					<path style="fill:url(#SVGID_00000057113491128201285900000011410227077116242094_);" d="M259.22,343.994
						c0,0,8.788,27.417,19.977,44.341c3.86,5.839,7.288,49.542,7.288,49.542s4.859,2.354,6.519,0.229
						c1.139-8.506,2.343-52.024,2.343-52.024s-6.654-45.374-8.862-47.925C284.276,335.606,263.637,337.716,259.22,343.994z"/>
				</g>
				<path style="fill:#FCFCFC;" d="M258.258,281.579c0,0-0.552,4.714,0,4.566c0.552-0.148,12.92,0,12.92,0l1.086-3.16l-2.285-1.406
					C269.978,281.579,260.908,282.132,258.258,281.579z"/>
				<g>
					<path style="fill:#FFE2E6;" d="M313.455,255.664c0,0,1.157-7.528,2.707-10.157c0.782-1.327,3.3-3.569,4.536-3.918
						c3.961-1.12,5.721,1.583,4.193,3.171c-1.463,1.52-1.003,4.396-2.945,6.861c-0.933,1.185-2.953,0.891-3.293,1.885
						c-0.339,0.994-0.856,4.503-0.856,4.503S314.137,254.895,313.455,255.664z"/>
					<path style="fill:#FCFCFC;" d="M313.195,255.802l0.927-3.749c0,0,2.993,0.094,5.008,2.011l-0.828,4.222L313.195,255.802z"/>
					<g>
						
							<linearGradient id="SVGID_00000119834775670155483950000005171731476217818007_" gradientUnits="userSpaceOnUse" x1="249.9534" y1="302.2493" x2="318.8268" y2="302.2493">
							<stop  offset="0" style="stop-color:#7035A0"/>
							<stop  offset="1" style="stop-color:#936BF2"/>
						</linearGradient>
						<path style="fill:url(#SVGID_00000119834775670155483950000005171731476217818007_);" d="M257.608,283.881l12.499-0.828
							c0,0,5.643,0.038,14.391-1.558c13.402-2.445,26.544-17.627,28.698-27.4c0,0,4.196-0.514,5.632,2.688
							c-1.104,17.558-20.139,40.405-34.55,46.203c0,0,3.651,29.538,5.194,39.516c0,0-23.333,11.022-37.329,7.081
							c0,0,0.659-22.15,0-29.757C250.105,296.331,246.596,287.211,257.608,283.881z"/>
						<path style="opacity:0.3;fill:#33426D;" d="M278.356,303.113c-11.342,3.225-20.789,1.667-21.126,1.647
							c-0.271,2.858-4.125,28.753-4.374,28.852c-0.122,8.003-0.714,15.97-0.714,15.97c2.257,0.497,7.129,1.357,11.345,0.597
							c1.24-28.671,10.12-37.003,18.731-47.833C281.214,302.303,279.358,303.228,278.356,303.113z"/>
					</g>
				</g>
			</g>
		</g>
		<g>
			<path style="fill:#D9E2F8;" d="M531.173,280.89c-2.091,1.849-3.441,4.954-3.444,8.545H518c-0.005-5.804-3.523-10.35-8.015-10.35
				c-4.492,0-8.011,4.546-8.016,10.35h-9.728c-0.005-5.804-3.523-10.35-8.015-10.35c-4.492,0-8.011,4.546-8.016,10.35h-9.728
				c-0.005-5.804-3.523-10.35-8.015-10.35c-4.492,0-8.011,4.546-8.016,10.35h-7.089c-4.874,0-8.825,3.951-8.825,8.825v20.638v92.847
				C487.181,389.666,525.403,340.035,531.173,280.89z M509.986,283.002c2.219,0,4.094,2.945,4.099,6.434h-8.198
				C505.891,285.946,507.766,283.002,509.986,283.002z M484.227,283.002c2.219,0,4.094,2.945,4.098,6.434h-8.198
				C480.132,285.946,482.008,283.002,484.227,283.002z M458.468,283.002c2.219,0,4.094,2.945,4.099,6.434h-8.198
				C454.373,285.946,456.249,283.002,458.468,283.002z"/>
			<g>
				<g>
					
						<linearGradient id="SVGID_00000018929166770591933450000003693238451237077122_" gradientUnits="userSpaceOnUse" x1="456.6843" y1="448.9609" x2="603.2029" y2="302.4423">
						<stop  offset="0" style="stop-color:#4E8AF3"/>
						<stop  offset="0.1126" style="stop-color:#5A93F5"/>
						<stop  offset="0.488" style="stop-color:#7CACFA"/>
						<stop  offset="0.7972" style="stop-color:#91BCFE"/>
						<stop  offset="1" style="stop-color:#99C2FF"/>
					</linearGradient>
					
						<rect x="441.618" y="317.509" style="fill:url(#SVGID_00000018929166770591933450000003693238451237077122_);" width="176.652" height="116.385"/>
					
						<linearGradient id="SVGID_00000030458049118430809190000007689119040292056219_" gradientUnits="userSpaceOnUse" x1="529.9436" y1="317.509" x2="529.9436" y2="288.0453">
						<stop  offset="0" style="stop-color:#7035A0"/>
						<stop  offset="1" style="stop-color:#936BF2"/>
					</linearGradient>
					<path style="fill:url(#SVGID_00000030458049118430809190000007689119040292056219_);" d="M618.27,317.509H441.618V296.87
						c0-4.874,3.951-8.825,8.825-8.825h159.002c4.874,0,8.825,3.951,8.825,8.825V317.509z"/>
					<g>
						<g>
							<circle style="fill:#DBA1ED;" cx="465.547" cy="296.461" r="3.8"/>
							
								<linearGradient id="SVGID_00000162334862655551971070000007514465500155277482_" gradientUnits="userSpaceOnUse" x1="465.5468" y1="298.4196" x2="465.5468" y2="277.6954">
								<stop  offset="0" style="stop-color:#60238F"/>
								<stop  offset="0.134" style="stop-color:#662A94"/>
								<stop  offset="0.3227" style="stop-color:#793CA3"/>
								<stop  offset="0.5439" style="stop-color:#965ABB"/>
								<stop  offset="0.7877" style="stop-color:#BF84DD"/>
								<stop  offset="1" style="stop-color:#E9AEFF"/>
							</linearGradient>
							<path style="fill:url(#SVGID_00000162334862655551971070000007514465500155277482_);" d="M465.547,277.695
								c-4.495,0-8.016,4.552-8.016,10.362c0,5.81,3.521,10.361,8.015,10.362h0.001h0h0l0,0c1.081,0,1.958-0.877,1.958-1.958
								c0-1.081-0.877-1.958-1.958-1.958v0c-2.222,0-4.1-2.952-4.1-6.446s1.878-6.446,4.1-6.446c2.222,0,4.099,2.952,4.099,6.446
								h3.916C473.563,282.247,470.042,277.695,465.547,277.695z"/>
						</g>
						<g>
							<path style="fill:#DBA1ED;" d="M495.106,296.461c0,2.099-1.701,3.8-3.8,3.8c-2.099,0-3.8-1.702-3.8-3.8
								c0-2.099,1.701-3.8,3.8-3.8C493.404,292.661,495.106,294.363,495.106,296.461z"/>
							
								<linearGradient id="SVGID_00000056405492980991323910000002791025939967889854_" gradientUnits="userSpaceOnUse" x1="491.3055" y1="298.4196" x2="491.3055" y2="277.6954">
								<stop  offset="0" style="stop-color:#60238F"/>
								<stop  offset="0.134" style="stop-color:#662A94"/>
								<stop  offset="0.3227" style="stop-color:#793CA3"/>
								<stop  offset="0.5439" style="stop-color:#965ABB"/>
								<stop  offset="0.7877" style="stop-color:#BF84DD"/>
								<stop  offset="1" style="stop-color:#E9AEFF"/>
							</linearGradient>
							<path style="fill:url(#SVGID_00000056405492980991323910000002791025939967889854_);" d="M491.306,277.695
								c-4.495,0-8.016,4.552-8.016,10.362c0,5.81,3.521,10.361,8.015,10.362h0.001h0h0l0,0c1.081,0,1.958-0.877,1.958-1.958
								c0-1.081-0.876-1.958-1.958-1.958v0c-2.222,0-4.1-2.952-4.1-6.446s1.878-6.446,4.1-6.446c2.222,0,4.099,2.952,4.099,6.446
								h3.916C499.321,282.247,495.801,277.695,491.306,277.695z"/>
						</g>
						<g>
							<path style="fill:#DBA1ED;" d="M520.865,296.461c0,2.099-1.701,3.8-3.8,3.8c-2.099,0-3.8-1.702-3.8-3.8
								c0-2.099,1.701-3.8,3.8-3.8C519.163,292.661,520.865,294.363,520.865,296.461z"/>
							
								<linearGradient id="SVGID_00000050629621057329649090000015877125283794418367_" gradientUnits="userSpaceOnUse" x1="517.0643" y1="298.4196" x2="517.0643" y2="277.6954">
								<stop  offset="0" style="stop-color:#60238F"/>
								<stop  offset="0.134" style="stop-color:#662A94"/>
								<stop  offset="0.3227" style="stop-color:#793CA3"/>
								<stop  offset="0.5439" style="stop-color:#965ABB"/>
								<stop  offset="0.7877" style="stop-color:#BF84DD"/>
								<stop  offset="1" style="stop-color:#E9AEFF"/>
							</linearGradient>
							<path style="fill:url(#SVGID_00000050629621057329649090000015877125283794418367_);" d="M517.065,277.695
								c-4.495,0-8.016,4.552-8.016,10.362c0,5.81,3.521,10.361,8.015,10.362h0.001h0h0l0,0c1.081,0,1.958-0.877,1.958-1.958
								c0-1.081-0.877-1.958-1.958-1.958v0c-2.222,0-4.1-2.952-4.1-6.446s1.878-6.446,4.1-6.446c2.222,0,4.099,2.952,4.099,6.446
								h3.916C525.08,282.247,521.56,277.695,517.065,277.695z"/>
						</g>
						<g>
							<path style="fill:#DBA1ED;" d="M546.623,296.461c0,2.099-1.701,3.8-3.8,3.8c-2.099,0-3.8-1.702-3.8-3.8
								c0-2.099,1.701-3.8,3.8-3.8C544.922,292.661,546.623,294.363,546.623,296.461z"/>
							
								<linearGradient id="SVGID_00000153669341044727200980000001742852100694469002_" gradientUnits="userSpaceOnUse" x1="542.8229" y1="298.4196" x2="542.8229" y2="277.6954">
								<stop  offset="0" style="stop-color:#60238F"/>
								<stop  offset="0.134" style="stop-color:#662A94"/>
								<stop  offset="0.3227" style="stop-color:#793CA3"/>
								<stop  offset="0.5439" style="stop-color:#965ABB"/>
								<stop  offset="0.7877" style="stop-color:#BF84DD"/>
								<stop  offset="1" style="stop-color:#E9AEFF"/>
							</linearGradient>
							<path style="fill:url(#SVGID_00000153669341044727200980000001742852100694469002_);" d="M542.823,277.695
								c-4.495,0-8.016,4.552-8.016,10.362c0,5.81,3.521,10.361,8.015,10.362h0.001h0h0l0,0c1.081,0,1.958-0.877,1.958-1.958
								c0-1.081-0.876-1.958-1.958-1.958v0c-2.222,0-4.1-2.952-4.1-6.446s1.878-6.446,4.1-6.446c2.222,0,4.099,2.952,4.099,6.446
								h3.916C550.839,282.247,547.318,277.695,542.823,277.695z"/>
						</g>
						<g>
							<path style="fill:#DBA1ED;" d="M572.382,296.461c0,2.099-1.701,3.8-3.8,3.8c-2.099,0-3.8-1.702-3.8-3.8
								c0-2.099,1.701-3.8,3.8-3.8C570.68,292.661,572.382,294.363,572.382,296.461z"/>
							
								<linearGradient id="SVGID_00000132075865122613961780000016646542981886796216_" gradientUnits="userSpaceOnUse" x1="568.5817" y1="298.4196" x2="568.5817" y2="277.6954">
								<stop  offset="0" style="stop-color:#60238F"/>
								<stop  offset="0.134" style="stop-color:#662A94"/>
								<stop  offset="0.3227" style="stop-color:#793CA3"/>
								<stop  offset="0.5439" style="stop-color:#965ABB"/>
								<stop  offset="0.7877" style="stop-color:#BF84DD"/>
								<stop  offset="1" style="stop-color:#E9AEFF"/>
							</linearGradient>
							<path style="fill:url(#SVGID_00000132075865122613961780000016646542981886796216_);" d="M568.582,277.695
								c-4.495,0-8.016,4.552-8.016,10.362c0,5.81,3.521,10.361,8.015,10.362h0.001h0h0l0,0c1.081,0,1.958-0.877,1.958-1.958
								c0-1.081-0.877-1.958-1.958-1.958v0c-2.222,0-4.1-2.952-4.1-6.446s1.878-6.446,4.1-6.446c2.222,0,4.099,2.952,4.099,6.446
								h3.916C576.597,282.247,573.077,277.695,568.582,277.695z"/>
						</g>
						<g>
							<path style="fill:#DBA1ED;" d="M598.141,296.461c0,2.099-1.701,3.8-3.8,3.8c-2.099,0-3.8-1.702-3.8-3.8
								c0-2.099,1.701-3.8,3.8-3.8C596.439,292.661,598.141,294.363,598.141,296.461z"/>
							
								<linearGradient id="SVGID_00000053513114518665530220000000061285333624325267_" gradientUnits="userSpaceOnUse" x1="594.3403" y1="298.4196" x2="594.3403" y2="277.6954">
								<stop  offset="0" style="stop-color:#60238F"/>
								<stop  offset="0.134" style="stop-color:#662A94"/>
								<stop  offset="0.3227" style="stop-color:#793CA3"/>
								<stop  offset="0.5439" style="stop-color:#965ABB"/>
								<stop  offset="0.7877" style="stop-color:#BF84DD"/>
								<stop  offset="1" style="stop-color:#E9AEFF"/>
							</linearGradient>
							<path style="fill:url(#SVGID_00000053513114518665530220000000061285333624325267_);" d="M594.341,277.695
								c-4.495,0-8.016,4.552-8.016,10.362c0,5.81,3.521,10.361,8.015,10.362h0.001h0h0l0,0c1.081,0,1.958-0.877,1.958-1.958
								c0-1.081-0.876-1.958-1.958-1.958v0c-2.222,0-4.1-2.952-4.1-6.446s1.878-6.446,4.1-6.446c2.222,0,4.099,2.952,4.099,6.446
								h3.916C602.356,282.247,598.836,277.695,594.341,277.695z"/>
						</g>
					</g>
				</g>
				<path style="opacity:0.68;fill:#EEFFFF;" d="M488.599,353.906h-27.743c-1.03,0-1.868-0.839-1.868-1.868v-23.503
					c0-1.03,0.839-1.868,1.868-1.868h27.743c1.03,0,1.868,0.839,1.868,1.868v23.503
					C490.467,353.067,489.629,353.906,488.599,353.906z M460.856,327.731c-0.443,0-0.803,0.36-0.803,0.803v23.503
					c0,0.443,0.36,0.803,0.803,0.803h27.743c0.443,0,0.803-0.36,0.803-0.803v-23.503c0-0.443-0.36-0.803-0.803-0.803H460.856z
					 M525.41,353.906h-27.743c-1.03,0-1.868-0.839-1.868-1.868v-23.503c0-1.03,0.839-1.868,1.868-1.868h27.743
					c1.03,0,1.867,0.839,1.867,1.868v23.503C527.278,353.067,526.44,353.906,525.41,353.906z M497.667,327.731
					c-0.443,0-0.803,0.36-0.803,0.803v23.503c0,0.443,0.36,0.803,0.803,0.803h27.743c0.442,0,0.802-0.36,0.802-0.803v-23.503
					c0-0.443-0.36-0.803-0.802-0.803H497.667z M562.22,353.906h-27.742c-1.03,0-1.869-0.839-1.869-1.868v-23.503
					c0-1.03,0.839-1.868,1.869-1.868h27.742c1.03,0,1.869,0.839,1.869,1.868v23.503C564.089,353.067,563.25,353.906,562.22,353.906z
					 M534.478,327.731c-0.443,0-0.803,0.36-0.803,0.803v23.503c0,0.443,0.36,0.803,0.803,0.803h27.742
					c0.443,0,0.803-0.36,0.803-0.803v-23.503c0-0.443-0.36-0.803-0.803-0.803H534.478z M599.031,353.906h-27.743
					c-1.03,0-1.867-0.839-1.867-1.868v-23.503c0-1.03,0.837-1.868,1.867-1.868h27.743c1.03,0,1.869,0.839,1.869,1.868v23.503
					C600.9,353.067,600.061,353.906,599.031,353.906z M571.288,327.731c-0.442,0-0.802,0.36-0.802,0.803v23.503
					c0,0.443,0.36,0.803,0.802,0.803h27.743c0.443,0,0.803-0.36,0.803-0.803v-23.503c0-0.443-0.36-0.803-0.803-0.803H571.288z
					 M488.599,386.424h-27.743c-1.03,0-1.868-0.839-1.868-1.868v-23.503c0-1.03,0.839-1.868,1.868-1.868h27.743
					c1.03,0,1.868,0.839,1.868,1.868v23.503C490.467,385.586,489.629,386.424,488.599,386.424z M460.856,360.25
					c-0.443,0-0.803,0.36-0.803,0.803v23.503c0,0.443,0.36,0.803,0.803,0.803h27.743c0.443,0,0.803-0.36,0.803-0.803v-23.503
					c0-0.443-0.36-0.803-0.803-0.803H460.856z M525.41,386.424h-27.743c-1.03,0-1.868-0.839-1.868-1.868v-23.503
					c0-1.03,0.839-1.868,1.868-1.868h27.743c1.03,0,1.867,0.839,1.867,1.868v23.503C527.278,385.586,526.44,386.424,525.41,386.424z
					 M497.667,360.25c-0.443,0-0.803,0.36-0.803,0.803v23.503c0,0.443,0.36,0.803,0.803,0.803h27.743
					c0.442,0,0.802-0.36,0.802-0.803v-23.503c0-0.443-0.36-0.803-0.802-0.803H497.667z M562.22,386.424h-27.742
					c-1.03,0-1.869-0.839-1.869-1.868v-23.503c0-1.03,0.839-1.868,1.869-1.868h27.742c1.03,0,1.869,0.839,1.869,1.868v23.503
					C564.089,385.586,563.25,386.424,562.22,386.424z M534.478,360.25c-0.443,0-0.803,0.36-0.803,0.803v23.503
					c0,0.443,0.36,0.803,0.803,0.803h27.742c0.443,0,0.803-0.36,0.803-0.803v-23.503c0-0.443-0.36-0.803-0.803-0.803H534.478z
					 M599.031,386.424h-27.743c-1.03,0-1.867-0.839-1.867-1.868v-23.503c0-1.03,0.837-1.868,1.867-1.868h27.743
					c1.03,0,1.869,0.839,1.869,1.868v23.503C600.9,385.586,600.061,386.424,599.031,386.424z M571.288,360.25
					c-0.442,0-0.802,0.36-0.802,0.803v23.503c0,0.443,0.36,0.803,0.802,0.803h27.743c0.443,0,0.803-0.36,0.803-0.803v-23.503
					c0-0.443-0.36-0.803-0.803-0.803H571.288z M488.599,418.943h-27.743c-1.03,0-1.868-0.839-1.868-1.869v-23.503
					c0-1.03,0.839-1.867,1.868-1.867h27.743c1.03,0,1.868,0.837,1.868,1.867v23.503
					C490.467,418.105,489.629,418.943,488.599,418.943z M460.856,392.77c-0.443,0-0.803,0.36-0.803,0.802v23.503
					c0,0.443,0.36,0.803,0.803,0.803h27.743c0.443,0,0.803-0.36,0.803-0.803v-23.503c0-0.442-0.36-0.802-0.803-0.802H460.856z
					 M525.41,418.943h-27.743c-1.03,0-1.868-0.839-1.868-1.869v-23.503c0-1.03,0.839-1.867,1.868-1.867h27.743
					c1.03,0,1.867,0.837,1.867,1.867v23.503C527.278,418.105,526.44,418.943,525.41,418.943z M497.667,392.77
					c-0.443,0-0.803,0.36-0.803,0.802v23.503c0,0.443,0.36,0.803,0.803,0.803h27.743c0.442,0,0.802-0.36,0.802-0.803v-23.503
					c0-0.442-0.36-0.802-0.802-0.802H497.667z M562.22,418.943h-27.742c-1.03,0-1.869-0.839-1.869-1.869v-23.503
					c0-1.03,0.839-1.867,1.869-1.867h27.742c1.03,0,1.869,0.837,1.869,1.867v23.503C564.089,418.105,563.25,418.943,562.22,418.943z
					 M534.478,392.77c-0.443,0-0.803,0.36-0.803,0.802v23.503c0,0.443,0.36,0.803,0.803,0.803h27.742
					c0.443,0,0.803-0.36,0.803-0.803v-23.503c0-0.442-0.36-0.802-0.803-0.802H534.478z M599.031,418.943h-27.743
					c-1.03,0-1.867-0.839-1.867-1.869v-23.503c0-1.03,0.837-1.867,1.867-1.867h27.743c1.03,0,1.869,0.837,1.869,1.867v23.503
					C600.9,418.105,600.061,418.943,599.031,418.943z M571.288,392.77c-0.442,0-0.802,0.36-0.802,0.802v23.503
					c0,0.443,0.36,0.803,0.802,0.803h27.743c0.443,0,0.803-0.36,0.803-0.803v-23.503c0-0.442-0.36-0.802-0.803-0.802H571.288z"/>
				<g>
					<path style="fill:#D6FFFF;" d="M465.924,337.5c0,0,3.196-3.067,5.745-2.592c0.849,0.158,3.542,5.224,3.542,5.224
						s7.429-13.622,15.636-15.334c-5.14,3.456-13.001,16.111-15.723,22.72C474.792,348.326,468.861,338.623,465.924,337.5z"/>
					<path style="fill:#D6FFFF;" d="M575.518,337.821c0,0,3.196-3.067,5.745-2.592c0.849,0.158,3.542,5.224,3.542,5.224
						s7.429-13.622,15.636-15.334c-5.14,3.456-13.001,16.111-15.722,22.72C584.386,348.647,578.456,338.944,575.518,337.821z"/>
					<path style="fill:#D6FFFF;" d="M501.655,402.191c0,0,3.196-3.067,5.745-2.592c0.849,0.158,3.542,5.224,3.542,5.224
						s7.429-13.622,15.636-15.334c-5.14,3.456-13.001,16.111-15.723,22.72C510.522,413.017,504.592,403.314,501.655,402.191z"/>
					<g>
						<path style="fill:#D6FFFF;" d="M502.205,336.503c5.917-0.448,11.831-0.576,17.743-0.383c0.761,0.025,0.803-2.427,0.042-2.452
							c-5.912-0.193-11.826-0.065-17.743,0.383C501.488,334.108,501.442,336.56,502.205,336.503z"/>
						<path style="fill:#D6FFFF;" d="M519.895,339.236c-5.912-0.193-11.826-0.065-17.743,0.383
							c-0.759,0.057-0.805,2.509-0.042,2.452c5.918-0.448,11.831-0.576,17.743-0.383
							C520.614,341.712,520.656,339.26,519.895,339.236z"/>
						<path style="fill:#D6FFFF;" d="M516.284,344.737c-4.727-0.173-9.457-0.025-14.191,0.444c-0.607,0.06-0.653,2.512-0.042,2.452
							c4.734-0.469,9.464-0.616,14.191-0.444C516.85,347.211,516.893,344.759,516.284,344.737z"/>
					</g>
					<g>
						<path style="fill:#D6FFFF;" d="M576.164,367.973c5.917-0.448,11.831-0.576,17.743-0.383c0.761,0.025,0.803-2.427,0.042-2.452
							c-5.912-0.193-11.826-0.065-17.743,0.383C575.447,365.579,575.401,368.031,576.164,367.973z"/>
						<path style="fill:#D6FFFF;" d="M593.854,370.706c-5.912-0.193-11.826-0.065-17.743,0.383
							c-0.759,0.057-0.805,2.509-0.042,2.452c5.918-0.449,11.831-0.576,17.743-0.383
							C594.573,373.183,594.615,370.731,593.854,370.706z"/>
						<path style="fill:#D6FFFF;" d="M590.243,376.208c-4.727-0.173-9.457-0.025-14.191,0.444c-0.607,0.06-0.653,2.512-0.042,2.452
							c4.734-0.469,9.464-0.617,14.191-0.444C590.81,378.682,590.852,376.23,590.243,376.208z"/>
					</g>
					<g>
						<path style="fill:#D6FFFF;" d="M576.212,400.671c5.917-0.448,11.831-0.576,17.743-0.383c0.761,0.025,0.803-2.427,0.042-2.452
							c-5.912-0.193-11.826-0.065-17.743,0.383C575.495,398.277,575.449,400.729,576.212,400.671z"/>
						<path style="fill:#D6FFFF;" d="M593.902,403.404c-5.912-0.193-11.826-0.065-17.743,0.383
							c-0.759,0.057-0.805,2.509-0.042,2.452c5.917-0.448,11.831-0.576,17.743-0.383
							C594.621,405.881,594.663,403.429,593.902,403.404z"/>
						<path style="fill:#D6FFFF;" d="M590.291,408.906c-4.727-0.172-9.457-0.025-14.191,0.444c-0.607,0.06-0.653,2.512-0.042,2.452
							c4.734-0.469,9.464-0.617,14.191-0.444C590.857,411.38,590.9,408.928,590.291,408.906z"/>
					</g>
					<g>
						<path style="fill:#D6FFFF;" d="M540.578,367.971c5.917-0.448,11.831-0.576,17.743-0.383c0.761,0.025,0.803-2.427,0.042-2.452
							c-5.912-0.193-11.826-0.065-17.743,0.383C539.861,365.576,539.815,368.028,540.578,367.971z"/>
						<path style="fill:#D6FFFF;" d="M558.268,370.704c-5.912-0.193-11.826-0.065-17.743,0.383
							c-0.759,0.057-0.805,2.509-0.042,2.452c5.918-0.448,11.831-0.576,17.743-0.383
							C558.987,373.18,559.029,370.728,558.268,370.704z"/>
						<path style="fill:#D6FFFF;" d="M554.657,376.205c-4.727-0.172-9.457-0.025-14.191,0.444c-0.607,0.06-0.653,2.512-0.042,2.452
							c4.734-0.469,9.464-0.617,14.191-0.444C555.223,378.679,555.266,376.227,554.657,376.205z"/>
					</g>
					<g>
						<path style="fill:#D6FFFF;" d="M465.423,400.669c5.917-0.448,11.831-0.576,17.743-0.383c0.761,0.025,0.803-2.427,0.042-2.452
							c-5.912-0.193-11.826-0.065-17.743,0.383C464.707,398.275,464.66,400.727,465.423,400.669z"/>
						<path style="fill:#D6FFFF;" d="M483.113,403.402c-5.912-0.193-11.826-0.065-17.743,0.383
							c-0.759,0.057-0.805,2.509-0.042,2.452c5.917-0.449,11.831-0.576,17.743-0.383
							C483.832,405.878,483.875,403.427,483.113,403.402z"/>
						<path style="fill:#D6FFFF;" d="M479.502,408.903c-4.727-0.173-9.457-0.025-14.191,0.444c-0.607,0.06-0.653,2.512-0.042,2.452
							c4.734-0.469,9.464-0.616,14.191-0.444C480.069,411.377,480.111,408.925,479.502,408.903z"/>
					</g>
				</g>
			</g>
		</g>
		<g>
			<path style="fill:#D9E2F8;" d="M524.413,216.892c-4.047,1.987-8.598,3.107-13.411,3.107c-16.831,0-30.475-13.644-30.475-30.475
				c0-10.982,5.811-20.604,14.524-25.967c-7.022-8.402-14.893-16.07-23.486-22.865l0.414,3.725c0.184,1.653-0.398,3.297-1.575,4.472
				c-0.012,0.012-0.025,0.025-0.037,0.037c-1.176,1.177-2.819,1.758-4.472,1.575l-5.467-0.608c-2.03-0.226-4.026,0.691-5.161,2.389
				c-1.62,2.422-3.085,4.956-4.384,7.587c-0.905,1.834-0.703,4.024,0.509,5.671l3.256,4.425c0.983,1.336,1.302,3.044,0.876,4.647
				c-0.005,0.02-0.01,0.04-0.016,0.061c-0.427,1.613-1.561,2.944-3.089,3.613l-5.024,2.201c-1.857,0.813-3.13,2.584-3.268,4.606
				c-0.1,1.464-0.154,2.941-0.154,4.432c0,1.49,0.054,2.967,0.154,4.432c0.138,2.022,1.411,3.793,3.268,4.606l5.024,2.201
				c1.528,0.669,2.662,2.001,3.089,3.613c0.005,0.02,0.011,0.041,0.016,0.061c0.427,1.603,0.108,3.311-0.876,4.647l-3.256,4.425
				c-1.212,1.647-1.414,3.837-0.509,5.671c1.299,2.631,2.764,5.165,4.384,7.587c1.135,1.698,3.131,2.615,5.161,2.389l5.467-0.608
				c1.653-0.184,3.296,0.398,4.472,1.575c0.012,0.012,0.025,0.025,0.037,0.037c1.177,1.176,1.759,2.819,1.575,4.472l-0.608,5.466
				c-0.226,2.03,0.691,4.026,2.389,5.161c2.422,1.62,4.956,3.085,7.588,4.383c1.834,0.905,4.023,0.703,5.671-0.509l4.425-3.256
				c1.336-0.983,3.044-1.302,4.647-0.876c0.02,0.005,0.041,0.011,0.061,0.016c1.613,0.427,2.944,1.561,3.613,3.089l2.201,5.024
				c0.813,1.857,2.583,3.13,4.606,3.269c1.465,0.1,2.941,0.154,4.432,0.154c1.49,0,2.967-0.054,4.431-0.154
				c2.022-0.138,3.793-1.412,4.606-3.268l2.201-5.024c0.669-1.528,2.001-2.662,3.613-3.089c0.02-0.005,0.041-0.011,0.061-0.016
				c1.603-0.426,3.31-0.107,4.647,0.876l0.21,0.154C529.558,236,527.408,226.258,524.413,216.892z"/>
			<g>
				
					<linearGradient id="SVGID_00000000919880633353375580000005439508756364285868_" gradientUnits="userSpaceOnUse" x1="468.9663" y1="230.7527" x2="562.0897" y2="137.6293">
					<stop  offset="0" style="stop-color:#7035A0"/>
					<stop  offset="1" style="stop-color:#936BF2"/>
				</linearGradient>
				<path style="fill:url(#SVGID_00000000919880633353375580000005439508756364285868_);" d="M582.403,179.76
					c-0.138-2.022-1.412-3.793-3.268-4.606l-5.024-2.2c-1.528-0.669-2.662-2.001-3.089-3.613c-0.005-0.02-0.011-0.041-0.016-0.061
					c-0.426-1.603-0.108-3.311,0.876-4.647l3.256-4.425c1.212-1.647,1.414-3.837,0.509-5.671c-1.299-2.631-2.763-5.165-4.383-7.588
					c-1.135-1.698-3.131-2.615-5.161-2.389l-5.467,0.608c-1.653,0.184-3.296-0.398-4.472-1.575
					c-0.012-0.012-0.025-0.025-0.037-0.037c-1.177-1.176-1.758-2.819-1.574-4.472l0.608-5.466c0.226-2.03-0.691-4.026-2.389-5.161
					c-2.422-1.62-4.956-3.085-7.588-4.383c-1.834-0.905-4.024-0.703-5.671,0.509l-4.424,3.256c-1.336,0.983-3.044,1.302-4.647,0.876
					c-0.02-0.006-0.041-0.011-0.061-0.016c-1.613-0.427-2.944-1.561-3.613-3.089l-2.201-5.024c-0.813-1.857-2.584-3.13-4.606-3.268
					c-1.464-0.1-2.941-0.154-4.431-0.154c-1.49,0-2.967,0.054-4.432,0.154c-2.023,0.138-3.793,1.412-4.606,3.269l-2.2,5.024
					c-0.669,1.528-2.001,2.662-3.613,3.089c-0.02,0.005-0.04,0.011-0.061,0.016c-1.603,0.426-3.311,0.108-4.647-0.876l-4.424-3.256
					c-1.647-1.212-3.837-1.414-5.671-0.509c-2.631,1.299-5.165,2.763-7.587,4.383c-1.698,1.135-2.615,3.131-2.389,5.161l0.608,5.466
					c0.184,1.653-0.398,3.296-1.575,4.472c-0.012,0.012-0.025,0.025-0.037,0.037c-1.176,1.177-2.819,1.759-4.472,1.575l-5.467-0.608
					c-2.03-0.226-4.026,0.691-5.161,2.389c-1.62,2.422-3.085,4.956-4.384,7.587c-0.905,1.834-0.703,4.024,0.509,5.671l3.256,4.425
					c0.983,1.336,1.302,3.044,0.876,4.647c-0.005,0.02-0.011,0.041-0.016,0.061c-0.427,1.613-1.561,2.944-3.089,3.613l-5.024,2.201
					c-1.857,0.813-3.13,2.584-3.268,4.606c-0.1,1.464-0.154,2.941-0.154,4.431c0,1.49,0.054,2.967,0.154,4.432
					c0.138,2.022,1.412,3.793,3.268,4.606l5.024,2.201c1.528,0.669,2.662,2.001,3.089,3.613c0.005,0.02,0.011,0.041,0.016,0.061
					c0.427,1.603,0.108,3.311-0.876,4.647l-3.256,4.425c-1.212,1.647-1.414,3.837-0.509,5.671c1.299,2.631,2.764,5.165,4.384,7.587
					c1.135,1.698,3.131,2.615,5.161,2.389l5.467-0.608c1.653-0.184,3.296,0.398,4.472,1.575c0.012,0.012,0.025,0.025,0.037,0.037
					c1.177,1.176,1.759,2.819,1.575,4.472l-0.608,5.466c-0.226,2.03,0.691,4.026,2.389,5.161c2.422,1.62,4.956,3.085,7.587,4.383
					c1.834,0.905,4.024,0.703,5.671-0.509l4.424-3.256c1.336-0.983,3.044-1.302,4.647-0.876c0.02,0.005,0.041,0.011,0.061,0.016
					c1.613,0.427,2.944,1.561,3.613,3.089l2.2,5.024c0.813,1.857,2.583,3.13,4.606,3.269c1.465,0.1,2.941,0.154,4.432,0.154
					c1.49,0,2.967-0.054,4.431-0.154c2.023-0.138,3.793-1.412,4.606-3.268l2.201-5.024c0.669-1.528,2.001-2.662,3.613-3.089
					c0.02-0.005,0.04-0.011,0.061-0.016c1.603-0.426,3.311-0.107,4.647,0.876l4.424,3.256c1.647,1.212,3.837,1.414,5.671,0.509
					c2.631-1.299,5.165-2.764,7.588-4.383c1.698-1.135,2.615-3.131,2.389-5.161l-0.608-5.466c-0.184-1.653,0.398-3.296,1.574-4.472
					c0.012-0.012,0.025-0.025,0.037-0.037c1.176-1.177,2.819-1.758,4.472-1.575l5.467,0.608c2.03,0.226,4.026-0.691,5.161-2.389
					c1.62-2.422,3.085-4.956,4.383-7.587c0.905-1.834,0.703-4.024-0.509-5.671l-3.256-4.425c-0.983-1.336-1.302-3.044-0.876-4.647
					c0.005-0.02,0.011-0.041,0.016-0.061c0.427-1.612,1.561-2.944,3.089-3.613l5.024-2.2c1.857-0.813,3.13-2.584,3.268-4.606
					c0.1-1.464,0.154-2.941,0.154-4.432C582.557,182.701,582.503,181.224,582.403,179.76z M515.528,214.666
					c-16.831,0-30.475-13.644-30.475-30.475c0-16.831,13.644-30.475,30.475-30.475c16.831,0,30.474,13.644,30.474,30.475
					C546.003,201.022,532.359,214.666,515.528,214.666z"/>
				
					<linearGradient id="SVGID_00000109029917599759675180000008453422858653667211_" gradientUnits="userSpaceOnUse" x1="496.5753" y1="244.5101" x2="540.8295" y2="103.3752">
					<stop  offset="0" style="stop-color:#FFFFFF"/>
					<stop  offset="1" style="stop-color:#FFFFFF;stop-opacity:0"/>
				</linearGradient>
				<path style="fill:url(#SVGID_00000109029917599759675180000008453422858653667211_);" d="M572.247,210.301l-3.255-4.424
					c-1.629-2.214-2.16-5.009-1.459-7.672l0.02-0.08c0.711-2.689,2.577-4.87,5.118-5.983l5.024-2.199
					c0.649-0.285,1.082-0.885,1.128-1.565c0.097-1.411,0.146-2.819,0.146-4.186c0-1.368-0.049-2.776-0.146-4.186
					c-0.047-0.681-0.479-1.281-1.127-1.565l-5.026-2.201c-2.54-1.114-4.406-3.294-5.098-5.914l-0.051-0.193
					c-0.683-2.65-0.148-5.427,1.471-7.627l3.255-4.424c0.424-0.576,0.493-1.325,0.181-1.958c-1.221-2.474-2.615-4.89-4.148-7.18
					c-0.347-0.519-0.933-0.829-1.57-0.829c-0.07,0-0.141,0.004-0.211,0.012l-5.466,0.608c-0.334,0.037-0.668,0.055-1,0.055
					c-2.418,0-4.693-0.944-6.408-2.66l-0.036-0.036c-0.006-0.006-0.025-0.025-0.025-0.025c-1.942-1.957-2.883-4.645-2.579-7.382
					l0.609-5.465c0.078-0.71-0.235-1.393-0.818-1.783c-2.287-1.529-4.704-2.925-7.182-4.149c-0.257-0.127-0.533-0.191-0.822-0.191
					c-0.41,0-0.802,0.129-1.133,0.373l-4.424,3.255c-1.564,1.151-3.418,1.759-5.361,1.76c-0.786,0-1.572-0.103-2.391-0.321
					c-2.689-0.711-4.87-2.577-5.983-5.118l-2.201-5.025c-0.284-0.649-0.883-1.081-1.564-1.127c-1.411-0.097-2.82-0.146-4.186-0.146
					c-1.368,0-2.776,0.049-4.187,0.146c-0.68,0.046-1.28,0.479-1.564,1.128l-2.201,5.024c-1.113,2.541-3.293,4.406-6.039,5.134
					c-0.762,0.203-1.548,0.305-2.335,0.305c-1.944,0-3.797-0.608-5.361-1.759l-4.424-3.256c-0.331-0.243-0.722-0.373-1.133-0.373
					c-0.289,0-0.566,0.065-0.822,0.191c-2.476,1.222-4.892,2.618-7.182,4.149c-0.582,0.389-0.895,1.072-0.817,1.782l0.607,5.464
					c0.305,2.731-0.63,5.414-2.568,7.372l-0.07,0.072c-1.715,1.715-3.99,2.66-6.408,2.66c-0.332,0-0.666-0.018-1-0.055l-5.465-0.608
					c-0.071-0.008-0.142-0.012-0.213-0.012c-0.637,0-1.223,0.31-1.57,0.829c-1.53,2.288-2.926,4.704-4.149,7.182
					c-0.312,0.631-0.243,1.38,0.182,1.956l3.254,4.424c1.634,2.22,2.164,5.025,1.439,7.752c-0.711,2.689-2.577,4.87-5.118,5.983
					l-5.025,2.201c-0.65,0.285-1.081,0.883-1.127,1.565c-0.018,0.258-0.026,0.513-0.04,0.771
					c8.888,7.749,20.327,14.597,33.585,19.977c-2.742-4.906-4.312-10.553-4.312-16.562c0-18.782,15.28-34.063,34.063-34.063
					c18.783,0,34.063,15.281,34.063,34.063c0,11.694-5.925,22.028-14.929,28.165c13.341,1.212,26.158,0.869,37.938-0.822
					C572.625,211.102,572.516,210.667,572.247,210.301z"/>
			</g>
		</g>
		<g>
			<path style="fill:#D9E2F8;" d="M265.457,149.665c-0.003,0.012-0.007,0.024-0.01,0.036c-5.045,18.026-10.668,17.06-14.56,21.422
				c-0.003,0.004-0.007,0.008-0.01,0.011c-0.104,0.118-0.208,0.239-0.309,0.365c-0.014,0.017-0.027,0.034-0.041,0.051
				c-0.091,0.114-0.181,0.232-0.271,0.353c-0.02,0.028-0.041,0.056-0.061,0.084c-0.082,0.114-0.163,0.232-0.244,0.353
				c-0.024,0.036-0.047,0.072-0.071,0.108c-0.077,0.12-0.154,0.244-0.229,0.37c-0.024,0.04-0.048,0.08-0.072,0.122
				c-0.073,0.127-0.146,0.259-0.217,0.394c-0.024,0.046-0.049,0.091-0.073,0.138c-0.072,0.14-0.143,0.286-0.214,0.435
				c-0.021,0.045-0.043,0.088-0.064,0.133c-0.076,0.164-0.15,0.336-0.223,0.511c-0.014,0.035-0.03,0.067-0.044,0.103
				c-0.176,0.431-0.346,0.894-0.508,1.396c-0.004,0.012-0.007,0.024-0.011,0.036c-0.075,0.234-0.148,0.477-0.22,0.728
				c-0.021,0.073-0.041,0.152-0.062,0.227c-0.053,0.194-0.106,0.389-0.158,0.593c-0.026,0.102-0.051,0.21-0.076,0.315
				c-0.045,0.187-0.09,0.374-0.133,0.57c-0.027,0.12-0.052,0.245-0.078,0.368c-0.04,0.19-0.08,0.381-0.118,0.579
				c-0.027,0.136-0.053,0.277-0.079,0.418c-0.036,0.195-0.072,0.393-0.106,0.597c-0.026,0.151-0.051,0.305-0.076,0.461
				c-0.033,0.205-0.066,0.414-0.097,0.627c-0.024,0.163-0.048,0.327-0.071,0.494c-0.031,0.22-0.06,0.445-0.09,0.673
				c-0.022,0.173-0.044,0.346-0.065,0.523c-0.028,0.238-0.056,0.482-0.083,0.729c-0.02,0.179-0.04,0.358-0.058,0.542
				c-0.026,0.256-0.051,0.521-0.076,0.787c-0.018,0.191-0.036,0.379-0.053,0.574c-0.024,0.281-0.047,0.573-0.07,0.864
				c-0.015,0.189-0.03,0.374-0.044,0.568c-0.024,0.334-0.046,0.682-0.068,1.029c-0.01,0.167-0.022,0.327-0.032,0.497
				c-0.031,0.524-0.06,1.061-0.086,1.615v0c0,6.789,25.574,12.292,57.12,12.292c31.547,0,57.121-5.503,57.121-12.292
				c-1.723-36.758-14.217-4.439-22.781-57.73c-1.335-8.305-3.74-15.073-6.79-20.497c-24.607,6.784-46.818,19.338-65.086,36.122
				C265.693,148.805,265.575,149.242,265.457,149.665z"/>
			<g>
				<g>
					
						<linearGradient id="SVGID_00000085225711024239449800000013636869796250692226_" gradientUnits="userSpaceOnUse" x1="299.5054" y1="85.9044" x2="318.129" y2="85.9044">
						<stop  offset="0" style="stop-color:#5157CC"/>
						<stop  offset="0.1593" style="stop-color:#6365D7"/>
						<stop  offset="0.5149" style="stop-color:#8581ED"/>
						<stop  offset="0.8079" style="stop-color:#9A93FA"/>
						<stop  offset="1" style="stop-color:#A299FF"/>
					</linearGradient>
					<path style="fill:url(#SVGID_00000085225711024239449800000013636869796250692226_);" d="M317.552,92.026
						c0.365-0.995,0.577-2.064,0.577-3.185c0-5.143-4.169-9.312-9.312-9.312c-5.143,0-9.312,4.169-9.312,9.312
						c0,1.122,0.212,2.19,0.576,3.185c2.783,0.165,5.709,0.255,8.735,0.255C311.843,92.281,314.77,92.191,317.552,92.026z"/>
					
						<linearGradient id="SVGID_00000123417394432078119150000006789451163537013645_" gradientUnits="userSpaceOnUse" x1="251.6967" y1="135.7863" x2="365.9378" y2="135.7863">
						<stop  offset="0" style="stop-color:#7035A0"/>
						<stop  offset="1" style="stop-color:#936BF2"/>
					</linearGradient>
					<path style="fill:url(#SVGID_00000123417394432078119150000006789451163537013645_);" d="M365.938,184.087
						c-1.724-36.758-14.217-4.439-22.782-57.73c-4.563-28.395-21.614-38.871-34.339-38.871c-12.725,0-29.775,10.476-34.339,38.871
						c-8.565,53.291-21.059,20.972-22.782,57.73H365.938z"/>
					<path style="opacity:0.3;fill:#33426D;" d="M323.475,160.052c-19.173-5.101-39.465-5.179-50.953-23.238
						c-8.396,38.426-19.23,13.229-20.826,47.273h94.939C339.946,179.369,331.324,162.14,323.475,160.052z"/>
					
						<linearGradient id="SVGID_00000071543521217269781880000001280158283353136025_" gradientUnits="userSpaceOnUse" x1="307.8639" y1="166.9254" x2="309.6773" y2="199.5672">
						<stop  offset="0" style="stop-color:#432061"/>
						<stop  offset="1" style="stop-color:#6D4FB2"/>
					</linearGradient>
					
						<ellipse style="fill:url(#SVGID_00000071543521217269781880000001280158283353136025_);" cx="308.817" cy="184.087" rx="57.121" ry="12.292"/>
					
						<linearGradient id="SVGID_00000001626442962759598670000004928034089897593220_" gradientUnits="userSpaceOnUse" x1="308.8172" y1="170.6065" x2="308.8172" y2="194.7854">
						<stop  offset="0" style="stop-color:#4E8AF3"/>
						<stop  offset="0.1126" style="stop-color:#5A93F5"/>
						<stop  offset="0.488" style="stop-color:#7CACFA"/>
						<stop  offset="0.7972" style="stop-color:#91BCFE"/>
						<stop  offset="1" style="stop-color:#99C2FF"/>
					</linearGradient>
					<path style="fill:url(#SVGID_00000001626442962759598670000004928034089897593220_);" d="M293.615,172.238
						c-0.635,1.732-1.003,3.591-1.003,5.544c0,8.95,7.256,16.205,16.205,16.205c8.95,0,16.205-7.255,16.205-16.205
						c0-1.952-0.368-3.811-1.003-5.544c-4.842-0.287-9.936-0.444-15.202-0.444S298.458,171.951,293.615,172.238z"/>
					<path style="opacity:0.3;fill:#33426D;" d="M324.963,178.953c0.028-0.388,0.059-0.776,0.059-1.171
						c0-1.952-0.368-3.811-1.003-5.544c-4.842-0.287-9.936-0.444-15.202-0.444s-10.359,0.156-15.202,0.444
						c-0.635,1.732-1.003,3.591-1.003,5.544c0,2.58,0.619,5.01,1.691,7.175C303.35,179.829,314.442,178.107,324.963,178.953z"/>
				</g>
				
					<linearGradient id="SVGID_00000047055244520859383350000003747868786306698163_" gradientUnits="userSpaceOnUse" x1="314.4937" y1="133.9188" x2="343.8833" y2="126.5714">
					<stop  offset="0" style="stop-color:#FFFFFF"/>
					<stop  offset="1" style="stop-color:#FFFFFF;stop-opacity:0"/>
				</linearGradient>
				<path style="fill:url(#SVGID_00000047055244520859383350000003747868786306698163_);" d="M318.129,93.866
					c0,0,13.542,4.506,16.262,22.338c0,0,4.344,23.164,6.045,29.317c3.284,11.886,8.774,13.5,8.765,18.865l-16.569-3.149
					c0,0-0.322-4.839-2.623-10.276c-3.325-7.858-4.986-32.122-5.743-38.838C323.057,101.394,318.129,93.866,318.129,93.866z"/>
			</g>
		</g>
	</g>
</g>
</svg>
