<?xml version="1.0" encoding="UTF-8"?>
<svg version="1.1" xmlns="http://www.w3.org/2000/svg" width="1600" height="580">
<path d="M0 0 C1.32 0 2.64 0 4 0 C7.79237927 7.45547288 11.42254426 14.97084276 14.95141602 22.55371094 C16.59086267 26.06158384 18.25944132 29.54510071 20.03125 32.98828125 C20.35230713 33.6136377 20.67336426 34.23899414 21.00415039 34.88330078 C21.87966096 36.57569501 22.76563929 38.26266244 23.65234375 39.94921875 C25.00628203 43.01422105 25.60736989 45.68500908 26 49 C26.66 49 27.32 49 28 49 C28.33 50.98 28.66 52.96 29 55 C29.66 55 30.32 55 31 55 C31.33 56.98 31.66 58.96 32 61 C32.66 61 33.32 61 34 61 C34.67305018 62.60149886 35.33822227 64.20631029 36 65.8125 C36.37125 66.70582031 36.7425 67.59914063 37.125 68.51953125 C38 71 38 71 38 74 C38.66 74 39.32 74 40 74 C40.33 75.98 40.66 77.96 41 80 C41.66 80 42.32 80 43 80 C43.33 81.98 43.66 83.96 44 86 C44.66 86 45.32 86 46 86 C46.67305018 87.60149886 47.33822227 89.20631029 48 90.8125 C48.37125 91.70582031 48.7425 92.59914063 49.125 93.51953125 C50 96 50 96 50 99 C50.66 99 51.32 99 52 99 C52.33 100.98 52.66 102.96 53 105 C53.66 105 54.32 105 55 105 C55.33 107.31 55.66 109.62 56 112 C56.66 112 57.32 112 58 112 C58.33 113.98 58.66 115.96 59 118 C59.66 118 60.32 118 61 118 C61.33 119.98 61.66 121.96 62 124 C62.66 124 63.32 124 64 124 C64.33 125.98 64.66 127.96 65 130 C65.66 130 66.32 130 67 130 C67.33 132.31 67.66 134.62 68 137 C68.66 137 69.32 137 70 137 C70.12375 137.969375 70.2475 138.93875 70.375 139.9375 C70.58125 140.948125 70.7875 141.95875 71 143 C71.66 143.33 72.32 143.66 73 144 C74.20256144 146.1296593 75.3077321 148.24132521 76.375 150.4375 C76.68663086 151.06914062 76.99826172 151.70078125 77.31933594 152.3515625 C79.4792266 156.78372106 81.40058027 161.27027322 83.15625 165.87890625 C84.06501597 168.25830859 84.06501597 168.25830859 85.75 171.4375 C87 174 87 174 87 177 C87.66 177 88.32 177 89 177 C89.33 178.98 89.66 180.96 90 183 C90.66 183 91.32 183 92 183 C92.33773438 183.81984375 92.67546875 184.6396875 93.0234375 185.484375 C93.46945312 186.56203125 93.91546875 187.6396875 94.375 188.75 C94.81585938 189.81734375 95.25671875 190.8846875 95.7109375 191.984375 C96.90788047 194.89858159 96.90788047 194.89858159 98.1640625 197.203125 C99 199 99 199 99 202 C99.66 202 100.32 202 101 202 C101.25394531 202.65226563 101.50789063 203.30453125 101.76953125 203.9765625 C103.30779859 207.8827245 104.84374564 211.69307179 106.75 215.4375 C108 218 108 218 108 221 C108.66 221 109.32 221 110 221 C110.66 222.98 111.32 224.96 112 227 C112.33 177.5 112.66 128 113 77 C112.34 77 111.68 77 111 77 C110.94465088 76.18732666 110.88930176 75.37465332 110.83227539 74.53735352 C110.58043503 70.87872368 110.32156361 67.22062515 110.0625 63.5625 C109.97548828 62.28310547 109.88847656 61.00371094 109.79882812 59.68554688 C109.71181641 58.47060547 109.62480469 57.25566406 109.53515625 56.00390625 C109.456604 54.87799072 109.37805176 53.7520752 109.29711914 52.59204102 C109.28063312 50.07330645 109.28063312 50.07330645 108 49 C106.98670006 42.69502258 106.89726786 36.36939251 107 30 C106.34 30 105.68 30 105 30 C104.67 24.72 104.34 19.44 104 14 C103.34 14 102.68 14 102 14 C101.67 10.7 101.34 7.4 101 4 C110.32025389 3.97661093 119.64049736 3.95895179 128.96077442 3.94818783 C133.29067347 3.94301618 137.62055213 3.93602539 141.95043945 3.92456055 C146.1455829 3.91352471 150.34070701 3.90768039 154.53586388 3.90512276 C156.11945588 3.90330512 157.70304709 3.89975825 159.28663063 3.89426994 C170.88945891 3.85573525 182.41895193 4.29198022 194 5 C194 5.66 194 6.32 194 7 C195.12535156 6.98259766 195.12535156 6.98259766 196.2734375 6.96484375 C202.92337417 6.9062171 209.40004873 7.18230692 216 8 C216 8.66 216 9.32 216 10 C217.175625 9.979375 218.35125 9.95875 219.5625 9.9375 C223.47413467 9.93052739 227.14497944 10.35749657 231 11 C231 11.66 231 12.32 231 13 C234.3 13.33 237.6 13.66 241 14 C241 14.66 241 15.32 241 16 C244.96 16.495 244.96 16.495 249 17 C249 17.66 249 18.32 249 19 C252.96 19.495 252.96 19.495 257 20 C257 20.66 257 21.32 257 22 C257.9075 22.28875 258.815 22.5775 259.75 22.875 C262.32202908 23.76531776 264.61346766 24.71494413 267 26 C267 26.66 267 27.32 267 28 C267.7425 28.28875 268.485 28.5775 269.25 28.875 C271.56739797 29.82302644 273.77917115 30.84845911 276 32 C276 32.66 276 33.32 276 34 C276.99 34.33 277.98 34.66 279 35 C279 35.66 279 36.32 279 37 C279.61875 37.2475 280.2375 37.495 280.875 37.75 C283.38710296 39.22770762 283.76107344 40.43955177 285 43 C285.99 43.33 286.98 43.66 288 44 C288 44.66 288 45.32 288 46 C288.66 46 289.32 46 290 46 C294 52.75 294 52.75 294 55 C294.66 55 295.32 55 296 55 C302.38902055 67.99904496 302.38902055 67.99904496 303.6328125 75.04296875 C303.99343808 77.2407617 303.99343808 77.2407617 305.125 80.1875 C306.47870251 86.08577523 306.15042227 91.97475239 306 98 C306.66 98 307.32 98 308 98 C308.02687279 99.81242052 308.04633715 101.62495233 308.0625 103.4375 C308.07410156 104.44683594 308.08570313 105.45617187 308.09765625 106.49609375 C308 109 308 109 307 110 C306.77376479 111.48437809 306.60587035 112.97777425 306.46484375 114.47265625 C306.37783203 115.37177734 306.29082031 116.27089844 306.20117188 117.19726562 C306.11416016 118.14279297 306.02714844 119.08832031 305.9375 120.0625 C305.80118164 121.4865918 305.80118164 121.4865918 305.66210938 122.93945312 C305.43743502 125.29262135 305.21691818 127.64610619 305 130 C304.34 130 303.68 130 303 130 C302.67 132.97 302.34 135.94 302 139 C301.34 139 300.68 139 300 139 C299.896875 139.86625 299.79375 140.7325 299.6875 141.625 C298.96601586 145.16683123 297.72876739 147.84312042 296 151 C295.34 151 294.68 151 294 151 C293.773125 151.680625 293.54625 152.36125 293.3125 153.0625 C291.68773854 156.6988709 289.67196743 160.02829263 287 163 C286.34 163 285.68 163 285 163 C284.67 163.99 284.34 164.98 284 166 C283.34 166 282.68 166 282 166 C281.67 166.99 281.34 167.98 281 169 C280.34 169 279.68 169 279 169 C278.67 169.99 278.34 170.98 278 172 C277.34 172 276.68 172 276 172 C276 172.66 276 173.32 276 174 C274.03501678 175.38442 272.02951535 176.71203834 270 178 C269.2575 178.5775 268.515 179.155 267.75 179.75 C266 181 266 181 264 181 C264 181.66 264 182.32 264 183 C262.35 183.33 260.7 183.66 259 184 C259 184.66 259 185.32 259 186 C257.35 186.33 255.7 186.66 254 187 C254 187.66 254 188.32 254 189 C252.02 189.33 250.04 189.66 248 190 C248 190.66 248 191.32 248 192 C246.02 192.66 244.04 193.32 242 194 C242.4640625 195.11375 242.4640625 195.11375 242.9375 196.25 C243.8094925 198.50692176 244.47667007 200.6450153 245 203 C245.66 203 246.32 203 247 203 C247.33 204.65 247.66 206.3 248 208 C248.66 208 249.32 208 250 208 C254 214.75 254 214.75 254 217 C254.66 217 255.32 217 256 217 C256.33 218.32 256.66 219.64 257 221 C257.66 221 258.32 221 259 221 C259.33 222.32 259.66 223.64 260 225 C260.66 225 261.32 225 262 225 C262.29132813 225.556875 262.58265625 226.11375 262.8828125 226.6875 C265.52001155 231.59700264 268.37539294 236.02221538 271.86328125 240.37109375 C273 242 273 242 273 244 C273.66 244 274.32 244 275 244 C276.7265625 246.1171875 276.7265625 246.1171875 278.625 248.875 C279.25664063 249.77992188 279.88828125 250.68484375 280.5390625 251.6171875 C282 254 282 254 282 256 C282.66 256 283.32 256 284 256 C284.33 257.32 284.66 258.64 285 260 C285.66 260 286.32 260 287 260 C291 265.41176471 291 265.41176471 291 268 C291.99 268.33 292.98 268.66 294 269 C295.01351664 270.65848177 296.01120795 272.32665961 297 274 C298.299375 275.2684375 298.299375 275.2684375 299.625 276.5625 C302.0066625 279.00683783 302.3246832 279.84852159 303 283 C303.99 283.33 304.98 283.66 306 284 C306.66 284.99 307.32 285.98 308 287 C308.33 280.73 308.66 274.46 309 268 C309.66 268 310.32 268 311 268 C311 197.71 311 127.42 311 55 C310.34 55 309.68 55 309 55 C308.773125 54.443125 308.54625 53.88625 308.3125 53.3125 C306.62971908 50.34760028 304.43891488 48.383485 302 46 C300.88136893 44.78398222 299.77735799 43.55437128 298.6875 42.3125 C298.17574219 41.73113281 297.66398437 41.14976562 297.13671875 40.55078125 C296 39 296 39 296 37 C295.34 37 294.68 37 294 37 C293.34 35.35 292.68 33.7 292 32 C291.34 32 290.68 32 290 32 C286 27.52941176 286 27.52941176 286 25 C285.34 25 284.68 25 284 25 C282.41466298 23.28667246 280.90458785 21.50310953 279.4375 19.6875 C278.63183594 18.70136719 277.82617188 17.71523437 276.99609375 16.69921875 C275 14 275 14 274 11 C273.01 10.67 272.02 10.34 271 10 C269 7 269 7 269 4 C279.71785368 3.79132945 290.43522313 3.63148609 301.15469551 3.53369045 C306.13250674 3.48674838 311.10892695 3.42310025 316.0859375 3.32104492 C320.89064022 3.22314115 325.69400669 3.16941992 330.49962997 3.14610481 C332.33142005 3.12949423 334.16313814 3.09705438 335.99435806 3.04842949 C350.32519064 2.68308729 350.32519064 2.68308729 354.49017334 5.95803833 C356.87681793 9.37840459 358 11.81064401 358 16 C358.66 16 359.32 16 360 16 C364 22.75 364 22.75 364 25 C364.66 25 365.32 25 366 25 C371.37129841 34.41002278 371.37129841 34.41002278 373 39 C373.66 39 374.32 39 375 39 C375.33 40.32 375.66 41.64 376 43 C376.66 43 377.32 43 378 43 C382 49.75 382 49.75 382 52 C382.66 52 383.32 52 384 52 C388 57.29411765 388 57.29411765 388 61 C388.66 61 389.32 61 390 61 C390.33 62.32 390.66 63.64 391 65 C391.66 65 392.32 65 393 65 C393.33 66.32 393.66 67.64 394 69 C394.66 69 395.32 69 396 69 C397.4375 70.79296875 397.4375 70.79296875 399 73.1875 C399.515625 73.96480469 400.03125 74.74210937 400.5625 75.54296875 C401.98240427 77.9699247 403.02689971 80.36607951 404 83 C404.66 83 405.32 83 406 83 C406 83.66 406 84.32 406 85 C406.66 85.33 407.32 85.66 408 86 C408.625 88.0625 408.625 88.0625 409 90 C409.66 90 410.32 90 411 90 C412.4375 91.79296875 412.4375 91.79296875 414 94.1875 C414.515625 94.96480469 415.03125 95.74210937 415.5625 96.54296875 C416.98240427 98.9699247 418.02689971 101.36607951 419 104 C419.66 104 420.32 104 421 104 C421.33 105.32 421.66 106.64 422 108 C422.66 108 423.32 108 424 108 C425.62109375 110.265625 425.62109375 110.265625 427.4375 113.25 C429.93749864 117.33995353 429.93749864 117.33995353 432.72265625 121.234375 C434 123 434 123 434 125 C434.66 125 435.32 125 436 125 C436.33 126.32 436.66 127.64 437 129 C437.66 129 438.32 129 439 129 C443 134.41176471 443 134.41176471 443 137 C443.66 137 444.32 137 445 137 C445.53625 137.99 446.0725 138.98 446.625 140 C448.71668688 143.69431028 451.19205336 146.97959198 453.828125 150.30078125 C455 152 455 152 455 154 C455.66 154 456.32 154 457 154 C457.33 155.32 457.66 156.64 458 158 C458.66 158 459.32 158 460 158 C461.47265625 159.86328125 461.47265625 159.86328125 463.0625 162.3125 C463.58972656 163.11300781 464.11695313 163.91351563 464.66015625 164.73828125 C466 167 466 167 467 170 C467.66 170.33 468.32 170.66 469 171 C473 176.52941176 473 176.52941176 473 179 C473.66 179 474.32 179 475 179 C476.47265625 180.86328125 476.47265625 180.86328125 478.0625 183.3125 C478.58972656 184.11300781 479.11695313 184.91351563 479.66015625 185.73828125 C481 188 481 188 482 191 C482.66 191 483.32 191 484 191 C485.2890625 192.6796875 485.2890625 192.6796875 486.625 194.875 C487.29402344 195.95394531 487.29402344 195.95394531 487.9765625 197.0546875 C489 199 489 199 489 201 C489.66 201 490.32 201 491 201 C493.01782732 203.90567134 494.35494404 206.51669784 495 210 C495.66 210 496.32 210 497 210 C497.33 211.32 497.66 212.64 498 214 C498.66 214 499.32 214 500 214 C504 219.41176471 504 219.41176471 504 222 C504.66 222 505.32 222 506 222 C506.33 223.32 506.66 224.64 507 226 C507.66 226 508.32 226 509 226 C513 231.29411765 513 231.29411765 513 235 C513.66 235 514.32 235 515 235 C519 240.41176471 519 240.41176471 519 243 C519.66 243 520.32 243 521 243 C521.33 244.32 521.66 245.64 522 247 C522.66 247 523.32 247 524 247 C524.33 248.32 524.66 249.64 525 251 C525.66 251 526.32 251 527 251 C527.33 252.65 527.66 254.3 528 256 C528.66 256 529.32 256 530 256 C531.2890625 257.75 531.2890625 257.75 532.625 260 C533.29402344 261.11375 533.29402344 261.11375 533.9765625 262.25 C534.31429687 262.8275 534.65203125 263.405 535 264 C535.02332662 241.46087424 535.04097801 218.92175046 535.05181217 196.38261509 C535.05697564 185.91807719 535.06401929 175.45354677 535.07543945 164.98901367 C535.08538476 155.87160565 535.09185306 146.75420304 535.09408849 137.63678974 C535.09539586 132.80606124 535.09848336 127.97534825 535.10573006 123.14462471 C535.11248785 118.60326313 535.11461746 114.06192353 535.11310768 109.5205574 C535.11338412 107.84875431 535.11539066 106.17695052 535.11920547 104.50515175 C535.12413898 102.23274147 535.12299958 99.96041554 535.12025452 97.68800354 C535.12117631 96.41316384 535.1220981 95.13832415 535.12304783 93.82485294 C535.32297056 91.09774883 535.32297056 91.09774883 534 90 C533.84256217 88.60514951 533.74903558 87.20296238 533.68359375 85.80078125 C533.64161865 84.92703857 533.59964355 84.0532959 533.55639648 83.15307617 C533.49754272 81.74699097 533.49754272 81.74699097 533.4375 80.3125 C533.3950415 79.36673096 533.35258301 78.42096191 533.30883789 77.4465332 C532.99297671 69.95928851 532.88664554 62.49398958 533 55 C532.34 55 531.68 55 531 55 C530.29223008 47.64424835 529.85284308 40.3905476 530 33 C529.34 33 528.68 33 528 33 C527.86722656 31.85660156 527.73445312 30.71320313 527.59765625 29.53515625 C527.4194969 28.0442438 527.24109918 26.55335982 527.0625 25.0625 C526.93198242 23.93038086 526.93198242 23.93038086 526.79882812 22.77539062 C526.65675901 19.07812542 526.65675901 19.07812542 525 16 C524.67 12.04 524.34 8.08 524 4 C587.69 4 651.38 4 717 4 C716.67 6.31 716.34 8.62 716 11 C715.34 11 714.68 11 714 11 C713.67 12.98 713.34 14.96 713 17 C712.34 17 711.68 17 711 17 C710.938125 17.804375 710.87625 18.60875 710.8125 19.4375 C709.90951355 23.39674829 708.34147532 26.1296957 706.3125 29.60546875 C705.05913428 31.89211514 704.10519697 34.12486743 703.1875 36.5625 C700.35450274 43.96559984 696.59656913 50.94698782 693 58 C692.33165249 59.33249158 691.66392742 60.66530056 691 62 C685.72250715 61.46148032 681.74354436 60.22656164 677 58 C677 57.34 677 56.68 677 56 C673.04 55.505 673.04 55.505 669 55 C669 54.34 669 53.68 669 53 C666.03 52.67 663.06 52.34 660 52 C660 51.34 660 50.68 660 50 C656.04 49.67 652.08 49.34 648 49 C648 48.34 648 47.68 648 47 C641.73 46.67 635.46 46.34 629 46 C629 45.34 629 44.68 629 44 C616.79 44 604.58 44 592 44 C592 80.3 592 116.6 592 154 C616.09 153.67 640.18 153.34 665 153 C665 152.01 665 151.02 665 150 C665.66 150 666.32 150 667 150 C666.9690625 148.2365625 666.9690625 148.2365625 666.9375 146.4375 C666.93052739 142.52586533 667.35749657 138.85502056 668 135 C668.66 135 669.32 135 670 135 C670.33 131.37 670.66 127.74 671 124 C671.66 124 672.32 124 673 124 C673.061875 122.9275 673.12375 121.855 673.1875 120.75 C673.93172713 114.74302391 676.53865263 109.47363587 679 104 C679.4021875 103.08605469 679.804375 102.17210937 680.21875 101.23046875 C681.13645483 99.1492453 682.06312272 97.07264471 683 95 C683.66 95 684.32 95 685 95 C685.33 93.02 685.66 91.04 686 89 C686.66 89 687.32 89 688 89 C688.28875 88.2575 688.5775 87.515 688.875 86.75 C689.82302644 84.43260203 690.84845911 82.22082885 692 80 C692.66 80 693.32 80 694 80 C694.103125 79.443125 694.20625 78.88625 694.3125 78.3125 C695.57119889 74.07869466 697.84247693 71.0139993 701 68 C701.33 67.34 701.66 66.68 702 66 C702.66 66 703.32 66 704 66 C704.2475 65.43667969 704.495 64.87335938 704.75 64.29296875 C709.24315807 56.05083192 717.67867711 48.72973096 725 43 C725.66 43 726.32 43 727 43 C727 42.34 727 41.68 727 41 C728.32 40.67 729.64 40.34 731 40 C731 39.34 731 38.68 731 38 C736.41176471 34 736.41176471 34 739 34 C739 33.34 739 32.68 739 32 C740.32 31.67 741.64 31.34 743 31 C743 30.34 743 29.68 743 29 C745.475 28.505 745.475 28.505 748 28 C748 27.34 748 26.68 748 26 C750.475 25.505 750.475 25.505 753 25 C753 24.34 753 23.68 753 23 C754.98 22.67 756.96 22.34 759 22 C759 21.34 759 20.68 759 20 C760.98 19.67 762.96 19.34 765 19 C765 18.34 765 17.68 765 17 C766.74692795 16.32532438 768.49768525 15.66055844 770.25 15 C771.22453125 14.62875 772.1990625 14.2575 773.203125 13.875 C776 13 776 13 780 13 C780 12.34 780 11.68 780 11 C784.455 10.505 784.455 10.505 789 10 C789 9.34 789 8.68 789 8 C792.63 7.67 796.26 7.34 800 7 C800 6.34 800 5.68 800 5 C801.14339844 4.86722656 802.28679688 4.73445313 803.46484375 4.59765625 C804.9557562 4.4194969 806.44664018 4.24109918 807.9375 4.0625 C808.69224609 3.97548828 809.44699219 3.88847656 810.22460938 3.79882812 C813.92187458 3.65675901 813.92187458 3.65675901 817 2 C826.95654389 0.43101565 837.26215993 0.84669098 847.3125 0.86962891 C850.15369846 0.87505481 852.99474343 0.86962102 855.8359375 0.86328125 C857.64322952 0.86394094 859.45052144 0.86521983 861.2578125 0.8671875 C862.10667023 0.86516327 862.95552795 0.86313904 863.83010864 0.86105347 C869.76999505 0.88499753 869.76999505 0.88499753 872 2 C873.85361708 2.04514136 875.70873663 2.03867042 877.5625 2 C879.37460781 1.96229685 881.18809744 1.95346639 883 2 C883.33 2.33 883.66 2.66 884 3 C885.41120902 3.22571184 886.83176043 3.39388349 888.25390625 3.53515625 C889.10791016 3.62216797 889.96191406 3.70917969 890.84179688 3.79882812 C891.73962891 3.88583984 892.63746094 3.97285156 893.5625 4.0625 C894.46419922 4.15337891 895.36589844 4.24425781 896.29492188 4.33789062 C898.52958434 4.56253923 900.76457839 4.78305769 903 5 C903 5.66 903 6.32 903 7 C907.62 7.33 912.24 7.66 917 8 C917 8.66 917 9.32 917 10 C920.96 10.33 924.92 10.66 929 11 C929 11.66 929 12.32 929 13 C929.63808594 13.06058594 930.27617188 13.12117188 930.93359375 13.18359375 C931.75988281 13.26738281 932.58617187 13.35117188 933.4375 13.4375 C934.67306641 13.55931641 934.67306641 13.55931641 935.93359375 13.68359375 C938 14 938 14 939 15 C939.09396057 16.93306498 939.11743517 18.86958838 939.11352539 20.80493164 C939.11341209 22.66674828 939.11341209 22.66674828 939.11329651 24.56617737 C939.10818911 25.9308374 939.1029731 27.29549702 939.09765625 28.66015625 C939.095792 30.04878183 939.09436813 31.43740807 939.09336853 32.82603455 C939.08954387 36.48721115 939.07971403 40.1483483 939.06866455 43.80950928 C939.05844932 47.54292263 939.05387067 51.27634234 939.04882812 55.00976562 C939.03809171 62.33986177 939.02101591 69.66992536 939 77 C934.77478988 75.34541659 930.73280468 73.42473213 926.6875 71.375 C926.04232422 71.05015625 925.39714844 70.7253125 924.73242188 70.390625 C923.15402459 69.59558044 921.57688306 68.79804366 920 68 C920 67.34 920 66.68 920 66 C919.28457031 65.87753906 918.56914063 65.75507813 917.83203125 65.62890625 C914.94887287 64.98864625 912.41407527 64.06448444 909.6875 62.9375 C908.36298828 62.39416016 908.36298828 62.39416016 907.01171875 61.83984375 C906.01591797 61.42412109 906.01591797 61.42412109 905 61 C905 60.34 905 59.68 905 59 C902.36 58.67 899.72 58.34 897 58 C897 57.34 897 56.68 897 56 C894.36 55.67 891.72 55.34 889 55 C889 54.34 889 53.68 889 53 C884.05 52.505 884.05 52.505 879 52 C879 51.34 879 50.68 879 50 C874.38 49.67 869.76 49.34 865 49 C865 48.34 865 47.68 865 47 C849.82 47 834.64 47 819 47 C819 47.66 819 48.32 819 49 C812.565 49.495 812.565 49.495 806 50 C806 50.66 806 51.32 806 52 C801.545 52.495 801.545 52.495 797 53 C797 53.66 797 54.32 797 55 C794.69 55.33 792.38 55.66 790 56 C790 56.66 790 57.32 790 58 C789.19949219 58.31130859 789.19949219 58.31130859 788.3828125 58.62890625 C782.71169171 60.97388526 777.9847217 63.94565332 773.06640625 67.609375 C771 69 771 69 769 69 C769 69.66 769 70.32 769 71 C768.0925 71.598125 767.185 72.19625 766.25 72.8125 C763.02400849 74.98384044 761.32085834 76.93047768 759 80 C758.236875 80.721875 757.47375 81.44375 756.6875 82.1875 C752.53010217 86.53826517 748.70128654 91.59742692 746 97 C745.34 97 744.68 97 744 97 C743.67 98.65 743.34 100.3 743 102 C742.34 102 741.68 102 741 102 C740.67 103.98 740.34 105.96 740 108 C739.34 108 738.68 108 738 108 C737.4121875 109.85625 737.4121875 109.85625 736.8125 111.75 C735.54957755 115.58086477 734.05318161 119.24246484 732.4375 122.9375 C730.48498128 127.53234944 729.22642421 131.85628935 728.3984375 136.76953125 C728 139 728 139 726.9375 142.5 C725.90821102 146.34267887 725.538973 150.00407906 725.24609375 153.9609375 C725 156 725 156 724 157 C723.8775669 158.50316769 723.82223715 160.01188167 723.79467773 161.51977539 C723.77473251 162.48069595 723.75478729 163.44161652 723.73423767 164.43165588 C723.71752518 165.476436 723.70081268 166.52121613 723.68359375 167.59765625 C723.66281265 168.66165146 723.64203156 169.72564667 723.62062073 170.82188416 C723.55500746 174.2353544 723.49618577 177.64890429 723.4375 181.0625 C723.39432597 183.37045109 723.35071206 185.678394 723.30664062 187.98632812 C723.19931416 193.65746682 723.09757008 199.32868552 723 205 C723.66 205 724.32 205 725 205 C725.12117188 206.07378906 725.24234375 207.14757812 725.3671875 208.25390625 C725.53615615 209.69013975 725.70544404 211.12633572 725.875 212.5625 C725.95363281 213.26697266 726.03226563 213.97144531 726.11328125 214.69726562 C726.9574377 221.7427252 729.02474741 228.22739005 731.4140625 234.88671875 C732 237 732 237 732 241 C732.66 241 733.32 241 734 241 C734.33 243.31 734.66 245.62 735 248 C735.66 248 736.32 248 737 248 C737.33 249.98 737.66 251.96 738 254 C738.66 254 739.32 254 740 254 C740.67408308 255.26691507 741.33900497 256.53870749 742 257.8125 C742.37125 258.52019531 742.7425 259.22789062 743.125 259.95703125 C744 262 744 262 744 265 C744.66 265 745.32 265 746 265 C747.39712274 266.95597184 748.71927629 268.9659094 750 271 C754.12839113 277.52552146 759.11040782 282.13468472 765 287 C766 288 767 289 768 290 C768.66 290.33 769.32 290.66 770 291 C770 291.66 770 292.32 770 293 C772.93720508 294.52299523 775.9168649 295.80100302 779 297 C779 297.66 779 298.32 779 299 C780.65 299.33 782.3 299.66 784 300 C784 300.66 784 301.32 784 302 C785.98 302.33 787.96 302.66 790 303 C790 303.66 790 304.32 790 305 C791.051875 305.12375 792.10375 305.2475 793.1875 305.375 C796.50557178 305.91894619 798.92934871 306.74024563 802 308 C803.9924325 308.37593066 805.9918674 308.71979545 808 309 C808 309.66 808 310.32 808 311 C811.27033928 311.19689005 814.54127941 311.38089008 817.8125 311.5625 C818.74126953 311.61857422 819.67003906 311.67464844 820.62695312 311.73242188 C821.9659668 311.80493164 821.9659668 311.80493164 823.33203125 311.87890625 C824.56530151 311.94960327 824.56530151 311.94960327 825.82348633 312.02172852 C828.18286584 312.10945673 828.18286584 312.10945673 831 311 C831.13148438 309.95199219 831.13148438 309.95199219 831.265625 308.8828125 C832.16648446 305.34645992 833.75500402 302.92749384 835.75 299.875 C839.41914461 294.14443623 842.3781374 288.28994923 845 282 C845.66 282 846.32 282 847 282 C847.33 280.02 847.66 278.04 848 276 C848.66 276 849.32 276 850 276 C850.33 274.02 850.66 272.04 851 270 C851.66 270 852.32 270 853 270 C853.33 268.02 853.66 266.04 854 264 C854.66 264 855.32 264 856 264 C856.33 262.02 856.66 260.04 857 258 C857.66 258 858.32 258 859 258 C859.33 256.02 859.66 254.04 860 252 C860.66 252 861.32 252 862 252 C862.28875 251.13375 862.5775 250.2675 862.875 249.375 C864.4375 244.6875 864.4375 244.6875 866 240 C866.66 240 867.32 240 868 240 C868.33 238.02 868.66 236.04 869 234 C869.66 234 870.32 234 871 234 C871.33 232.02 871.66 230.04 872 228 C872.66 228 873.32 228 874 228 C874.103125 227.154375 874.20625 226.30875 874.3125 225.4375 C875.0828854 221.58557299 876.36274514 218.55924969 878 215 C878.66 215 879.32 215 880 215 C880.33 213.02 880.66 211.04 881 209 C881.66 209 882.32 209 883 209 C883.0825 208.16726563 883.165 207.33453125 883.25 206.4765625 C884.15862191 202.26472136 885.88327644 199.09036792 888 195.375 C891.09161876 189.93087456 891.09161876 189.93087456 893 184 C893.66 184 894.32 184 895 184 C895.13148438 182.73542969 895.13148438 182.73542969 895.265625 181.4453125 C896.11134867 177.47760891 897.75977422 174.35528774 899.75 170.875 C902.83533348 165.30244687 905.47812166 159.72119482 907.83984375 153.796875 C909.36667649 150.1160257 911.14987856 146.59406316 912.984375 143.05859375 C914.1122044 140.89029634 914.1122044 140.89029634 915 138 C915.66 138 916.32 138 917 138 C917.33 135.69 917.66 133.38 918 131 C918.66 131 919.32 131 920 131 C920.33 129.02 920.66 127.04 921 125 C921.66 125 922.32 125 923 125 C923.33 123.02 923.66 121.04 924 119 C924.66 119 925.32 119 926 119 C926.33 117.02 926.66 115.04 927 113 C927.66 113 928.32 113 929 113 C929.33 111.02 929.66 109.04 930 107 C930.66 107 931.32 107 932 107 C932.103125 106.154375 932.20625 105.30875 932.3125 104.4375 C933.0828854 100.58557299 934.36274514 97.55924969 936 94 C936.66 94 937.32 94 938 94 C938.33 92.02 938.66 90.04 939 88 C939.66 88 940.32 88 941 88 C941.33 86.02 941.66 84.04 942 82 C942.66 82 943.32 82 944 82 C944.061875 81.21625 944.12375 80.4325 944.1875 79.625 C945.13239466 75.40931611 946.83508334 72.07081612 948.84375 68.26953125 C950.10500838 65.93311799 950.10500838 65.93311799 951 63 C951.66 63 952.32 63 953 63 C953.0825 62.16726562 953.165 61.33453125 953.25 60.4765625 C954.15862191 56.26472136 955.88327644 53.09036792 958 49.375 C961.09161876 43.93087456 961.09161876 43.93087456 963 38 C963.66 38 964.32 38 965 38 C965.08636719 37.33484375 965.17273437 36.6696875 965.26171875 35.984375 C966.22809098 32.07798145 967.95989602 28.80486138 969.8125 25.25 C970.54447072 23.81847533 971.27495287 22.3861885 972.00390625 20.953125 C972.52621826 19.92735352 972.52621826 19.92735352 973.05908203 18.88085938 C974.5218981 15.95674548 975.82980342 12.97358046 977.125 9.97265625 C978.62703685 6.58636782 980.31963064 3.30072552 982 0 C983.921875 0.3828125 983.921875 0.3828125 986 1 C987.72101535 3.58152302 988 4.84918025 988 8 C988.66 8 989.32 8 990 8 C990.33 9.98 990.66 11.96 991 14 C991.66 14 992.32 14 993 14 C993.67305018 15.60149886 994.33822227 17.20631029 995 18.8125 C995.37125 19.70582031 995.7425 20.59914062 996.125 21.51953125 C997 24 997 24 997 27 C997.66 27 998.32 27 999 27 C999.33 28.98 999.66 30.96 1000 33 C1000.66 33 1001.32 33 1002 33 C1002.33 34.98 1002.66 36.96 1003 39 C1003.66 39 1004.32 39 1005 39 C1005.6708712 40.6232687 1006.33657029 42.24867578 1007 43.875 C1007.37125 44.77992188 1007.7425 45.68484375 1008.125 46.6171875 C1009 49 1009 49 1009 51 C1009.66 51 1010.32 51 1011 51 C1011.33 53.31 1011.66 55.62 1012 58 C1012.66 58 1013.32 58 1014 58 C1014.33 59.98 1014.66 61.96 1015 64 C1015.66 64 1016.32 64 1017 64 C1017.33 65.98 1017.66 67.96 1018 70 C1018.66 70 1019.32 70 1020 70 C1020.33 71.98 1020.66 73.96 1021 76 C1021.66 76 1022.32 76 1023 76 C1023.33 78.31 1023.66 80.62 1024 83 C1024.66 83 1025.32 83 1026 83 C1026.33 84.98 1026.66 86.96 1027 89 C1027.66 89 1028.32 89 1029 89 C1029.33 90.98 1029.66 92.96 1030 95 C1030.66 95 1031.32 95 1032 95 C1032.25136719 95.83273438 1032.50273438 96.66546875 1032.76171875 97.5234375 C1034.14978644 101.42053607 1035.91236181 104.9594349 1037.8125 108.625 C1040.22567248 113.35620196 1042.51992007 118.06669506 1044.5 123 C1046.7507844 128.59633807 1049.39857126 133.9421678 1052.14648438 139.30664062 C1058 150.77025835 1058 150.77025835 1058 155 C1058.66 155 1059.32 155 1060 155 C1060.33 156.98 1060.66 158.96 1061 161 C1061.66 161 1062.32 161 1063 161 C1063.33 162.98 1063.66 164.96 1064 167 C1064.66 167 1065.32 167 1066 167 C1066.67305018 168.60149886 1067.33822227 170.20631029 1068 171.8125 C1068.37125 172.70582031 1068.7425 173.59914063 1069.125 174.51953125 C1070 177 1070 177 1070 180 C1070.66 180 1071.32 180 1072 180 C1072.33 181.98 1072.66 183.96 1073 186 C1073.66 186 1074.32 186 1075 186 C1075.33 187.98 1075.66 189.96 1076 192 C1076.66 192 1077.32 192 1078 192 C1078.33 193.98 1078.66 195.96 1079 198 C1079.66 198 1080.32 198 1081 198 C1081.33 200.31 1081.66 202.62 1082 205 C1082.66 205 1083.32 205 1084 205 C1084.33 206.98 1084.66 208.96 1085 211 C1085.66 211 1086.32 211 1087 211 C1087.33 212.98 1087.66 214.96 1088 217 C1088.66 217 1089.32 217 1090 217 C1090.33 218.98 1090.66 220.96 1091 223 C1091.66 223 1092.32 223 1093 223 C1093.33 224.98 1093.66 226.96 1094 229 C1094.66 229 1095.32 229 1096 229 C1096.33 231.31 1096.66 233.62 1097 236 C1097.66 236 1098.32 236 1099 236 C1101.04343536 240.44225078 1102.19314684 244.15888106 1103 249 C1103.66 249.33 1104.32 249.66 1105 250 C1105.33333333 251.66666667 1105.66666667 253.33333333 1106 255 C1106.66 255.33 1107.32 255.66 1108 256 C1109.31832754 258.44068747 1110.55194503 260.87612684 1111.75 263.375 C1114.64536155 269.31646784 1117.66900646 275.13260963 1120.96875 280.86328125 C1122 283 1122 283 1122 286 C1122.66 286 1123.32 286 1124 286 C1124.33773438 286.68707031 1124.67546875 287.37414062 1125.0234375 288.08203125 C1125.69246094 289.43361328 1125.69246094 289.43361328 1126.375 290.8125 C1127.03628906 292.15248047 1127.03628906 292.15248047 1127.7109375 293.51953125 C1129.01866905 296.14556381 1129.01866905 296.14556381 1131 299 C1131 299.99 1131 300.98 1131 302 C1131.66 302 1132.32 302 1133 302 C1134.7265625 304.5546875 1134.7265625 304.5546875 1136.625 307.875 C1137.25664063 308.96554687 1137.88828125 310.05609375 1138.5390625 311.1796875 C1140 314 1140 314 1140 316 C1140.66 316 1141.32 316 1142 316 C1142.33 317.65 1142.66 319.3 1143 321 C1143.66 321 1144.32 321 1145 321 C1145.33 322.32 1145.66 323.64 1146 325 C1146.66 325 1147.32 325 1148 325 C1148.33 326.65 1148.66 328.3 1149 330 C1149.66 330 1150.32 330 1151 330 C1151.33 331.32 1151.66 332.64 1152 334 C1152.66 334 1153.32 334 1154 334 C1158 340.75 1158 340.75 1158 343 C1158.66 343 1159.32 343 1160 343 C1160.33 344.32 1160.66 345.64 1161 347 C1161.66 347 1162.32 347 1163 347 C1163.33 348.65 1163.66 350.3 1164 352 C1161.94921875 352.22786458 1159.8984375 352.45572917 1157.84765625 352.68359375 C1155.98859771 352.81886614 1155.98859771 352.81886614 1155 354 C1152.59651714 354.09496708 1150.22189018 354.12558862 1147.81811523 354.11352539 C1146.6913588 354.11374443 1146.6913588 354.11374443 1145.5418396 354.1139679 C1143.04739541 354.11326863 1140.55302497 354.10547564 1138.05859375 354.09765625 C1136.33366436 354.09579212 1134.60873443 354.09436819 1132.88380432 354.09336853 C1128.33487497 354.08954297 1123.78597733 354.07971238 1119.23706055 354.06866455 C1114.59879994 354.05845124 1109.96053423 354.05387108 1105.32226562 354.04882812 C1096.21482978 354.03809014 1087.10741752 354.02101327 1078 354 C1077.93941406 353.14535156 1077.87882812 352.29070312 1077.81640625 351.41015625 C1077.73261719 350.30542969 1077.64882812 349.20070313 1077.5625 348.0625 C1077.48128906 346.96035156 1077.40007812 345.85820312 1077.31640625 344.72265625 C1077.29581916 342.08890097 1077.29581916 342.08890097 1076 341 C1075.76346477 338.47403741 1075.57826308 335.96892793 1075.4375 333.4375 C1075.37272461 332.37112305 1075.37272461 332.37112305 1075.30664062 331.28320312 C1075.20028223 329.52238088 1075.09961154 327.7612168 1075 326 C1074.34 326 1073.68 326 1073 326 C1072.67 322.37 1072.34 318.74 1072 315 C1071.34 315 1070.68 315 1070 315 C1069.87882812 314.40832031 1069.75765625 313.81664062 1069.6328125 313.20703125 C1068.89903963 309.74700996 1068.19141752 306.4785438 1066.875 303.1875 C1066 301 1066 301 1066 297 C1065.34 297 1064.68 297 1064 297 C1063.67 294.36 1063.34 291.72 1063 289 C1062.34 289 1061.68 289 1061 289 C1060.67 287.02 1060.34 285.04 1060 283 C1059.34 283 1058.68 283 1058 283 C1057.67 280.69 1057.34 278.38 1057 276 C1056.34 276 1055.68 276 1055 276 C1054.67 273.69 1054.34 271.38 1054 269 C1053.34 269 1052.68 269 1052 269 C1051.54560547 267.76636719 1051.54560547 267.76636719 1051.08203125 266.5078125 C1050.66308594 265.39148438 1050.24414062 264.27515625 1049.8125 263.125 C1049.40644531 262.03445313 1049.00039062 260.94390625 1048.58203125 259.8203125 C1046.62978481 255.10599887 1044.28192985 250.5638597 1042 246 C981.61 245.505 981.61 245.505 920 245 C918.515 249.95 918.515 249.95 917 255 C916.26850969 256.89069589 915.50330076 258.76912335 914.6875 260.625 C912.59689805 265.5242526 910.6330922 270.45575653 908.75 275.4375 C908.49178467 276.11184082 908.23356934 276.78618164 907.9675293 277.48095703 C906.66058854 280.96178027 905.59455158 284.32652058 905 288 C904.34 288 903.68 288 903 288 C902.67 290.97 902.34 293.94 902 297 C903.98 296.67 905.96 296.34 908 296 C908 295.34 908 294.68 908 294 C909.65 293.67 911.3 293.34 913 293 C913 292.34 913 291.68 913 291 C914.98 290.67 916.96 290.34 919 290 C919 289.34 919 288.68 919 288 C919.804375 287.87625 920.60875 287.7525 921.4375 287.625 C922.283125 287.41875 923.12875 287.2125 924 287 C924.33 286.34 924.66 285.68 925 285 C926.55307864 283.99337496 928.14278966 283.04272662 929.75 282.125 C933.42737218 279.97942907 936.70170485 277.69860513 940 275 C940.99 274.67 941.98 274.34 943 274 C943.33 273.34 943.66 272.68 944 272 C944.99 272 945.98 272 947 272 C947 282.56 947 293.12 947 304 C946.34 304 945.68 304 945 304 C945 313.24 945 322.48 945 332 C943.35 332.33 941.7 332.66 940 333 C939.67 333.66 939.34 334.32 939 335 C936.61300358 336.02385633 934.25493583 336.94092422 931.8125 337.8125 C930.73524658 338.20562378 930.73524658 338.20562378 929.63623047 338.60668945 C928.14980773 339.1476976 926.66215791 339.68534548 925.17333984 340.21972656 C923.17132798 340.93848975 921.1730816 341.66670644 919.17578125 342.3984375 C900.40257162 349.21379413 900.40257162 349.21379413 894 349 C894 349.66 894 350.32 894 351 C891.03 351.33 888.06 351.66 885 352 C885 352.66 885 353.32 885 354 C884.42967041 354.05534912 883.85934082 354.11069824 883.27172852 354.16772461 C880.70151247 354.41973743 878.13202369 354.67852728 875.5625 354.9375 C874.66466797 355.02451172 873.76683594 355.11152344 872.84179688 355.20117188 C871.98779297 355.28818359 871.13378906 355.37519531 870.25390625 355.46484375 C869.06776733 355.58267212 869.06776733 355.58267212 867.85766602 355.70288086 C865.98896652 355.81551499 865.98896652 355.81551499 865 357 C863.13364212 357.0991056 861.26351806 357.12799261 859.39453125 357.12939453 C858.19658936 357.13254669 856.99864746 357.13569885 855.7644043 357.13894653 C854.46027588 357.1369223 853.15614746 357.13489807 851.8125 357.1328125 C850.47110985 357.1334856 849.12971981 357.13445568 847.78833008 357.13571167 C844.97378379 357.13718836 842.15926918 357.13503504 839.34472656 357.13037109 C835.72959369 357.12467381 832.11453505 357.12795297 828.49940491 357.13394356 C825.72855058 357.13754997 822.95771398 357.13641022 820.18685913 357.13381577 C818.20310417 357.13282033 816.21934853 357.13586741 814.2355957 357.13894653 C813.03765381 357.13579437 811.83971191 357.13264221 810.60546875 357.12939453 C809.54481201 357.12859894 808.48415527 357.12780334 807.39135742 357.12698364 C805 357 805 357 804 356 C800.94088896 355.55112921 797.88265962 355.18256669 794.81054688 354.83789062 C790.63518368 354.33091168 786.95073501 353.41659821 783 352 C780.7111786 351.34415443 778.41936314 350.69868755 776.125 350.0625 C770.96469911 348.60296574 765.9772522 346.99090088 761 345 C761 344.34 761 343.68 761 343 C759.02 342.67 757.04 342.34 755 342 C755 341.34 755 340.68 755 340 C753.02 339.67 751.04 339.34 749 339 C749 338.34 749 337.68 749 337 C747.9790625 336.9071875 747.9790625 336.9071875 746.9375 336.8125 C743.51356867 335.86545516 741.42169955 334.31462589 738.6484375 332.15625 C736.88688064 330.803469 736.88688064 330.803469 734 330 C734 329.34 734 328.68 734 328 C733.278125 327.7525 732.55625 327.505 731.8125 327.25 C728.75286734 325.89016326 726.5326262 324.17082246 724 322 C723.34 323.65 722.68 325.3 722 327 C721.34 327 720.68 327 720 327 C719.67 329.31 719.34 331.62 719 334 C718.34 334 717.68 334 717 334 C716.896875 335.010625 716.79375 336.02125 716.6875 337.0625 C715.96295233 341.21218208 714.77730734 344.21356263 713 348 C712.34 348 711.68 348 711 348 C710.67 349.98 710.34 351.96 710 354 C648.62 354 587.24 354 524 354 C524 351.03 524 348.06 524 345 C523.34 345 522.68 345 522 345 C521.67 343.02 521.34 341.04 521 339 C520.34 339 519.68 339 519 339 C518.67 337.35 518.34 335.7 518 334 C517.34 334 516.68 334 516 334 C515.67 332.35 515.34 330.7 515 329 C514.34 329 513.68 329 513 329 C512.814375 328.0409375 512.814375 328.0409375 512.625 327.0625 C512.41875 326.381875 512.2125 325.70125 512 325 C511.34 324.67 510.68 324.34 510 324 C509.66666667 322.66666667 509.33333333 321.33333333 509 320 C508.34 319.67 507.68 319.34 507 319 C505.7109375 317.22265625 505.7109375 317.22265625 504.375 315.0625 C503.70597656 313.99708984 503.70597656 313.99708984 503.0234375 312.91015625 C502 311 502 311 502 309 C501.34 309 500.68 309 500 309 C498.65839214 307.19638149 497.40153103 305.32934567 496.1875 303.4375 C493.86431335 299.85327579 491.54302 296.30698402 489 292.875 C487 290 487 290 487 288 C486.34 288 485.68 288 485 288 C484.67 286.68 484.34 285.36 484 284 C483.34 284 482.68 284 482 284 C478 278.58823529 478 278.58823529 478 276 C477.34 276 476.68 276 476 276 C475.67 274.68 475.34 273.36 475 272 C474.34 272 473.68 272 473 272 C472.67 270.68 472.34 269.36 472 268 C471.34 268 470.68 268 470 268 C469.67 266.68 469.34 265.36 469 264 C468.34 264 467.68 264 467 264 C466.67 263.01 466.34 262.02 466 261 C465.34 260.67 464.68 260.34 464 260 C462.97219733 258.35033353 461.97683595 256.68034797 461 255 C459.16766753 252.3829427 457.29951099 249.7945628 455.42578125 247.20703125 C454 245 454 245 454 243 C453.01 242.67 452.02 242.34 451 242 C449.94228261 240.36935236 448.94726954 238.69719127 448 237 C447.443125 236.278125 446.88625 235.55625 446.3125 234.8125 C445 233 445 233 445 231 C444.34 231 443.68 231 443 231 C441.52734375 229.13671875 441.52734375 229.13671875 439.9375 226.6875 C439.41027344 225.88699219 438.88304687 225.08648437 438.33984375 224.26171875 C437 222 437 222 436 219 C435.34 219 434.68 219 434 219 C432.7734375 217.41796875 432.7734375 217.41796875 431.375 215.1875 C428.29955253 210.39162895 424.95970742 205.83961044 421.5390625 201.28515625 C420 199 420 199 420 197 C419.34 197 418.68 197 418 197 C417.67 195.68 417.34 194.36 417 193 C416.34 193 415.68 193 415 193 C413.52734375 191.13671875 413.52734375 191.13671875 411.9375 188.6875 C411.41027344 187.88699219 410.88304687 187.08648437 410.33984375 186.26171875 C409 184 409 184 408 181 C407.34 181 406.68 181 406 181 C404.484375 178.875 404.484375 178.875 402.75 176 C400.06940679 171.6447385 397.25059482 167.55753553 394.06640625 163.55859375 C393 162 393 162 393 160 C392.34 160 391.68 160 391 160 C389.2734375 157.8828125 389.2734375 157.8828125 387.375 155.125 C386.74335937 154.22007812 386.11171875 153.31515625 385.4609375 152.3828125 C384 150 384 150 384 148 C383.34 148 382.68 148 382 148 C378 142.58823529 378 142.58823529 378 140 C377.34 140 376.68 140 376 140 C374.52734375 138.13671875 374.52734375 138.13671875 372.9375 135.6875 C372.41027344 134.88699219 371.88304687 134.08648437 371.33984375 133.26171875 C370 131 370 131 369 128 C368.34 128 367.68 128 367 128 C365.7109375 126.25 365.7109375 126.25 364.375 124 C363.92898438 123.2575 363.48296875 122.515 363.0234375 121.75 C362.68570313 121.1725 362.34796875 120.595 362 120 C361.97667279 140.58336838 361.9590217 161.16673459 361.94818783 181.75011349 C361.94302449 191.30663939 361.93598108 200.86315709 361.92456055 210.41967773 C361.91461486 218.74602007 361.90814685 227.07235648 361.90591151 235.39870459 C361.9046042 239.81024857 361.90151712 244.22177557 361.89426994 248.63331413 C361.88751154 252.78070387 361.88538267 256.92806953 361.88689232 261.07546425 C361.88661591 262.6021373 361.88460972 264.12881112 361.88079453 265.65547943 C361.87586006 267.73083459 361.87700077 269.80609742 361.87974548 271.88145447 C361.87882369 273.04567901 361.8779019 274.20990355 361.87695217 275.40940762 C361.70553433 277.92978839 361.70553433 277.92978839 363 279 C363.21864901 281.35958724 363.37878226 283.69737654 363.5 286.0625 C363.54060547 286.76898682 363.58121094 287.47547363 363.62304688 288.20336914 C363.79730156 291.23774644 363.96060289 294.27269247 364.125 297.30761719 C364.24626198 299.51780629 364.37298758 301.72763515 364.5 303.9375 C364.53544922 304.6291626 364.57089844 305.3208252 364.60742188 306.03344727 C364.53693509 309.30139612 364.53693509 309.30139612 366 312 C366.45084497 315.67495484 366.81858937 319.3490372 367.16210938 323.03515625 C367.65345274 327.90065399 368.54281861 332.30952557 370 337 C370.55940309 339.22478201 371.10163906 341.45396466 371.625 343.6875 C371.88539063 344.78449219 372.14578125 345.88148438 372.4140625 347.01171875 C373 350 373 350 373 354 C363.6030273 354.13926743 354.206412 354.2457554 344.80863094 354.31087303 C340.44439577 354.34213298 336.08086869 354.38450626 331.71704102 354.45263672 C327.50243272 354.51802268 323.28850372 354.55374617 319.0734272 354.56926346 C317.46864699 354.58031561 315.86390229 354.60189882 314.25941277 354.63438034 C300.10771144 354.90937076 300.10771144 354.90937076 295.59204102 351.12744141 C294.15333557 349.54824829 294.15333557 349.54824829 293 348 C292.29875 347.13375 291.5975 346.2675 290.875 345.375 C290.25625 344.59125 289.6375 343.8075 289 343 C288.175 342.34 287.35 341.68 286.5 341 C283.87100457 338.89680365 282.09680365 336.62100457 280 334 C279.175 333.34 278.35 332.68 277.5 332 C274.87100457 329.89680365 273.09680365 327.62100457 271 325 C270.175 324.34 269.35 323.68 268.5 323 C265.86197849 320.88958279 264.07357938 318.65677358 262 316 C260.6696875 314.700625 260.6696875 314.700625 259.3125 313.375 C257 311 257 311 256 308 C255.34 308 254.68 308 254 308 C250 303.52941176 250 303.52941176 250 301 C249.01 300.67 248.02 300.34 247 300 C244 296.55555556 244 296.55555556 244 294 C243.01 293.67 242.02 293.34 241 293 C239.43778244 291.26231598 237.94556521 289.46086782 236.5 287.625 C233.51839629 283.80607953 233.51839629 283.80607953 230.21875 280.2734375 C229 279 229 279 229 277 C228.34 277 227.68 277 227 277 C226.05193174 275.6117572 225.11185162 274.2171952 224.21875 272.79296875 C222.43119932 270.16320669 220.30901253 267.86436031 218.171875 265.515625 C217 264 217 264 217 262 C216.34 262 215.68 262 215 262 C213.62101957 260.30189246 212.32040522 258.53964541 211.0625 256.75 C210.02802734 255.28820312 210.02802734 255.28820312 208.97265625 253.796875 C208.32167969 252.87390625 207.67070313 251.9509375 207 251 C206.42121094 250.26265625 205.84242188 249.5253125 205.24609375 248.765625 C204 247 204 247 204 245 C203.34 245 202.68 245 202 245 C200.2734375 242.8828125 200.2734375 242.8828125 198.375 240.125 C197.74335937 239.22007812 197.11171875 238.31515625 196.4609375 237.3828125 C195 235 195 235 195 233 C194.34 233 193.68 233 193 233 C191.2734375 230.8828125 191.2734375 230.8828125 189.375 228.125 C188.74335937 227.22007812 188.11171875 226.31515625 187.4609375 225.3828125 C186 223 186 223 186 221 C185.34 221 184.68 221 184 221 C183.67 219.68 183.34 218.36 183 217 C182.34 217 181.68 217 181 217 C180.67 215.68 180.34 214.36 180 213 C179.34 213 178.68 213 178 213 C177.67 211.68 177.34 210.36 177 209 C176.34 209 175.68 209 175 209 C173.35 206.03 171.7 203.06 170 200 C169.97687496 209.37035938 169.95908409 218.74070901 169.94818783 228.11109066 C169.94295935 232.46168459 169.93586235 236.81225907 169.92456055 241.1628418 C169.91373041 245.35790258 169.9077229 249.55294459 169.90512276 253.74801826 C169.90326874 255.35206968 169.89964856 256.95612003 169.89426994 258.5601635 C169.88705781 260.79916515 169.88600913 263.0380883 169.88647461 265.27709961 C169.884254 266.55395126 169.88203339 267.83080292 169.87974548 269.14634705 C169.67331911 271.89888855 169.67331911 271.89888855 171 273 C171.21877587 275.4323623 171.37889005 277.84349933 171.5 280.28125 C171.54060547 281.00993286 171.58121094 281.73861572 171.62304688 282.48937988 C171.79731572 285.61934888 171.96060857 288.74987032 172.125 291.88037109 C172.24625461 294.1600524 172.37298351 296.43938368 172.5 298.71875 C172.55317383 299.78905457 172.55317383 299.78905457 172.60742188 300.88098145 C172.52142231 304.22920778 172.52142231 304.22920778 174 307 C174.21376514 308.39986475 174.37022604 309.80861683 174.5 311.21875 C174.5825 312.06824219 174.665 312.91773438 174.75 313.79296875 C174.91666667 315.59765625 175.08333333 317.40234375 175.25 319.20703125 C175.3325 320.05652344 175.415 320.90601563 175.5 321.78125 C175.5721875 322.56564453 175.644375 323.35003906 175.71875 324.15820312 C175.81600626 326.01342729 175.81600626 326.01342729 177 327 C177.23527773 329.34987262 177.41386417 331.70556039 177.5625 334.0625 C177.68818359 335.99802734 177.68818359 335.99802734 177.81640625 337.97265625 C177.87699219 338.97167969 177.93757813 339.97070312 178 341 C178.66 341 179.32 341 180 341 C180.33 343.64 180.66 346.28 181 349 C181.66 349 182.32 349 183 349 C183.33 350.65 183.66 352.3 184 354 C172.6738837 354.02312255 161.34777297 354.04091464 150.02163792 354.05181217 C144.76303336 354.05704119 139.5044449 354.06413918 134.24584961 354.07543945 C129.17546873 354.08626766 124.10510338 354.09227669 119.03471184 354.09487724 C117.09573052 354.09673161 115.15675009 354.10035245 113.21777534 354.10573006 C110.5117824 354.1129396 107.80585444 354.11399098 105.09985352 354.11352539 C104.28993454 354.11712067 103.48001556 354.12071594 102.64555359 354.12442017 C97.11405216 354.11405216 97.11405216 354.11405216 96 353 C94.98670006 346.69502258 94.89726786 340.36939251 95 334 C94.34 334 93.68 334 93 334 C92.87882812 333.20335937 92.75765625 332.40671875 92.6328125 331.5859375 C92.46523438 330.52632813 92.29765625 329.46671875 92.125 328.375 C91.96257812 327.33085937 91.80015625 326.28671875 91.6328125 325.2109375 C91.00109437 322.00555291 90.06686858 319.08472862 89 316 C88.38833485 313.79373183 87.78452803 311.58527397 87.1875 309.375 C85.58672113 303.72484346 83.63689062 298.40793522 81.296875 293.02734375 C79.43195524 288.67399189 77.78071159 284.24449726 76.11328125 279.8125 C75.08227313 277.06410112 75.08227313 277.06410112 73.85546875 274.8125 C73 273 73 273 73 270 C72.34 270 71.68 270 71 270 C70.32694982 268.39850114 69.66177773 266.79368971 69 265.1875 C68.62875 264.29417969 68.2575 263.40085937 67.875 262.48046875 C67 260 67 260 67 257 C66.34 257 65.68 257 65 257 C64.67 254.69 64.34 252.38 64 250 C63.34 250 62.68 250 62 250 C61.67 248.68 61.34 247.36 61 246 C20.41 246 -20.18 246 -62 246 C-63.20987706 249.62963118 -64.37384138 253.20928385 -65.4375 256.875 C-66.76313288 261.33886584 -68.31253898 265.66081453 -70 270 C-70.66 270 -71.32 270 -72 270 C-72.33 272.97 -72.66 275.94 -73 279 C-73.66 279 -74.32 279 -75 279 C-75.33 281.64 -75.66 284.28 -76 287 C-76.66 287 -77.32 287 -78 287 C-78.33 289.97 -78.66 292.94 -79 296 C-79.66 296 -80.32 296 -81 296 C-81.33 299.3 -81.66 302.6 -82 306 C-82.66 306 -83.32 306 -84 306 C-84.495 311.94 -84.495 311.94 -85 318 C-85.66 318 -86.32 318 -87 318 C-87.33 322.95 -87.66 327.9 -88 333 C-88.66 333 -89.32 333 -90 333 C-89.98839844 333.86882812 -89.97679687 334.73765625 -89.96484375 335.6328125 C-89.95582031 336.78523438 -89.94679688 337.93765625 -89.9375 339.125 C-89.92589844 340.26195312 -89.91429687 341.39890625 -89.90234375 342.5703125 C-89.994673 345.8129156 -90.38610094 348.81932612 -91 352 C-93.64 352 -96.28 352 -99 352 C-99 352.66 -99 353.32 -99 354 C-125.4 354 -151.8 354 -179 354 C-177.87590965 348.37954825 -177.87590965 348.37954825 -175.53125 345.5546875 C-175.04269531 344.95269531 -174.55414063 344.35070312 -174.05078125 343.73046875 C-173.53902344 343.11816406 -173.02726563 342.50585938 -172.5 341.875 C-171.48586568 340.64628815 -170.47529183 339.41462668 -169.46875 338.1796875 C-168.79489258 337.37120361 -168.79489258 337.37120361 -168.10742188 336.54638672 C-166.79338152 334.87223634 -166.79338152 334.87223634 -166 332 C-165.34 332 -164.68 332 -164 332 C-163.71125 331.2575 -163.4225 330.515 -163.125 329.75 C-162.17697356 327.43260203 -161.15154089 325.22082885 -160 323 C-159.34 323 -158.68 323 -158 323 C-157.67 321.35 -157.34 319.7 -157 318 C-156.34 318 -155.68 318 -155 318 C-154.67 316.35 -154.34 314.7 -154 313 C-153.34 313 -152.68 313 -152 313 C-151.67 311.35 -151.34 309.7 -151 308 C-150.34 308 -149.68 308 -149 308 C-148.67 306.35 -148.34 304.7 -148 303 C-147.34 303 -146.68 303 -146 303 C-145.896875 302.29875 -145.79375 301.5975 -145.6875 300.875 C-144.90640997 297.60862353 -143.57941257 294.9528148 -142 292 C-141.34 292 -140.68 292 -140 292 C-139.6596875 290.824375 -139.6596875 290.824375 -139.3125 289.625 C-137.95830583 285.88484468 -136.31284003 282.47536523 -134.5 278.94140625 C-133.37189034 276.72925371 -132.27065679 274.51135463 -131.1875 272.27734375 C-130.87707764 271.64183594 -130.56665527 271.00632812 -130.24682617 270.3515625 C-129.63068779 269.08934016 -129.01876835 267.82504842 -128.41137695 266.55859375 C-126.22490186 262.11245093 -126.22490186 262.11245093 -124 261 C-123.34227572 257.97065509 -123.34227572 257.97065509 -123 255 C-122.34 255 -121.68 255 -121 255 C-120.505 252.03 -120.505 252.03 -120 249 C-119.34 249 -118.68 249 -118 249 C-117.505 246.03 -117.505 246.03 -117 243 C-116.34 243 -115.68 243 -115 243 C-114.67 240.69 -114.34 238.38 -114 236 C-113.34 236 -112.68 236 -112 236 C-111.505 233.03 -111.505 233.03 -111 230 C-110.34 230 -109.68 230 -109 230 C-108.505 227.03 -108.505 227.03 -108 224 C-107.34 224 -106.68 224 -106 224 C-105.896875 223.13375 -105.79375 222.2675 -105.6875 221.375 C-104.96601586 217.83316877 -103.72876739 215.15687958 -102 212 C-101.34 212 -100.68 212 -100 212 C-99.896875 211.154375 -99.79375 210.30875 -99.6875 209.4375 C-98.9171146 205.58557299 -97.63725486 202.55924969 -96 199 C-95.34 199 -94.68 199 -94 199 C-93.505 196.03 -93.505 196.03 -93 193 C-92.34 193 -91.68 193 -91 193 C-90.505 190.03 -90.505 190.03 -90 187 C-89.34 187 -88.68 187 -88 187 C-87.67 184.69 -87.34 182.38 -87 180 C-86.34 180 -85.68 180 -85 180 C-84.896875 179.319375 -84.79375 178.63875 -84.6875 177.9375 C-83.85274981 174.37084011 -82.50527246 171.33777806 -81 168 C-80.34 168 -79.68 168 -79 168 C-78.505 165.03 -78.505 165.03 -78 162 C-77.34 162 -76.68 162 -76 162 C-75.505 159.03 -75.505 159.03 -75 156 C-74.34 156 -73.68 156 -73 156 C-72.896875 155.154375 -72.79375 154.30875 -72.6875 153.4375 C-71.9171146 149.58557299 -70.63725486 146.55924969 -69 143 C-68.34 143 -67.68 143 -67 143 C-66.505 140.03 -66.505 140.03 -66 137 C-65.34 137 -64.68 137 -64 137 C-63.505 134.03 -63.505 134.03 -63 131 C-62.34 131 -61.68 131 -61 131 C-60.90847656 130.15953125 -60.81695312 129.3190625 -60.72265625 128.453125 C-59.89681211 124.5069292 -58.32092931 121.27070747 -56.4375 117.75 C-53.97003203 113.59038549 -53.97003203 113.59038549 -53 109 C-52.34 109 -51.68 109 -51 109 C-50.67 107.02 -50.34 105.04 -50 103 C-49.34 103 -48.68 103 -48 103 C-47.67 101.02 -47.34 99.04 -47 97 C-46.34 97 -45.68 97 -45 97 C-44.938125 96.21625 -44.87625 95.4325 -44.8125 94.625 C-43.86760534 90.40931611 -42.16491666 87.07081612 -40.15625 83.26953125 C-38.89499162 80.93311799 -38.89499162 80.93311799 -38 78 C-37.34 78 -36.68 78 -36 78 C-35.67 76.02 -35.34 74.04 -35 72 C-34.34 72 -33.68 72 -33 72 C-32.67 70.02 -32.34 68.04 -32 66 C-31.34 66 -30.68 66 -30 66 C-29.8453125 64.7315625 -29.8453125 64.7315625 -29.6875 63.4375 C-28.9171146 59.58557299 -27.63725486 56.55924969 -26 53 C-25.34 53 -24.68 53 -24 53 C-23.67 51.02 -23.34 49.04 -23 47 C-22.34 47 -21.68 47 -21 47 C-20.67 45.02 -20.34 43.04 -20 41 C-19.34 41 -18.68 41 -18 41 C-17.938125 40.21625 -17.87625 39.4325 -17.8125 38.625 C-16.86760534 34.40931611 -15.16491666 31.07081612 -13.15625 27.26953125 C-11.89499162 24.93311799 -11.89499162 24.93311799 -11 22 C-10.34 22 -9.68 22 -9 22 C-8.67 20.02 -8.34 18.04 -8 16 C-7.34 16 -6.68 16 -6 16 C-5.67 14.02 -5.34 12.04 -5 10 C-4.34 10 -3.68 10 -3 10 C-2.814375 8.63875 -2.814375 8.63875 -2.625 7.25 C-2.07890323 4.41029677 -1.42736197 2.47409409 0 0 Z M169 41 C169 85.88 169 130.76 169 177 C172.3 177 175.6 177 179 177 C179 176.34 179 175.68 179 175 C180.8253125 175.0309375 180.8253125 175.0309375 182.6875 175.0625 C185.91977322 175.06824116 188.84934741 174.78766315 192 174 C192 173.34 192 172.68 192 172 C194.97 171.67 197.94 171.34 201 171 C201 170.34 201 169.68 201 169 C203.31 168.67 205.62 168.34 208 168 C208 167.34 208 166.68 208 166 C210.97 165.505 210.97 165.505 214 165 C214 164.34 214 163.68 214 163 C216.475 162.505 216.475 162.505 219 162 C219 161.34 219 160.68 219 160 C219.763125 159.71125 220.52625 159.4225 221.3125 159.125 C224.15029308 158.03730987 224.15029308 158.03730987 227 156 C227 155.34 227 154.68 227 154 C227.99 153.67 228.98 153.34 230 153 C230 152.34 230 151.68 230 151 C230.99 150.67 231.98 150.34 233 150 C236.404811 146.43305514 238.5535141 144.06017356 239 139 C239.66 139 240.32 139 241 139 C241.62604585 137.29204966 242.25078415 135.58362002 242.875 133.875 C243.22304688 132.92367187 243.57109375 131.97234375 243.9296875 130.9921875 C244.28289062 130.00476563 244.63609375 129.01734375 245 128 C245.34804688 127.09572266 245.69609375 126.19144531 246.0546875 125.25976562 C247.10700388 121.63101348 247.22756759 118.62540799 247.1953125 114.8515625 C247.19106766 113.86547501 247.19106766 113.86547501 247.18673706 112.85946655 C247.17563447 110.78111767 247.15054986 108.70321634 247.125 106.625 C247.11495731 105.20703752 247.10583373 103.78906821 247.09765625 102.37109375 C247.07572805 98.91391963 247.04126818 95.45700358 247 92 C246.34 92 245.68 92 245 92 C244.67 88.7 244.34 85.4 244 82 C243.34 82 242.68 82 242 82 C241.505 79.03 241.505 79.03 241 76 C240.34 76 239.68 76 239 76 C238.896875 75.2575 238.79375 74.515 238.6875 73.75 C237.95066203 70.8026481 237.05200858 69.21616926 235 67 C234.34 67 233.68 67 233 67 C232.7525 66.38125 232.505 65.7625 232.25 65.125 C230.79371361 62.64931313 229.62187494 62.04874998 227 61 C227 60.34 227 59.68 227 59 C224.66607604 57.17093931 224.66607604 57.17093931 221.75 55.375 C220.28820312 54.42753906 220.28820312 54.42753906 218.796875 53.4609375 C215.93499855 51.69134065 215.93499855 51.69134065 212 52 C212 51.34 212 50.68 212 50 C209.69 49.67 207.38 49.34 205 49 C205 48.34 205 47.68 205 47 C204.43152344 46.87882812 203.86304688 46.75765625 203.27734375 46.6328125 C199.61784347 45.83859708 196.02861162 45.00853329 192.4375 43.9375 C189.7440086 43.20291144 187.37402582 42.75000027 184.625 42.4375 C181 42 181 42 180 41 C176.37 41 172.74 41 169 41 Z M-1 101 C-2.49821059 104.37097383 -3 106.20442119 -3 110 C-3.66 110 -4.32 110 -5 110 C-5.33 112.31 -5.66 114.62 -6 117 C-6.66 117 -7.32 117 -8 117 C-8.33 119.31 -8.66 121.62 -9 124 C-9.66 124 -10.32 124 -11 124 C-11.33 126.31 -11.66 128.62 -12 131 C-12.66 131 -13.32 131 -14 131 C-14.33 133.31 -14.66 135.62 -15 138 C-15.66 138 -16.32 138 -17 138 C-17.33 140.31 -17.66 142.62 -18 145 C-18.66 145 -19.32 145 -20 145 C-20.33 147.31 -20.66 149.62 -21 152 C-21.66 152 -22.32 152 -23 152 C-23.33 154.31 -23.66 156.62 -24 159 C-24.66 159 -25.32 159 -26 159 C-26.33 161.31 -26.66 163.62 -27 166 C-27.66 166 -28.32 166 -29 166 C-29.33 168.31 -29.66 170.62 -30 173 C-30.66 173 -31.32 173 -32 173 C-32.33 175.31 -32.66 177.62 -33 180 C-33.66 180 -34.32 180 -35 180 C-35.33 182.31 -35.66 184.62 -36 187 C-36.66 187 -37.32 187 -38 187 C-38.33 189.31 -38.66 191.62 -39 194 C-39.66 194 -40.32 194 -41 194 C-41.33 195.65 -41.66 197.3 -42 199 C-14.94 199 12.12 199 40 199 C40 198.34 40 197.68 40 197 C39.34 197 38.68 197 38 197 C37.505 193.535 37.505 193.535 37 190 C36.34 190 35.68 190 35 190 C34.896875 189.01 34.79375 188.02 34.6875 187 C34.09191294 182.71702837 32.61404973 179.00003629 31 175 C30.34 175 29.68 175 29 175 C28.505 171.535 28.505 171.535 28 168 C27.34 168 26.68 168 26 168 C25.505 164.535 25.505 164.535 25 161 C24.34 161 23.68 161 23 161 C22.505 157.535 22.505 157.535 22 154 C21.34 154 20.68 154 20 154 C19.938125 152.88625 19.87625 151.7725 19.8125 150.625 C19.25080731 146.05924082 17.45688883 142.63421403 15.31640625 138.609375 C13.61285394 135.23260069 12.41410812 131.76470324 11.16796875 128.19921875 C9.69714916 124.17045205 8.07698244 120.21258198 6.4375 116.25 C6.14439941 115.54093506 5.85129883 114.83187012 5.54931641 114.10131836 C3.73094051 109.72049906 1.87600404 105.35643491 0 101 C-0.33 101 -0.66 101 -1 101 Z M980 103 C978.23537317 106.08809695 978 107.23312136 978 111 C977.34 111 976.68 111 976 111 C975.608125 112.0725 975.21625 113.145 974.8125 114.25 C972.44632975 120.56733493 970.01835649 126.96328703 967 133 C967.33 133.66 967.66 134.32 968 135 C967.34 135 966.68 135 966 135 C965.67 137.31 965.34 139.62 965 142 C964.34 142 963.68 142 963 142 C962.67 144.31 962.34 146.62 962 149 C961.34 149 960.68 149 960 149 C959.67 151.31 959.34 153.62 959 156 C958.34 156 957.68 156 957 156 C956.67 158.31 956.34 160.62 956 163 C955.34 163 954.68 163 954 163 C953.67 165.31 953.34 167.62 953 170 C952.34 170 951.68 170 951 170 C950.67 172.31 950.34 174.62 950 177 C949.34 177 948.68 177 948 177 C947.32739649 178.76858691 946.66211605 180.53996016 946 182.3125 C945.62875 183.29863281 945.2575 184.28476562 944.875 185.30078125 C943.84581498 188.00271656 943.84581498 188.00271656 944 191 C943.34 191 942.68 191 942 191 C941.87625 192.134375 941.7525 193.26875 941.625 194.4375 C941.315625 196.2009375 941.315625 196.2009375 941 198 C940.01 198.495 940.01 198.495 939 199 C966.39 199 993.78 199 1022 199 C1020.35 194.71 1018.7 190.42 1017 186 C1015.99620775 183.3347585 1014.99426293 180.66881103 1014 178 C1013.34 178 1012.68 178 1012 178 C1011.505 174.535 1011.505 174.535 1011 171 C1010.34 171 1009.68 171 1009 171 C1008.505 167.535 1008.505 167.535 1008 164 C1007.34 164 1006.68 164 1006 164 C1005.505 160.535 1005.505 160.535 1005 157 C1004.34 157 1003.68 157 1003 157 C1002.896875 156.01 1002.79375 155.02 1002.6875 154 C1002.09191294 149.71702837 1000.61404973 146.00003629 999 142 C998.34 142 997.68 142 997 142 C996.505 138.535 996.505 138.535 996 135 C995.34 135 994.68 135 994 135 C993.505 131.535 993.505 131.535 993 128 C992.34 128 991.68 128 991 128 C990.505 124.535 990.505 124.535 990 121 C989.34 121 988.68 121 988 121 C987.505 117.535 987.505 117.535 987 114 C986.34 114 985.68 114 985 114 C984.87625 112.9275 984.7525 111.855 984.625 110.75 C984.10356064 107.62136385 983.59911746 105.66519576 982 103 C981.34 103 980.68 103 980 103 Z M592 195 C592 233.61 592 272.22 592 312 C600.15231511 312 608.18891301 311.93404003 616.3125 311.5 C617.72692383 311.42845703 617.72692383 311.42845703 619.16992188 311.35546875 C621.44678131 311.23989213 623.72344492 311.12139905 626 311 C626 310.34 626 309.68 626 309 C627.74023438 309.01740234 627.74023438 309.01740234 629.515625 309.03515625 C642.79490844 309.21046731 642.79490844 309.21046731 656 308 C656.33 307.67 656.66 307.34 657 307 C658.33802186 306.77486899 659.68573023 306.60639193 661.03515625 306.46484375 C661.84404297 306.37783203 662.65292969 306.29082031 663.48632812 306.20117188 C664.33646484 306.11416016 665.18660156 306.02714844 666.0625 305.9375 C667.34350586 305.80118164 667.34350586 305.80118164 668.65039062 305.66210938 C670.76651535 305.43749278 672.88320894 305.21824773 675 305 C675 304.34 675 303.68 675 303 C676.8253125 303.0309375 676.8253125 303.0309375 678.6875 303.0625 C681.91977322 303.06824116 684.84934741 302.78766315 688 302 C688 301.34 688 300.68 688 300 C693.94 299.505 693.94 299.505 700 299 C698.30885514 294.77213785 696.69115085 291.61623395 694 288 C693.34 288 692.68 288 692 288 C691.71125 287.2575 691.4225 286.515 691.125 285.75 C690.17697356 283.43260203 689.15154089 281.22082885 688 279 C687.34 279 686.68 279 686 279 C685.8865625 278.28070313 685.773125 277.56140625 685.65625 276.8203125 C684.96588124 273.85337056 683.91512646 271.56538577 682.5 268.875 C681.11780882 266.23115758 679.94548313 263.8364494 679 261 C678.34 261 677.68 261 677 261 C676.505 257.535 676.505 257.535 676 254 C675.34 254 674.68 254 674 254 C673.87625 252.80375 673.7525 251.6075 673.625 250.375 C673.17290473 246.71302828 672.23842766 243.4830778 671 240 C670.63893903 238.33911955 670.29537827 236.67381019 670 235 C669.34 235 668.68 235 668 235 C667.67 230.38 667.34 225.76 667 221 C666.34 221 665.68 221 665 221 C665 217.37 665 213.74 665 210 C657.14969897 206.43301033 649.39275891 203.87713004 641.0546875 201.796875 C638 201 638 201 636 200 C635.154375 200 634.30875 200 633.4375 200 C632.633125 200 631.82875 200 631 200 C630.505 199.505 630.505 199.505 630 199 C627.66752239 198.66073053 625.33414529 198.32759934 623 198 C622.34 197.67 621.68 197.34 621 197 C619.45386986 197.08651631 617.91090613 197.24002636 616.375 197.4375 C615.55773437 197.53933594 614.74046875 197.64117187 613.8984375 197.74609375 C613.27195312 197.82988281 612.64546875 197.91367187 612 198 C612 197.34 612 196.68 612 196 C605.4 195.67 598.8 195.34 592 195 Z M900 297 C900 297.66 900 298.32 900 299 C900.66 299 901.32 299 902 299 C902 298.34 902 297.68 902 297 C901.34 297 900.68 297 900 297 Z " fill="#030405" transform="translate(329,110)"/>
<path d="" fill="#000000" transform="translate(0,0)"/>
<path d="" fill="#000000" transform="translate(0,0)"/>
<path d="" fill="#000000" transform="translate(0,0)"/>
<path d="" fill="#000000" transform="translate(0,0)"/>
<path d="" fill="#000000" transform="translate(0,0)"/>
<path d="" fill="#000000" transform="translate(0,0)"/>
<path d="" fill="#000000" transform="translate(0,0)"/>
<path d="" fill="#000000" transform="translate(0,0)"/>
<path d="" fill="#000000" transform="translate(0,0)"/>
<path d="" fill="#000000" transform="translate(0,0)"/>
<path d="" fill="#000000" transform="translate(0,0)"/>
<path d="" fill="#000000" transform="translate(0,0)"/>
<path d="" fill="#000000" transform="translate(0,0)"/>
<path d="" fill="#000000" transform="translate(0,0)"/>
<path d="" fill="#000000" transform="translate(0,0)"/>
<path d="" fill="#000000" transform="translate(0,0)"/>
<path d="" fill="#000000" transform="translate(0,0)"/>
<path d="" fill="#000000" transform="translate(0,0)"/>
<path d="" fill="#000000" transform="translate(0,0)"/>
<path d="" fill="#000000" transform="translate(0,0)"/>
<path d="" fill="#000000" transform="translate(0,0)"/>
<path d="" fill="#000000" transform="translate(0,0)"/>
<path d="" fill="#000000" transform="translate(0,0)"/>
<path d="" fill="#000000" transform="translate(0,0)"/>
<path d="" fill="#000000" transform="translate(0,0)"/>
<path d="" fill="#000000" transform="translate(0,0)"/>
<path d="" fill="#000000" transform="translate(0,0)"/>
<path d="" fill="#000000" transform="translate(0,0)"/>
<path d="" fill="#000000" transform="translate(0,0)"/>
<path d="" fill="#000000" transform="translate(0,0)"/>
<path d="" fill="#000000" transform="translate(0,0)"/>
<path d="" fill="#000000" transform="translate(0,0)"/>
<path d="" fill="#000000" transform="translate(0,0)"/>
<path d="" fill="#000000" transform="translate(0,0)"/>
<path d="" fill="#000000" transform="translate(0,0)"/>
<path d="" fill="#000000" transform="translate(0,0)"/>
<path d="" fill="#000000" transform="translate(0,0)"/>
<path d="" fill="#000000" transform="translate(0,0)"/>
<path d="" fill="#000000" transform="translate(0,0)"/>
<path d="" fill="#000000" transform="translate(0,0)"/>
<path d="" fill="#000000" transform="translate(0,0)"/>
<path d="" fill="#000000" transform="translate(0,0)"/>
<path d="" fill="#000000" transform="translate(0,0)"/>
<path d="" fill="#000000" transform="translate(0,0)"/>
<path d="" fill="#000000" transform="translate(0,0)"/>
<path d="" fill="#000000" transform="translate(0,0)"/>
<path d="" fill="#000000" transform="translate(0,0)"/>
<path d="" fill="#000000" transform="translate(0,0)"/>
<path d="" fill="#000000" transform="translate(0,0)"/>
<path d="" fill="#000000" transform="translate(0,0)"/>
<path d="" fill="#000000" transform="translate(0,0)"/>
<path d="" fill="#000000" transform="translate(0,0)"/>
<path d="" fill="#000000" transform="translate(0,0)"/>
<path d="" fill="#000000" transform="translate(0,0)"/>
<path d="" fill="#000000" transform="translate(0,0)"/>
<path d="" fill="#000000" transform="translate(0,0)"/>
<path d="" fill="#000000" transform="translate(0,0)"/>
<path d="" fill="#000000" transform="translate(0,0)"/>
<path d="" fill="#000000" transform="translate(0,0)"/>
<path d="" fill="#000000" transform="translate(0,0)"/>
<path d="" fill="#000000" transform="translate(0,0)"/>
<path d="" fill="#000000" transform="translate(0,0)"/>
<path d="" fill="#000000" transform="translate(0,0)"/>
<path d="" fill="#000000" transform="translate(0,0)"/>
<path d="" fill="#000000" transform="translate(0,0)"/>
<path d="" fill="#000000" transform="translate(0,0)"/>
<path d="" fill="#000000" transform="translate(0,0)"/>
</svg>
