<?xml version="1.0" encoding="UTF-8"?>
<svg version="1.1" xmlns="http://www.w3.org/2000/svg" width="1417" height="712">
<path d="M0 0 C12.50401091 10.59902384 21.71918813 25.78591802 23.75 42.25 C25.28160385 63.33507969 21.89224057 82.34486127 7.87890625 98.9375 C-3.25253878 111.02890451 -18.56153701 120.41194967 -35.39379883 121.37231445 C-55.73419231 122.03478324 -72.48304049 119.07538063 -88.25 105.25 C-89.24 104.26 -90.23 103.27 -91.25 102.25 C-91.58 127 -91.91 151.75 -92.25 177.25 C-99.18 177.25 -106.11 177.25 -113.25 177.25 C-113.25 114.88 -113.25 52.51 -113.25 -11.75 C-106.32 -11.75 -99.39 -11.75 -92.25 -11.75 C-91.755 -3.335 -91.755 -3.335 -91.25 5.25 C-90.38375 4.26 -89.5175 3.27 -88.625 2.25 C-64.54578373 -21.73192651 -25.68595642 -19.28422574 0 0 Z M-79.4140625 20.31640625 C-89.40599357 30.77612435 -92.79823843 43.18586096 -92.55859375 57.3671875 C-91.72234867 67.88905602 -87.95674661 76.20190406 -81.25 84.25 C-80.67636719 84.95898438 -80.10273437 85.66796875 -79.51171875 86.3984375 C-71.24474585 95.63903676 -59.16728743 100.47922637 -46.98828125 101.42578125 C-33.23830031 101.8817143 -20.3596345 96.47134026 -10.25 87.25 C-0.61634169 76.06565222 3.75904993 62.88122397 2.75 48.25 C0.80093022 34.65606415 -4.62089158 24.04473003 -15.25 15.25 C-35.90428428 0.40879259 -61.24031283 2.96277164 -79.4140625 20.31640625 Z " fill="#54565B" transform="translate(794.25,340.75)"/>
<path d="M0 0 C1.35994754 1.30617696 2.70446944 2.62990653 4 4 C5.98087037 2.01912963 5.36498699 -1.77473748 5.5 -4.5 C5.86486486 -11.86486486 5.86486486 -11.86486486 7 -13 C8.34267413 -13.08631874 9.68974322 -13.10706473 11.03515625 -13.09765625 C11.76355713 -13.09515869 12.49195801 -13.09266113 13.24243164 -13.09008789 C14.1730542 -13.08098389 15.10367676 -13.07187988 16.0625 -13.0625 C17.65681725 -13.05101129 19.25113714 -13.03988509 20.84545898 -13.02905273 C22.23030599 -13.01936849 23.61515299 -13.00968424 25 -13 C26.29837425 13.08071914 26.11908416 39.16950278 26.06866455 65.27459717 C26.05827758 71.23579549 26.05383461 77.19699829 26.04882812 83.15820312 C26.03823 94.77214877 26.02070106 106.38606796 26 118 C19.07 118 12.14 118 5 118 C4.67 112.72 4.34 107.44 4 102 C2.4325 103.36125 0.865 104.7225 -0.75 106.125 C-15.40991669 118.07847053 -32.36481371 122.27474276 -51.09423828 120.60351562 C-69.4150141 118.54193277 -85.87877786 109.33242751 -97.44921875 94.95703125 C-109.74551112 78.35289681 -113.30022715 60.05542089 -110.71142578 39.73486328 C-107.68671822 22.7437208 -97.47682023 7.20571376 -83.80078125 -3.15234375 C-56.79418054 -20.96841367 -25.47046011 -20.02529845 0 0 Z M-78.75 19.5625 C-87.67153783 30.6123083 -92.20543094 43.86010371 -91 58 C-88.9772129 70.96963491 -83.06672948 82.64567358 -72.4375 90.5625 C-60.9835397 98.29563786 -49.68450289 101.00788351 -36 100 C-21.71186903 97.17146728 -9.76421148 89.78323382 -1.609375 77.6953125 C5.03833184 66.56201706 6.71603466 54.2211019 4.3515625 41.515625 C0.73621512 28.59925575 -6.33674655 18.13166332 -17.9609375 11.24609375 C-38.1127043 0.71336929 -62.38258349 2.57675886 -78.75 19.5625 Z " fill="#54565B" transform="translate(507,342)"/>
<path d="M0 0 C3.7632123 2.87014228 7.02566573 5.83425948 10.38671875 9.1953125 C11.04671875 3.5853125 11.70671875 -2.0246875 12.38671875 -7.8046875 C18.65671875 -7.8046875 24.92671875 -7.8046875 31.38671875 -7.8046875 C31.38671875 35.4253125 31.38671875 78.6553125 31.38671875 123.1953125 C24.78671875 123.1953125 18.18671875 123.1953125 11.38671875 123.1953125 C11.05671875 117.5853125 10.72671875 111.9753125 10.38671875 106.1953125 C9.23171875 107.3503125 8.07671875 108.5053125 6.88671875 109.6953125 C-7.20951311 122.15399152 -25.12475951 126.37692386 -43.57763672 125.35058594 C-61.14798646 124.01036737 -76.7358088 115.51061618 -88.81640625 102.89453125 C-101.34266046 88.28853636 -106.63610432 70.07379432 -105.48193359 51.02783203 C-104.12319456 36.53130972 -98.08043406 23.2443803 -88.61328125 12.1953125 C-87.85660156 11.22980469 -87.09992187 10.26429688 -86.3203125 9.26953125 C-79.70120762 1.34679384 -69.18438171 -4.282854 -59.61328125 -7.8046875 C-58.31970703 -8.28228516 -58.31970703 -8.28228516 -57 -8.76953125 C-37.91552541 -14.62714226 -16.31869021 -11.26940938 0 0 Z M-72.61328125 24.1953125 C-77.95665097 30.62777668 -81.23778267 37.20035493 -83.61328125 45.1953125 C-83.80535156 45.81792969 -83.99742187 46.44054687 -84.1953125 47.08203125 C-86.81843112 60.34471513 -83.56744236 73.67926163 -76.30859375 84.9140625 C-68.79566518 95.02362537 -59.01642423 101.68243304 -46.61328125 104.1953125 C-30.80692153 105.85821856 -17.35827035 103.11679632 -4.61328125 93.1953125 C5.18184393 84.2025184 10.20921088 72.77675308 11.671875 59.6328125 C12.14566493 46.77868564 7.42126987 34.61543315 -0.86328125 24.9453125 C-10.44944055 14.85295336 -22.23695272 9.48142129 -36.17578125 8.9453125 C-49.73449826 9.14889684 -63.26863592 14.13011621 -72.61328125 24.1953125 Z " fill="#54565B" transform="translate(1014.61328125,336.8046875)"/>
<path d="M0 0 C0.82556396 0.00757324 1.65112793 0.01514648 2.50170898 0.02294922 C15.65569581 0.37351749 27.47388496 5.00539611 36.875 14.3125 C37.84411748 15.34414119 38.80692193 16.38200203 39.75 17.4375 C38.20752012 20.85639869 36.19854158 23.62519272 33.875 26.5625 C33.19695312 27.43132812 32.51890625 28.30015625 31.8203125 29.1953125 C29.85195535 31.32708043 28.41436924 32.37414187 25.75 33.4375 C24.76 32.3546875 24.76 32.3546875 23.75 31.25 C17.50083688 25.03614289 10.17481009 21.48920452 1.3125 21.125 C-3.94693065 21.27731741 -8.87397825 22.22656165 -12.82421875 25.90234375 C-16.80455398 30.5669773 -17.65690872 33.33386921 -17.25 39.4375 C-15.30184573 45.80147061 -10.84139363 48.40915705 -5.25 51.4375 C0.62470946 54.21227052 6.62770424 56.64353582 12.703125 58.9375 C19.77703241 61.62677577 26.08168534 64.27621349 31.75 69.4375 C32.37390625 69.95957031 32.9978125 70.48164063 33.640625 71.01953125 C39.68700081 76.44348602 42.52823997 82.37025184 43.12890625 90.47265625 C43.49208462 99.10564831 42.76950041 106.63790516 38.75 114.4375 C38.34910156 115.22511719 37.94820312 116.01273437 37.53515625 116.82421875 C32.0015308 126.27148075 22.83182947 132.04137464 12.390625 134.8125 C-3.31982146 137.50957235 -19.91269947 135.3952991 -33.765625 127.23046875 C-38.08079608 124.11621793 -41.69889076 120.38317694 -45.25 116.4375 C-43.58536962 112.15107676 -40.45924163 109.35132783 -37.25 106.1875 C-36.7034375 105.63320313 -36.156875 105.07890625 -35.59375 104.5078125 C-31.5033867 100.4375 -31.5033867 100.4375 -29.25 100.4375 C-28.26 101.489375 -28.26 101.489375 -27.25 102.5625 C-19.99842442 110.00435016 -10.1520581 114.01486156 0.16015625 114.56640625 C6.6331152 114.18967319 13.70355744 111.63626469 18.234375 106.87890625 C21.46993835 102.17796095 22.13038628 98.04819767 21.75 92.4375 C19.8081981 86.49073167 15.90812872 83.6090657 10.75 80.4375 C6.58226946 78.55492516 2.3105675 77.02210707 -2 75.5 C-15.19556262 70.82143311 -29.58568848 65.46904376 -36.3671875 52.26171875 C-37.1875 50.1875 -37.1875 50.1875 -38.25 46.4375 C-38.476875 45.65375 -38.70375 44.87 -38.9375 44.0625 C-40.13831937 33.97561732 -39.19099429 24.13606934 -33.26171875 15.5625 C-24.30133192 5.16288005 -13.77960426 -0.17938115 0 0 Z " fill="#54565B" transform="translate(1119.25,326.5625)"/>
<path d="M0 0 C0 10.89 0 21.78 0 33 C-3.09375 33.556875 -6.1875 34.11375 -9.375 34.6875 C-16.8417667 36.14055403 -23.64997921 37.60474307 -30 42 C-30.7734375 42.52980469 -31.546875 43.05960938 -32.34375 43.60546875 C-42.03687033 51.18225781 -46.60846129 63.22627099 -49 75 C-49.16894775 75.81291504 -49.33789551 76.62583008 -49.51196289 77.46337891 C-50.18458231 82.33759844 -50.23578815 87.17058975 -50.31640625 92.0859375 C-50.33718735 93.14285797 -50.35796844 94.19977844 -50.37937927 95.28872681 C-50.44453991 98.65075445 -50.50360361 102.01285737 -50.5625 105.375 C-50.60571708 107.6601639 -50.64933238 109.94532031 -50.69335938 112.23046875 C-50.80018683 117.82023391 -50.90201425 123.41007324 -51 129 C-55.66201319 130.42768933 -60.32510989 131.85176109 -64.98925781 133.27246094 C-66.57647685 133.75648803 -68.16339281 134.24151013 -69.75 134.72753906 C-72.0278596 135.42513356 -74.30677777 136.11916684 -76.5859375 136.8125 C-77.29744965 137.03123779 -78.00896179 137.24997559 -78.74203491 137.4753418 C-83.77225659 139 -83.77225659 139 -86 139 C-86.05155527 131.9789552 -86.08608358 124.95796076 -86.10986328 117.93676758 C-86.11979748 115.5581683 -86.1333494 113.17958082 -86.15087891 110.80102539 C-86.37929582 78.96373879 -85.88713864 46.45171831 -62.9140625 21.7578125 C-46.24400958 5.83140506 -22.50842675 0 0 0 Z " fill="#54565B" transform="translate(379,195)"/>
<path d="M0 0 C6.93 0 13.86 0 21 0 C21 72.93 21 145.86 21 221 C14.4 221 7.8 221 1 221 C-0.06470652 197.42487294 -0.13453597 173.88405816 -0.10139394 150.28919005 C-0.09504278 144.98554478 -0.09454748 139.68189861 -0.09336853 134.37825012 C-0.09028926 124.38482456 -0.08212293 114.39141024 -0.07201904 104.39798957 C-0.06075069 92.999712 -0.05532073 81.60143383 -0.05032361 70.20315206 C-0.03993652 46.80209498 -0.02219769 23.40104861 0 0 Z " fill="#54565B" transform="translate(850,239)"/>
<path d="M0 0 C-0.99 7.59 -1.98 15.18 -3 23 C-5.92875 23.4125 -8.8575 23.825 -11.875 24.25 C-26.77459468 26.54069285 -36.92688797 31.4302608 -46.4921875 43.3984375 C-51.9564359 52.8263894 -51.4735785 62.62406991 -51.51171875 73.16015625 C-51.52858563 74.91850523 -51.54673855 76.6768423 -51.56611633 78.43516541 C-51.61340449 83.03653236 -51.64335037 87.63785101 -51.66955566 92.23937988 C-51.69946868 96.94549088 -51.74596185 101.65143578 -51.79101562 106.35742188 C-51.87680756 115.57154629 -51.9427248 124.78565415 -52 134 C-58.93 134 -65.86 134 -73 134 C-73 90.77 -73 47.54 -73 3 C-66.73 3 -60.46 3 -54 3 C-53.67 8.94 -53.34 14.88 -53 21 C-51.80375 19.845 -50.6075 18.69 -49.375 17.5 C-35.10181936 4.88232934 -18.80519455 0 0 0 Z " fill="#54565B" transform="translate(652,326)"/>
<path d="M0 0 C0.07716918 7.05762583 0.12905964 14.11513979 0.16479492 21.1730957 C0.17971968 23.56538965 0.20006677 25.95765705 0.22631836 28.34985352 C0.52429697 56.23714577 -1.33631381 85.21147535 -21.45947266 106.74487305 C-29.91663524 115.24615748 -39.74835211 120.17484665 -51 124 C-51.17391434 118.4500303 -51.30047214 112.9016686 -51.38452148 107.34960938 C-51.41957944 105.46391144 -51.4672419 103.57840181 -51.52807617 101.69335938 C-52.08498784 83.98450438 -52.08498784 83.98450438 -47.64453125 79.04296875 C-46.44553368 78.00996287 -45.23277131 76.99245716 -44 76 C-37.23874267 64.95766618 -34.1423501 50.21186081 -35.52734375 37.36328125 C-36.05958335 31.02058615 -36.47537446 24.9859987 -34 19 C-28.29478978 12.94740862 -20.4849757 9.63265792 -12.97265625 6.33837891 C-9.39395213 4.72713909 -6.02079349 2.85440094 -2.62695312 0.8894043 C-1 0 -1 0 0 0 Z " fill="#ED202E" transform="translate(328,371)"/>
<path d="M0 0 C-13.43733143 7.55405537 -27.00763677 14.85198709 -40.60391235 22.11447144 C-46.78484733 25.41704049 -52.95575524 28.73814983 -59.125 32.0625 C-60.72118164 32.92246582 -60.72118164 32.92246582 -62.34960938 33.79980469 C-64.49386259 34.95515276 -66.63806845 36.11058873 -68.78222656 37.26611328 C-73.10317448 39.59444197 -77.42484548 41.92142656 -81.74658203 44.24829102 C-83.91168374 45.41402753 -86.07672304 46.57987998 -88.24169922 47.74584961 C-93.70701522 50.68918686 -99.17310172 53.63107729 -104.640625 56.5703125 C-106.84379435 57.75512586 -109.04691973 58.940021 -111.25 60.125 C-112.31468506 60.69750488 -113.37937012 61.27000977 -114.47631836 61.85986328 C-119.82314088 64.73838672 -125.16206154 67.63038501 -130.48828125 70.546875 C-131.51211914 71.10745605 -132.53595703 71.66803711 -133.59082031 72.24560547 C-135.53267303 73.31033805 -137.47347573 74.37698851 -139.41308594 75.44580078 C-140.26805664 75.9148584 -141.12302734 76.38391602 -142.00390625 76.8671875 C-142.75486572 77.28081543 -143.5058252 77.69444336 -144.27954102 78.12060547 C-146 79 -146 79 -147 79 C-147 67.78 -147 56.56 -147 45 C-142.33308476 43.24990679 -137.77897747 41.55454983 -133.04882812 40.04907227 C-131.93235901 39.69270691 -130.81588989 39.33634155 -129.66558838 38.96917725 C-128.46625671 38.58876282 -127.26692505 38.20834839 -126.03125 37.81640625 C-124.73691411 37.40437626 -123.44262418 36.99220189 -122.14837646 36.57989502 C-118.65874824 35.46893587 -115.16821425 34.36084907 -111.67744446 33.25348282 C-109.4953299 32.56101801 -107.31348106 31.86772224 -105.13171387 31.17416382 C-79.75958928 23.1094166 -54.35757641 15.14137018 -28.93945312 7.22290039 C-27.95458357 6.91599998 -27.95458357 6.91599998 -26.94981766 6.60289955 C-23.8841091 5.64759364 -20.81820654 4.69292265 -17.75189209 3.73956299 C-16.68166809 3.40632019 -15.61144409 3.07307739 -14.50878906 2.72973633 C-13.58422913 2.44222 -12.65966919 2.15470367 -11.70709229 1.85847473 C-9.73551083 1.23324564 -7.78250225 0.54852587 -5.84320068 -0.17060852 C-3 -1 -3 -1 0 0 Z " fill="#54565B" transform="translate(403,316)"/>
</svg>
